<svg width="16" height="16" viewBox="0 0 16 16" fill="none" xmlns="http://www.w3.org/2000/svg">
<path d="M8.75 4.25C8.75 3.83579 8.41421 3.5 8 3.5C7.58579 3.5 7.25 3.83579 7.25 4.25V7.25H4.25C3.83579 7.25 3.5 7.58579 3.5 8C3.5 8.41421 3.83579 8.75 4.25 8.75H7.25V11.75C7.25 12.1642 7.58579 12.5 8 12.5C8.41421 12.5 8.75 12.1642 8.75 11.75V8.75H11.75C12.1642 8.75 12.5 8.41421 12.5 8C12.5 7.58579 12.1642 7.25 11.75 7.25H8.75V4.25Z" fill="#474E5A"/>
<path fill-rule="evenodd" clip-rule="evenodd" d="M16 7.99999C16 12.4187 12.4187 16 8 16C3.58127 16 0 12.4187 0 7.99999C0 3.58126 3.58127 0 8 0C12.4297 0 16 3.58126 16 7.99999ZM14.5 7.99999C14.5 11.5903 11.5903 14.5 8 14.5C4.4097 14.5 1.5 11.5903 1.5 7.99999C1.5 4.40969 4.4097 1.5 8 1.5C11.6 1.5 14.5 4.40834 14.5 7.99999Z" fill="#474E5A"/>
</svg>
