<svg width="16" height="16" viewBox="0 0 16 16" fill="none" xmlns="http://www.w3.org/2000/svg">
<path d="M5 9C6.10457 9 7 9.89543 7 11V14C7 15.1046 6.10457 16 5 16H2C0.895431 16 0 15.1046 0 14V11C0 9.89543 0.895431 9 2 9H5ZM13.5 9C14.6046 9 15.5 9.89543 15.5 11V14C15.5 15.1046 14.6046 16 13.5 16H10.5C9.39543 16 8.5 15.1046 8.5 14V11C8.5 9.89543 9.39543 9 10.5 9H13.5ZM2 10.5C1.72386 10.5 1.5 10.7239 1.5 11V14C1.5 14.2761 1.72386 14.5 2 14.5H5C5.27614 14.5 5.5 14.2761 5.5 14V11C5.5 10.7239 5.27614 10.5 5 10.5H2ZM10.5 10.5C10.2239 10.5 10 10.7239 10 11V14C10 14.2761 10.2239 14.5 10.5 14.5H13.5C13.7761 14.5 14 14.2761 14 14V11C14 10.7239 13.7761 10.5 13.5 10.5H10.5ZM12.25 0C12.6642 1.81058e-08 13 0.335786 13 0.75V3H15.25C15.6642 3 16 3.33579 16 3.75C16 4.16421 15.6642 4.5 15.25 4.5H13V7C13 7.41421 12.6642 7.75 12.25 7.75C11.8358 7.75 11.5 7.41421 11.5 7V4.5H9C8.58579 4.5 8.25 4.16421 8.25 3.75C8.25 3.33579 8.58579 3 9 3H11.5V0.75C11.5 0.335786 11.8358 -1.81058e-08 12.25 0ZM5 0.5C6.10457 0.5 7 1.39543 7 2.5V5.5C7 6.60457 6.10457 7.5 5 7.5H2C0.895431 7.5 0 6.60457 0 5.5V2.5C0 1.39543 0.895431 0.5 2 0.5H5ZM2 2C1.72386 2 1.5 2.22386 1.5 2.5V5.5C1.5 5.77614 1.72386 6 2 6H5C5.27614 6 5.5 5.77614 5.5 5.5V2.5C5.5 2.22386 5.27614 2 5 2H2Z" fill="#474E5A"/>
</svg>
