<svg width="16" height="16" viewBox="0 0 16 16" fill="none" xmlns="http://www.w3.org/2000/svg">
<path fill-rule="evenodd" clip-rule="evenodd" d="M5 5.25C5 4.83579 5.33579 4.5 5.75 4.5H10.75C11.1642 4.5 11.5 4.83579 11.5 5.25V10.25C11.5 10.6642 11.1642 11 10.75 11C10.3358 11 10 10.6642 10 10.25V7.06066L5.78033 11.2803C5.48744 11.5732 5.01256 11.5732 4.71967 11.2803C4.42678 10.9874 4.42678 10.5126 4.71967 10.2197L8.93934 6H5.75C5.33579 6 5 5.66421 5 5.25Z" fill="#474E5A"/>
<path fill-rule="evenodd" clip-rule="evenodd" d="M8 14.5C11.5903 14.5 14.5 11.5903 14.5 7.99999C14.5 4.40834 11.6 1.5 8 1.5C4.4097 1.5 1.5 4.40969 1.5 7.99999C1.5 11.5903 4.4097 14.5 8 14.5ZM8 16C12.4187 16 16 12.4187 16 7.99999C16 3.58126 12.4297 0 8 0C3.58127 0 0 3.58126 0 7.99999C0 12.4187 3.58127 16 8 16Z" fill="#474E5A"/>
</svg>
