<svg width="16" height="16" viewBox="0 0 16 16" fill="none" xmlns="http://www.w3.org/2000/svg">
<path d="M7.46967 3.46967C7.76256 3.17678 8.23744 3.17678 8.53033 3.46967C8.82322 3.76256 8.82322 4.23744 8.53033 4.53033L5.81066 7.25H12C12.4142 7.25 12.75 7.58579 12.75 8C12.75 8.41421 12.4142 8.75 12 8.75H5.81066L8.53033 11.4697C8.82322 11.7626 8.82322 12.2374 8.53033 12.5303C8.23744 12.8232 7.76256 12.8232 7.46967 12.5303L3.46967 8.53033C3.32902 8.38968 3.25 8.19891 3.25 8C3.25 7.80109 3.32902 7.61032 3.46967 7.46967L7.46967 3.46967Z" fill="#474E5A"/>
<path fill-rule="evenodd" clip-rule="evenodd" d="M0 7.99999C0 12.4187 3.58127 16 8 16C12.4187 16 16 12.4187 16 7.99999C16 3.58126 12.4187 0 8 0C3.57025 0 0 3.58126 0 7.99999ZM1.5 7.99999C1.5 11.5903 4.4097 14.5 8 14.5C11.5903 14.5 14.5 11.5903 14.5 7.99999C14.5 4.40969 11.5903 1.5 8 1.5C4.40002 1.5 1.5 4.40834 1.5 7.99999Z" fill="#474E5A"/>
</svg>
