<svg width="16" height="16" viewBox="0 0 16 16" fill="none" xmlns="http://www.w3.org/2000/svg">
<path fill-rule="evenodd" clip-rule="evenodd" d="M8 3.25C8.41421 3.25 8.75 3.58579 8.75 4V10.1893L11.4697 7.46967C11.7626 7.17678 12.2374 7.17678 12.5303 7.46967C12.8232 7.76256 12.8232 8.23744 12.5303 8.53033L8.53033 12.5303C8.23744 12.8232 7.76256 12.8232 7.46967 12.5303L3.46967 8.53033C3.17678 8.23744 3.17678 7.76256 3.46967 7.46967C3.76256 7.17678 4.23744 7.17678 4.53033 7.46967L7.25 10.1893V4C7.25 3.58579 7.58579 3.25 8 3.25Z" fill="#474E5A"/>
<path fill-rule="evenodd" clip-rule="evenodd" d="M8 14.5C11.5903 14.5 14.5 11.5903 14.5 7.99999C14.5 4.40834 11.6 1.5 8 1.5C4.4097 1.5 1.5 4.40969 1.5 7.99999C1.5 11.5903 4.4097 14.5 8 14.5ZM8 16C12.4187 16 16 12.4187 16 7.99999C16 3.58126 12.4297 0 8 0C3.58127 0 0 3.58126 0 7.99999C0 12.4187 3.58127 16 8 16Z" fill="#474E5A"/>
</svg>
