<svg width="16" height="16" viewBox="0 0 16 16" fill="none" xmlns="http://www.w3.org/2000/svg">
<path d="M1.38128 6.38128C1.03957 6.72299 1.03957 7.27701 1.38128 7.61872C1.72299 7.96043 2.27701 7.96043 2.61872 7.61872L7.125 3.11244L7.125 15C7.125 15.4832 7.51675 15.875 8 15.875C8.48325 15.875 8.875 15.4832 8.875 15L8.875 3.11244L13.3813 7.61872C13.723 7.96043 14.277 7.96043 14.6187 7.61872C14.9604 7.27701 14.9604 6.72299 14.6187 6.38128L8.61872 0.381282C8.44786 0.210427 8.22393 0.125 8 0.125C7.77607 0.125 7.55213 0.210427 7.38128 0.381282L1.38128 6.38128Z" fill="#474E5A"/>
</svg>
