<svg width="16" height="16" viewBox="0 0 16 16" fill="none" xmlns="http://www.w3.org/2000/svg">
<path d="M8.53033 3.46967C8.23744 3.17678 7.76256 3.17678 7.46967 3.46967C7.17678 3.76256 7.17678 4.23744 7.46967 4.53033L10.1893 7.25H4C3.58579 7.25 3.25 7.58579 3.25 8C3.25 8.41421 3.58579 8.75 4 8.75H10.1893L7.46967 11.4697C7.17678 11.7626 7.17678 12.2374 7.46967 12.5303C7.76256 12.8232 8.23744 12.8232 8.53033 12.5303L12.5303 8.53033C12.671 8.38968 12.75 8.19891 12.75 8C12.75 7.80109 12.671 7.61032 12.5303 7.46967L8.53033 3.46967Z" fill="#474E5A"/>
<path fill-rule="evenodd" clip-rule="evenodd" d="M16 7.99999C16 12.4187 12.4187 16 8 16C3.58127 16 0 12.4187 0 7.99999C0 3.58126 3.58127 0 8 0C12.4297 0 16 3.58126 16 7.99999ZM14.5 7.99999C14.5 11.5903 11.5903 14.5 8 14.5C4.4097 14.5 1.5 11.5903 1.5 7.99999C1.5 4.40969 4.4097 1.5 8 1.5C11.6 1.5 14.5 4.40834 14.5 7.99999Z" fill="#474E5A"/>
</svg>
