<svg width="16" height="16" viewBox="0 0 16 16" fill="none" xmlns="http://www.w3.org/2000/svg">
<path fill-rule="evenodd" clip-rule="evenodd" d="M12.5 2H3.5C2.67157 2 2 2.67157 2 3.5V12.5C2 13.3284 2.67157 14 3.5 14H12.5C13.3284 14 14 13.3284 14 12.5V3.5C14 2.67157 13.3284 2 12.5 2ZM3.5 0.5C1.84315 0.5 0.5 1.84315 0.5 3.5V12.5C0.5 14.1569 1.84315 15.5 3.5 15.5H12.5C14.1569 15.5 15.5 14.1569 15.5 12.5V3.5C15.5 1.84315 14.1569 0.5 12.5 0.5H3.5Z" fill="#474E5A"/>
<path d="M11.7597 3.5L8.34992 3.50024C7.93571 3.50027 7.59995 3.83608 7.59998 4.2503C7.60001 4.66451 7.93582 5.00027 8.35003 5.00024L9.93921 5.00013L5 9.93934V8.34033C5 7.92612 4.66421 7.59033 4.25 7.59033C3.83579 7.59033 3.5 7.92612 3.5 8.34033V11.7503C3.5 11.9493 3.57902 12.14 3.71968 12.2807C3.86033 12.4213 4.0511 12.5003 4.25002 12.5003L7.66002 12.5002C8.07424 12.5002 8.41001 12.1644 8.41 11.7502C8.40999 11.336 8.0742 11.0002 7.65998 11.0002L6.06037 11.0003L11.0098 6.05089V7.66C11.0098 8.07422 11.3456 8.41 11.7598 8.41C12.174 8.41 12.5098 8.07422 12.5098 7.66V4.25C12.5098 4.05108 12.4307 3.8603 12.2901 3.71965C12.1494 3.579 11.9586 3.49999 11.7597 3.5Z" fill="#474E5A"/>
</svg>
