<svg width="16" height="16" viewBox="0 0 16 16" fill="none" xmlns="http://www.w3.org/2000/svg">
<path d="M1.38128 9.61872C1.03957 9.27701 1.03957 8.72299 1.38128 8.38128C1.72299 8.03957 2.27701 8.03957 2.61872 8.38128L7.125 12.8876L7.125 1C7.125 0.516751 7.51675 0.125 8 0.125C8.48325 0.125 8.875 0.516751 8.875 1L8.875 12.8876L13.3813 8.38128C13.723 8.03957 14.277 8.03957 14.6187 8.38128C14.9604 8.72299 14.9604 9.27701 14.6187 9.61872L8.61872 15.6187C8.44786 15.7896 8.22393 15.875 8 15.875C7.77607 15.875 7.55214 15.7896 7.38128 15.6187L1.38128 9.61872Z" fill="#474E5A"/>
</svg>
