<svg width="16" height="16" viewBox="0 0 16 16" fill="none" xmlns="http://www.w3.org/2000/svg">
<path d="M15 3.125H11C10.5168 3.125 10.125 3.51675 10.125 4C10.125 4.48325 10.5168 4.875 11 4.875L12.8876 4.875L9 8.76256L6.61872 6.38128C6.27701 6.03957 5.72299 6.03957 5.38128 6.38128L0.381282 11.3813C0.0395728 11.723 0.0395728 12.277 0.381282 12.6187C0.72299 12.9604 1.27701 12.9604 1.61872 12.6187L6 8.23744L8.38128 10.6187C8.72299 10.9604 9.27701 10.9604 9.61872 10.6187L14.125 6.11244V8C14.125 8.48325 14.5168 8.875 15 8.875C15.4832 8.875 15.875 8.48325 15.875 8V4C15.875 3.76794 15.7828 3.54538 15.6187 3.38128C15.4546 3.21719 15.2321 3.125 15 3.125Z" fill="#474E5A"/>
</svg>
