<svg width="16" height="16" viewBox="0 0 16 16" fill="none" xmlns="http://www.w3.org/2000/svg">
<path fill-rule="evenodd" clip-rule="evenodd" d="M12.5 2H3.5C2.67157 2 2 2.67157 2 3.5V12.5C2 13.3284 2.67157 14 3.5 14H12.5C13.3284 14 14 13.3284 14 12.5V3.5C14 2.67157 13.3284 2 12.5 2ZM3.5 0.5C1.84315 0.5 0.5 1.84315 0.5 3.5V12.5C0.5 14.1569 1.84315 15.5 3.5 15.5H12.5C14.1569 15.5 15.5 14.1569 15.5 12.5V3.5C15.5 1.84315 14.1569 0.5 12.5 0.5H3.5Z" fill="#474E5A"/>
<path d="M4 8C3.58579 8 3.25 8.33579 3.25 8.75C3.25 9.16421 3.58579 9.5 4 9.5H5.43934L2.96967 11.9697C2.67678 12.2626 2.67678 12.7374 2.96967 13.0303C3.26256 13.3232 3.73744 13.3232 4.03033 13.0303L6.5 10.5607V12C6.5 12.4142 6.83579 12.75 7.25 12.75C7.66421 12.75 8 12.4142 8 12V8.75C8 8.33579 7.66421 8 7.25 8H4Z" fill="#474E5A"/>
<path d="M8.75 8L12 8C12.4142 8 12.75 7.66421 12.75 7.25C12.75 6.83579 12.4142 6.5 12 6.5H10.5607L13.0303 4.03033C13.3232 3.73744 13.3232 3.26256 13.0303 2.96967C12.7374 2.67678 12.2626 2.67678 11.9697 2.96967L9.5 5.43934V4C9.5 3.58579 9.16421 3.25 8.75 3.25C8.33579 3.25 8 3.58579 8 4L8 7.25C8 7.44891 8.07902 7.63968 8.21967 7.78033C8.36032 7.92098 8.55109 8 8.75 8Z" fill="#474E5A"/>
</svg>
