<svg width="16" height="16" viewBox="0 0 16 16" fill="none" xmlns="http://www.w3.org/2000/svg">
<path fill-rule="evenodd" clip-rule="evenodd" d="M2.34975 9.91465C2.67304 9.55546 3.22629 9.52634 3.58548 9.84962L8.00003 13.8228L12.4149 9.84961C12.7741 9.52634 13.3273 9.55547 13.6506 9.91467C13.9739 10.2739 13.9448 10.8271 13.5856 11.1504L8.58534 15.6504C8.41896 15.8001 8.2095 15.875 8.00003 15.875C7.79054 15.875 7.58105 15.8001 7.41466 15.6504L2.41478 11.1504C2.05559 10.8271 2.02647 10.2738 2.34975 9.91465Z" fill="#474E5A"/>
<path fill-rule="evenodd" clip-rule="evenodd" d="M7.41466 0.349625C7.58105 0.199871 7.79054 0.124995 8.00003 0.125C8.2095 0.125005 8.41896 0.199873 8.58534 0.349605L13.5856 4.84961C13.9448 5.17287 13.9739 5.72613 13.6506 6.08533C13.3273 6.44453 12.7741 6.47366 12.4149 6.15039L8.00003 2.17719L3.58548 6.15038C3.22629 6.47366 2.67304 6.44454 2.34975 6.08535C2.02647 5.72616 2.05559 5.17291 2.41478 4.84962L7.41466 0.349625Z" fill="#474E5A"/>
</svg>
