<svg width="16" height="16" viewBox="0 0 16 16" fill="none" xmlns="http://www.w3.org/2000/svg">
<path fill-rule="evenodd" clip-rule="evenodd" d="M14.6009 5.33716C14.967 5.53096 15.1066 5.98484 14.9128 6.35092L13.2457 9.5H14.5859C15.3384 9.5 15.8213 10.2998 15.4708 10.9657L13.1637 15.3493C12.9708 15.7159 12.5172 15.8566 12.1507 15.6637C11.7841 15.4708 11.6434 15.0172 11.8363 14.6507L13.7577 11H12.4152C11.6617 11 11.1788 10.1981 11.5314 9.53211L13.5872 5.64908C13.781 5.28301 14.2348 5.14335 14.6009 5.33716Z" fill="#474E5A"/>
<path d="M7.67394 0.0745863C7.87521 -0.0225775 8.10932 -0.0249184 8.31249 0.0682014L14.3125 2.8182C14.689 2.99079 14.8544 3.43594 14.6818 3.81249C14.5092 4.18904 14.0641 4.35438 13.6875 4.1818L8.00829 1.57882L1.5 4.72075V5.5H9.5C9.54258 5.5 9.58433 5.50355 9.62498 5.51037C9.66562 5.50355 9.70738 5.5 9.74996 5.5C10.1642 5.5 10.5 5.83579 10.5 6.25V12.25C10.5 12.6642 10.1642 13 9.74996 13C9.33574 13 8.99996 12.6642 8.99996 12.25V7H7V12.25C7 12.6642 6.66421 13 6.25 13C5.83579 13 5.5 12.6642 5.5 12.25V7H4V12.25C4 12.5341 3.8395 12.7938 3.58541 12.9208L1.5 13.9635V14.5H9.75C10.1642 14.5 10.5 14.8358 10.5 15.25C10.5 15.6642 10.1642 16 9.75 16H1C0.447715 16 0 15.5523 0 15V13.6545C0 13.2757 0.214003 12.9295 0.552787 12.7601L2.5 11.7865V7H1C0.447715 7 0 6.55228 0 6V4.40692C0 4.02314 0.219636 3.67321 0.565251 3.50637L7.67394 0.0745863Z" fill="#474E5A"/>
</svg>
