<svg width="16" height="16" viewBox="0 0 16 16" fill="none" xmlns="http://www.w3.org/2000/svg">
<path fill-rule="evenodd" clip-rule="evenodd" d="M2.54223 14.2254L2.5 14.1972V2C2.5 1.72386 2.72386 1.5 3 1.5H13C13.2761 1.5 13.5 1.72386 13.5 2V14.1972L13.4578 14.2254L12.0071 13.355C11.4207 13.0032 10.6953 12.9753 10.0837 13.2811L8 14.3229L5.91632 13.2811C5.30471 12.9753 4.57925 13.0032 3.9929 13.355L2.54223 14.2254ZM1 2V14.4648C1 14.7992 1.1671 15.1114 1.4453 15.2969L2.23673 15.8245C2.3975 15.9317 2.60564 15.9366 2.77132 15.8372L4.76464 14.6412C4.91123 14.5533 5.09259 14.5463 5.2455 14.6227L7.77639 15.8882C7.91716 15.9586 8.08284 15.9586 8.22361 15.8882L10.7545 14.6227C10.9074 14.5463 11.0888 14.5533 11.2354 14.6412L13.2287 15.8372C13.3944 15.9366 13.6025 15.9317 13.7633 15.8245L14.5547 15.2969C14.8329 15.1114 15 14.7992 15 14.4648V2C15 0.89543 14.1046 0 13 0H3C1.89543 0 1 0.895431 1 2Z" fill="#474E5A"/>
<path fill-rule="evenodd" clip-rule="evenodd" d="M12.386 8.6025C12.6055 8.95375 12.4988 9.41647 12.1475 9.636L11.0342 10.3318C10.2704 10.8092 9.32131 10.8823 8.49344 10.5275L6.91568 9.85127C6.53938 9.68999 6.10795 9.72322 5.76078 9.9402L4.6475 10.636C4.29625 10.8555 3.83353 10.7488 3.614 10.3975C3.39447 10.0462 3.50125 9.58353 3.8525 9.364L4.96578 8.6682C5.72956 8.19084 6.67869 8.11775 7.50656 8.47255L9.08432 9.14873C9.46062 9.31001 9.89205 9.27678 10.2392 9.0598L11.3525 8.364C11.7038 8.14447 12.1665 8.25125 12.386 8.6025Z" fill="#474E5A"/>
<path fill-rule="evenodd" clip-rule="evenodd" d="M12.386 4.6025C12.6055 4.95375 12.4988 5.41647 12.1475 5.636L11.0342 6.3318C10.2704 6.80916 9.32131 6.88225 8.49344 6.52745L6.91568 5.85127C6.53938 5.68999 6.10795 5.72322 5.76078 5.9402L4.6475 6.636C4.29625 6.85553 3.83353 6.74875 3.614 6.3975C3.39447 6.04625 3.50125 5.58353 3.8525 5.364L4.96578 4.6682C5.72956 4.19084 6.67869 4.11775 7.50656 4.47255L9.08432 5.14873C9.46062 5.31001 9.89205 5.27678 10.2392 5.0598L11.3525 4.364C11.7038 4.14447 12.1665 4.25125 12.386 4.6025Z" fill="#474E5A"/>
</svg>
