<svg width="16" height="16" viewBox="0 0 16 16" fill="none" xmlns="http://www.w3.org/2000/svg">
<path fill-rule="evenodd" clip-rule="evenodd" d="M14.9982 8.19089C15.6097 7.64898 16.0007 6.87952 16.0007 6V5.90012C16.0007 5.58415 15.9692 5.26896 15.9066 4.95925L15.2762 1.83964L15.2734 1.82792C15.1498 1.3036 14.9242 0.814761 14.4994 0.46826C14.0707 0.118638 13.5452 2.32458e-05 13.0005 2.20537e-05L3.00049 0C2.45584 0 1.93031 0.118541 1.50155 0.46812C1.07659 0.814602 0.850911 1.30347 0.727274 1.8279L0.724509 1.83963L0.0941089 4.95927C0.0315258 5.26897 0 5.58414 0 5.90011V6C0 6.87964 0.391119 7.64918 1.00277 8.19109C1.00126 8.21053 1.00049 8.23017 1.00049 8.25V13.75C1.00049 14.9926 2.00785 16 3.25049 16H12.7505C13.9931 16 15.0005 14.9926 15.0005 13.75V8.25C15.0005 8.2301 14.9997 8.21039 14.9982 8.19089ZM1.56439 5.25637L2.18986 2.16112C2.27057 1.82536 2.37485 1.69148 2.44941 1.63068C2.52099 1.57233 2.66472 1.5 3.00049 1.5L5.13963 1.5L4.91964 5.83281V5.85184C4.91964 6.75985 4.1667 7.5185 3.20982 7.5185C2.20782 7.5185 1.5 6.78036 1.5 6V5.90011C1.5 5.68392 1.52157 5.46828 1.56439 5.25637ZM6.41973 5.86925L6.64156 1.50001L9.35915 1.50001L9.58099 5.86926C9.57209 6.81148 8.84132 7.51853 8.00031 7.51853C7.15935 7.51853 6.42863 6.81151 6.41973 5.86925ZM11.0811 5.83283L10.8611 1.50002L13.0005 1.50002C13.3361 1.50002 13.4798 1.57235 13.5513 1.6307C13.6259 1.6915 13.7301 1.8254 13.8108 2.16111L14.4363 5.25637C14.4791 5.46827 14.5007 5.68393 14.5007 5.90012V6C14.5007 6.78037 13.7929 7.51853 12.7909 7.51853C11.834 7.51853 11.0811 6.75987 11.0811 5.85186V5.83283ZM12.7909 9.01853C11.8167 9.01853 10.9376 8.58803 10.3468 7.90493C9.78492 8.58417 8.94735 9.01853 8.00031 9.01853C7.05327 9.01853 6.21574 8.58417 5.65393 7.90494C5.0631 8.58802 4.18402 9.0185 3.20982 9.0185C2.9678 9.0185 2.73016 8.99264 2.50049 8.94337V11.5H13.5005V8.94334C13.2707 8.99264 13.033 9.01853 12.7909 9.01853ZM2.50049 13.75V13H13.5005V13.75C13.5005 14.1642 13.1647 14.5 12.7505 14.5H3.25049C2.83627 14.5 2.50049 14.1642 2.50049 13.75Z" fill="#474E5A"/>
</svg>
