<svg width="16" height="16" viewBox="0 0 16 16" fill="none" xmlns="http://www.w3.org/2000/svg">
<path d="M10.75 10.75C11.299 10.75 11.75 10.299 11.75 9.75C11.75 9.20098 11.299 8.75 10.75 8.75C10.201 8.75 9.75 9.20098 9.75 9.75C9.75 10.3088 10.1912 10.75 10.75 10.75Z" fill="#474E5A"/>
<path d="M5.25 10.75C5.79902 10.75 6.25 10.299 6.25 9.75C6.25 9.20098 5.79902 8.75 5.25 8.75C4.70098 8.75 4.25 9.20098 4.25 9.75C4.2598 10.3088 4.70098 10.75 5.25 10.75Z" fill="#474E5A"/>
<path d="M8 10.75C8.54902 10.75 9 10.299 9 9.75C9 9.20098 8.54902 8.75 8 8.75C7.45098 8.75 7 9.20098 7 9.75C7.0098 10.3088 7.45098 10.75 8 10.75Z" fill="#474E5A"/>
<path d="M10.75 8C11.299 8 11.75 7.54902 11.75 7C11.75 6.45098 11.299 6 10.75 6C10.201 6 9.75 6.45098 9.75 7C9.75 7.55882 10.1912 8 10.75 8Z" fill="#474E5A"/>
<path d="M5.25 8C5.79902 8 6.25 7.54902 6.25 7C6.25 6.45098 5.79902 6 5.25 6C4.70098 6 4.25 6.45098 4.25 7C4.2598 7.55882 4.70098 8 5.25 8Z" fill="#474E5A"/>
<path d="M8 8C8.54902 8 9 7.54902 9 7C9 6.45098 8.54902 6 8 6C7.45098 6 7 6.45098 7 7C7.0098 7.55882 7.45098 8 8 8Z" fill="#474E5A"/>
<path d="M10.75 13.5C11.299 13.5 11.75 13.049 11.75 12.5C11.75 11.951 11.299 11.5 10.75 11.5C10.201 11.5 9.75 11.951 9.75 12.5C9.75 13.0588 10.1912 13.5 10.75 13.5Z" fill="#474E5A"/>
<path d="M5.25 13.5C5.79902 13.5 6.25 13.049 6.25 12.5C6.25 11.951 5.79902 11.5 5.25 11.5C4.70098 11.5 4.25 11.951 4.25 12.5C4.2598 13.0588 4.70098 13.5 5.25 13.5Z" fill="#474E5A"/>
<path d="M8 13.5C8.54902 13.5 9 13.049 9 12.5C9 11.951 8.54902 11.5 8 11.5C7.45098 11.5 7 11.951 7 12.5C7.0098 13.0588 7.45098 13.5 8 13.5Z" fill="#474E5A"/>
<path fill-rule="evenodd" clip-rule="evenodd" d="M2 14V2C2 0.895431 2.89543 0 4 0H12C13.1046 0 14 0.895431 14 2V14C14 15.1046 13.1046 16 12 16H4C2.89543 16 2 15.1046 2 14ZM3.5 3V2C3.5 1.72386 3.72386 1.5 4 1.5H12C12.2761 1.5 12.5 1.72386 12.5 2V3H3.5ZM3.5 4.5V14C3.5 14.2761 3.72386 14.5 4 14.5H12C12.2761 14.5 12.5 14.2761 12.5 14V4.5H3.5Z" fill="#474E5A"/>
</svg>
