<svg width="16" height="16" viewBox="0 0 16 16" fill="none" xmlns="http://www.w3.org/2000/svg">
<path d="M10.0162 2.00755C9.61209 1.91663 9.21078 2.17051 9.11985 2.57462C9.02893 2.97873 9.28282 3.38004 9.68693 3.47097C10.3296 3.61557 10.9396 3.94167 11.4539 4.44274C11.4651 4.45564 11.4769 4.46824 11.4892 4.48053C12.0112 5.00249 12.3497 5.62653 12.4978 6.28483C12.5888 6.68894 12.9901 6.94283 13.3942 6.8519C13.7983 6.76098 14.0522 6.35967 13.9613 5.95556C13.7537 5.03293 13.2873 4.17342 12.5932 3.4637C12.5802 3.44836 12.5664 3.43341 12.5519 3.41892C11.8338 2.70088 10.9579 2.21943 10.0162 2.00755Z" fill="#474E5A"/>
<path d="M8.30364 5.22825C8.4041 4.82641 8.81131 4.58209 9.21315 4.68255C9.68559 4.80066 10.1406 5.03726 10.5196 5.4081C10.5272 5.41509 10.5347 5.42227 10.542 5.42963C10.9254 5.81298 11.1689 6.27646 11.2893 6.75806C11.3898 7.1599 11.1455 7.5671 10.7436 7.66756C10.3418 7.76802 9.93456 7.5237 9.8341 7.12186C9.77618 6.89017 9.66456 6.67916 9.49618 6.50532C9.49104 6.50046 9.48596 6.49552 9.48093 6.49049C9.30427 6.31383 9.08775 6.19736 8.84935 6.13776C8.4475 6.0373 8.20318 5.6301 8.30364 5.22825Z" fill="#474E5A"/>
<path fill-rule="evenodd" clip-rule="evenodd" d="M2.44805 1.06114C2.82563 0.682722 3.32005 0.499658 3.80522 0.5C4.44104 0.500455 5.08647 0.81809 5.4479 1.44263L6.81554 3.7438C7.21928 4.415 7.12959 5.29434 6.55274 5.87248L6.06374 6.36257L6.05493 6.37085C5.89999 6.51643 5.8743 6.78965 6.07047 6.98808L9.01136 9.88526L9.02182 9.89644C9.16663 10.0512 9.43755 10.0767 9.63479 9.87905L10.1153 9.39752C10.7044 8.80706 11.5604 8.74101 12.25 9.13597L12.2618 9.14271L14.5598 10.5146C15.1982 10.8858 15.4999 11.5465 15.4997 12.1759L15.4997 12.1854C15.4935 12.6616 15.3113 13.1453 14.9405 13.5168C13.7715 14.6885 12.2923 15.5 10.4998 15.5C8.99549 15.5 7.49575 14.9141 6.35169 13.7674L2.22783 9.63438C1.09141 8.49542 0.499855 7.00264 0.5 5.5001M2.44805 1.06114C1.27553 2.23622 0.499831 3.72947 0.5 5.5001L2.44805 1.06114ZM3.80415 2C3.69477 1.99992 3.58998 2.04036 3.50988 2.12063C2.55704 3.07554 1.99983 4.20516 2 5.4999C1.99986 6.60763 2.43554 7.71887 3.28967 8.5749L7.41354 12.708C8.27056 13.5669 9.38585 14 10.4998 14C11.797 14 12.9144 13.4239 13.8787 12.4572C13.9562 12.3796 13.9972 12.278 13.9997 12.1706C13.9982 12.0075 13.9232 11.8791 13.8046 11.8107L13.795 11.8052L11.4999 10.435C11.3513 10.3518 11.2479 10.3861 11.1771 10.457L10.6966 10.9386C9.9369 11.6999 8.69533 11.7291 7.93815 10.9336L5.01042 8.0494C4.25077 7.28806 4.22253 6.04473 5.01796 5.28699L5.4909 4.813C5.57392 4.72979 5.58485 4.60752 5.52995 4.51663L5.52721 4.5121L4.15029 2.19526C4.07854 2.07037 3.95027 2.00011 3.80415 2Z" fill="#474E5A"/>
</svg>
