<svg width="16" height="16" viewBox="0 0 16 16" fill="none" xmlns="http://www.w3.org/2000/svg">
<path fill-rule="evenodd" clip-rule="evenodd" d="M7.99829 6.00049C6.89251 6.00049 5.99829 6.8947 5.99829 8.00049C5.99829 9.10627 6.89251 10.0005 7.99829 10.0005C9.10408 10.0005 9.99829 9.10627 9.99829 8.00049C9.99829 6.8947 9.10408 6.00049 7.99829 6.00049ZM4.49829 8.00049C4.49829 6.06627 6.06408 4.50049 7.99829 4.50049C9.93251 4.50049 11.4983 6.06627 11.4983 8.00049C11.4983 9.9347 9.93251 11.5005 7.99829 11.5005C6.06408 11.5005 4.49829 9.9347 4.49829 8.00049Z" fill="#474E5A"/>
<path d="M13 6.5C13.5467 6.5 14 6.04667 14 5.5C14 4.95333 13.5467 4.5 13 4.5C12.4533 4.5 12 4.95333 12 5.5C12 6.04667 12.4533 6.5 13 6.5Z" fill="#474E5A"/>
<path fill-rule="evenodd" clip-rule="evenodd" d="M13 3H3C2.17157 3 1.5 3.67157 1.5 4.5V11.5C1.5 12.3284 2.17157 13 3 13H13C13.8284 13 14.5 12.3284 14.5 11.5V4.5C14.5 3.67157 13.8284 3 13 3ZM3 1.5C1.34315 1.5 0 2.84315 0 4.5V11.5C0 13.1569 1.34315 14.5 3 14.5H13C14.6569 14.5 16 13.1569 16 11.5V4.5C16 2.84315 14.6569 1.5 13 1.5H3Z" fill="#474E5A"/>
</svg>
