<svg width="16" height="16" viewBox="0 0 16 16" fill="none" xmlns="http://www.w3.org/2000/svg">
<path d="M5.53033 4.46967C5.23744 4.17678 4.76256 4.17678 4.46967 4.46967C4.17678 4.76256 4.17678 5.23744 4.46967 5.53033L6.93934 8L4.46967 10.4697C4.17678 10.7626 4.17678 11.2374 4.46967 11.5303C4.76256 11.8232 5.23744 11.8232 5.53033 11.5303L8 9.06066L10.4697 11.5303C10.7626 11.8232 11.2374 11.8232 11.5303 11.5303C11.8232 11.2374 11.8232 10.7626 11.5303 10.4697L9.06066 8L11.5303 5.53033C11.8232 5.23744 11.8232 4.76256 11.5303 4.46967C11.2374 4.17678 10.7626 4.17678 10.4697 4.46967L8 6.93934L5.53033 4.46967Z" fill="#474E5A"/>
<path fill-rule="evenodd" clip-rule="evenodd" d="M16 7.99999C16 12.4187 12.4187 16 8 16C3.58127 16 0 12.4187 0 7.99999C0 3.58126 3.58127 0 8 0C12.4297 0 16 3.58126 16 7.99999ZM14.5 7.99999C14.5 11.5903 11.5903 14.5 8 14.5C4.4097 14.5 1.5 11.5903 1.5 7.99999C1.5 4.40969 4.4097 1.5 8 1.5C11.6 1.5 14.5 4.40834 14.5 7.99999Z" fill="#474E5A"/>
</svg>
