<svg width="16" height="16" viewBox="0 0 16 16" fill="none" xmlns="http://www.w3.org/2000/svg">
<path d="M6.5 16C7.325 16 8 15.325 8 14.5C8 13.675 7.325 13 6.5 13C5.675 13 5 13.675 5 14.5C5 15.3375 5.6625 16 6.5 16Z" fill="#474E5A"/>
<path d="M12.5 16C13.325 16 14 15.325 14 14.5C14 13.675 13.325 13 12.5 13C11.675 13 11 13.675 11 14.5C11 15.3375 11.6625 16 12.5 16Z" fill="#474E5A"/>
<path fill-rule="evenodd" clip-rule="evenodd" d="M0 1.25C0 0.835786 0.335786 0.5 0.75 0.5H3.14551C4.00663 0.5 4.73979 1.12647 4.87409 1.97706L5.11455 3.5H14.5728C15.361 3.5 16 4.139 16 4.92724C16 5.02917 15.9891 5.13082 15.9674 5.23042L14.9897 9.72797C14.7649 10.7623 13.8495 11.5 12.7911 11.5H6.78174C5.67458 11.5 4.73195 10.6945 4.55927 9.60092L3.39245 2.21101C3.37326 2.0895 3.26853 2 3.14551 2H0.75C0.335786 2 0 1.66421 0 1.25ZM5.3514 5L6.04092 9.36697C6.09848 9.73151 6.41269 10 6.78174 10H12.7911C13.1439 10 13.449 9.75409 13.5239 9.40932L14.4825 5H5.3514Z" fill="#474E5A"/>
</svg>
