<svg width="16" height="16" viewBox="0 0 16 16" fill="none" xmlns="http://www.w3.org/2000/svg">
<path fill-rule="evenodd" clip-rule="evenodd" d="M9.01975 0.420221C8.45888 -0.140074 7.54112 -0.140074 6.98025 0.420221L6.13784 1.27188H4.95361C4.15868 1.27188 3.51289 1.9159 3.51289 2.71189V3.90443L2.67419 4.73215L2.67097 4.73536C2.10968 5.29608 2.10968 6.21422 2.67097 6.77494L3.51289 7.61598V8.7984C3.51289 9.5944 4.15868 10.2384 4.95361 10.2384H6.14833L6.99056 11.0798C7.55143 11.6401 8.46919 11.6401 9.03006 11.0798L9.87229 10.2384H11.067C11.8619 10.2384 12.5077 9.5944 12.5077 8.7984V7.59539L13.329 6.77494C13.8903 6.21422 13.8903 5.29608 13.329 4.73536L12.4871 3.89431V2.7016C12.4871 1.9056 11.8413 1.26159 11.0464 1.26159H9.86198L9.01975 0.420221ZM7.18471 2.34652L8.00025 1.522L8.8153 2.33622C9.08927 2.6099 9.4549 2.76159 9.84021 2.76159H10.9871V3.91684C10.9871 4.30246 11.1393 4.66807 11.4132 4.94178L12.2275 5.75515L11.4026 6.57912L11.3925 6.59013C11.1527 6.84958 10.9925 7.20861 11.0077 7.61035V8.73841H9.85051C9.46521 8.73841 9.09958 8.8901 8.82561 9.16378L8.01031 9.97825L7.195 9.16378C6.92104 8.8901 6.55541 8.73841 6.1701 8.73841H5.01289V7.59346C5.01289 7.22399 4.86486 6.84633 4.58676 6.56852L3.77281 5.75541L4.59503 4.94393L4.60603 4.93209C4.85005 4.66958 5.01289 4.3281 5.01289 3.92714V2.77188H6.15979C6.5451 2.77188 6.91074 2.62021 7.18471 2.34652Z" fill="#474E5A"/>
<path d="M5.25 12.25C5.25 11.8358 4.91421 11.5 4.5 11.5C4.08579 11.5 3.75 11.8358 3.75 12.25V15.25C3.75 15.4962 3.87084 15.7267 4.07332 15.8668C4.2758 16.0069 4.53413 16.0386 4.76451 15.9518L7.99545 14.7341L11.2361 15.9521C11.4665 16.0386 11.7247 16.0067 11.927 15.8666C12.1293 15.7265 12.25 15.4961 12.25 15.25V12.25C12.25 11.8358 11.9142 11.5 11.5 11.5C11.0858 11.5 10.75 11.8358 10.75 12.25V14.1669L8.25894 13.2306C8.08862 13.1666 7.90083 13.1667 7.73056 13.2309L5.25 14.1658V12.25Z" fill="#474E5A"/>
</svg>
