<svg width="16" height="16" viewBox="0 0 16 16" fill="none" xmlns="http://www.w3.org/2000/svg">
<path d="M8.00001 1C7.58579 1 7.25001 1.33579 7.25001 1.75C7.25001 2.16421 7.58579 2.5 8.00001 2.5C9.75706 2.5 11.4741 3.38315 12.5468 4.96982C13.3643 6.18152 13.5442 7.83406 13.1549 9.45211C12.8683 10.6438 12.2865 11.7559 11.5 12.5933V10.25C11.5 9.83579 11.1642 9.5 10.75 9.5C10.3358 9.5 10 9.83579 10 10.25V14.25C10 14.6642 10.3358 15 10.75 15H14.5C14.9142 15 15.25 14.6642 15.25 14.25C15.25 13.8358 14.9142 13.5 14.5 13.5H12.7042C13.6332 12.4661 14.2877 11.1566 14.6133 9.80293C15.0732 7.89111 14.9023 5.77879 13.79 4.13051C12.4426 2.13734 10.2629 1 8.00001 1Z" fill="#474E5A"/>
<path d="M4 5.75C4 6.16421 4.33579 6.5 4.75 6.5C5.16421 6.5 5.5 6.16421 5.5 5.75V1.75C5.5 1.33579 5.16421 1 4.75 1H1C0.585786 1 0.25 1.33579 0.25 1.75C0.25 2.16421 0.585786 2.5 1 2.5H2.7958C1.86681 3.53389 1.2123 4.84336 0.886661 6.19707C0.426772 8.10889 0.597735 10.2212 1.71003 11.8695C3.05737 13.8627 5.23713 15 7.49999 15C7.91421 15 8.24999 14.6642 8.24999 14.25C8.24999 13.8358 7.91421 13.5 7.49999 13.5C5.74294 13.5 4.02591 12.6169 2.95324 11.0302C2.13568 9.81848 1.95584 8.16594 2.34506 6.54789C2.63173 5.35617 3.21347 4.24408 4 3.40666V5.75Z" fill="#474E5A"/>
</svg>
