<svg width="16" height="16" viewBox="0 0 16 16" fill="none" xmlns="http://www.w3.org/2000/svg">
<path fill-rule="evenodd" clip-rule="evenodd" d="M9.78033 12.2803C10.0732 11.9874 10.0732 11.5126 9.78033 11.2197L6.56066 8L9.78033 4.78033C10.0732 4.48744 10.0732 4.01256 9.78033 3.71967C9.48744 3.42678 9.01256 3.42678 8.71967 3.71967L4.96967 7.46967C4.67678 7.76256 4.67678 8.23744 4.96967 8.53033L8.71967 12.2803C9.01256 12.5732 9.48744 12.5732 9.78033 12.2803Z" fill="#474E5A"/>
<path fill-rule="evenodd" clip-rule="evenodd" d="M1.5 8C1.5 4.4097 4.4097 1.5 8.00001 1.5C11.5917 1.5 14.5 4.40002 14.5 8C14.5 11.5903 11.5903 14.5 8.00001 14.5C4.4097 14.5 1.5 11.5903 1.5 8ZM0 8C-1.93149e-07 3.58127 3.58128 1.93149e-07 8.00001 0C12.4187 -1.93149e-07 16 3.57025 16 8C16 12.4187 12.4187 16 8.00001 16C3.58128 16 1.93149e-07 12.4187 0 8Z" fill="#474E5A"/>
</svg>
