<svg width="16" height="16" viewBox="0 0 16 16" fill="none" xmlns="http://www.w3.org/2000/svg">
<path fill-rule="evenodd" clip-rule="evenodd" d="M12.2803 9.78033C11.9874 10.0732 11.5126 10.0732 11.2197 9.78033L8 6.56066L4.78033 9.78033C4.48744 10.0732 4.01256 10.0732 3.71967 9.78033C3.42678 9.48744 3.42678 9.01256 3.71967 8.71967L7.46967 4.96967C7.76256 4.67678 8.23744 4.67678 8.53033 4.96967L12.2803 8.71967C12.5732 9.01256 12.5732 9.48744 12.2803 9.78033Z" fill="#474E5A"/>
<path fill-rule="evenodd" clip-rule="evenodd" d="M8 1.5C4.4097 1.5 1.5 4.4097 1.5 8.00001C1.5 11.5917 4.40002 14.5 8 14.5C11.5903 14.5 14.5 11.5903 14.5 8.00001C14.5 4.4097 11.5903 1.5 8 1.5ZM8 0C3.58127 0 0 3.58128 0 8.00001C0 12.4187 3.57025 16 8 16C12.4187 16 16 12.4187 16 8.00001C16 3.58128 12.4187 0 8 0Z" fill="#474E5A"/>
</svg>
