<svg width="16" height="16" viewBox="0 0 16 16" fill="none" xmlns="http://www.w3.org/2000/svg">
<path fill-rule="evenodd" clip-rule="evenodd" d="M3.71967 6.21967C4.01256 5.92678 4.48744 5.92678 4.78033 6.21967L8 9.43934L11.2197 6.21967C11.5126 5.92678 11.9874 5.92678 12.2803 6.21967C12.5732 6.51256 12.5732 6.98744 12.2803 7.28033L8.53033 11.0303C8.23744 11.3232 7.76256 11.3232 7.46967 11.0303L3.71967 7.28033C3.42678 6.98744 3.42678 6.51256 3.71967 6.21967Z" fill="#474E5A"/>
<path fill-rule="evenodd" clip-rule="evenodd" d="M8 14.5C11.5903 14.5 14.5 11.5903 14.5 7.99999C14.5 4.40834 11.6 1.5 8 1.5C4.4097 1.5 1.5 4.40969 1.5 7.99999C1.5 11.5903 4.4097 14.5 8 14.5ZM8 16C12.4187 16 16 12.4187 16 7.99999C16 3.58126 12.4297 0 8 0C3.58127 0 0 3.58126 0 7.99999C0 12.4187 3.58127 16 8 16Z" fill="#474E5A"/>
</svg>
