<svg width="16" height="16" viewBox="0 0 16 16" fill="none" xmlns="http://www.w3.org/2000/svg">
<path fill-rule="evenodd" clip-rule="evenodd" d="M6.21967 12.2803C5.92678 11.9874 5.92678 11.5126 6.21967 11.2197L9.43934 8L6.21967 4.78033C5.92678 4.48744 5.92678 4.01256 6.21967 3.71967C6.51256 3.42678 6.98744 3.42678 7.28033 3.71967L11.0303 7.46967C11.3232 7.76256 11.3232 8.23744 11.0303 8.53033L7.28033 12.2803C6.98744 12.5732 6.51256 12.5732 6.21967 12.2803Z" fill="#474E5A"/>
<path fill-rule="evenodd" clip-rule="evenodd" d="M14.5 8C14.5 4.4097 11.5903 1.5 7.99999 1.5C4.40834 1.5 1.5 4.40002 1.5 8C1.5 11.5903 4.40969 14.5 7.99999 14.5C11.5903 14.5 14.5 11.5903 14.5 8ZM16 8C16 3.58127 12.4187 1.93149e-07 7.99999 0C3.58126 -1.93149e-07 1.9363e-07 3.57025 0 8C-1.93149e-07 12.4187 3.58126 16 7.99999 16C12.4187 16 16 12.4187 16 8Z" fill="#474E5A"/>
</svg>
