<svg width="16" height="16" viewBox="0 0 16 16" fill="none" xmlns="http://www.w3.org/2000/svg">
<path fill-rule="evenodd" clip-rule="evenodd" d="M13.4419 10.0581C13.686 10.3021 13.686 10.6979 13.4419 10.9419L11.4419 12.9419C11.1979 13.186 10.8021 13.186 10.5581 12.9419L9.55806 11.9419C9.31398 11.6979 9.31398 11.3021 9.55806 11.0581C9.80214 10.814 10.1979 10.814 10.4419 11.0581L11 11.6161L12.5581 10.0581C12.8021 9.81398 13.1979 9.81398 13.4419 10.0581Z" fill="#474E5A"/>
<path fill-rule="evenodd" clip-rule="evenodd" d="M11.5 14.6C13.2123 14.6 14.6 13.2123 14.6 11.5C14.6 9.7864 13.2173 8.4 11.5 8.4C9.78766 8.4 8.4 9.78766 8.4 11.5C8.4 13.2123 9.78767 14.6 11.5 14.6ZM11.5 16C13.9855 16 16 13.9855 16 11.5C16 9.01446 13.9917 7 11.5 7C9.01447 7 7 9.01446 7 11.5C7 13.9855 9.01447 16 11.5 16Z" fill="#474E5A"/>
<path fill-rule="evenodd" clip-rule="evenodd" d="M9 4.5C9 5.05228 8.55228 5.5 8 5.5H4C3.44772 5.5 3 5.05228 3 4.5V3.5H2C1.72386 3.5 1.5 3.72386 1.5 4V13C1.5 13.2761 1.72386 13.5 2 13.5H6.25C6.66421 13.5 7 13.8358 7 14.25C7 14.6642 6.66421 15 6.25 15H2C0.895431 15 0 14.1046 0 13V4C0 2.89543 0.895431 2 2 2H3.17071C3.58254 0.834808 4.69378 0 6 0C7.30622 0 8.41746 0.834808 8.82929 2H10C11.1046 2 12 2.89543 12 4V5.75C12 6.16421 11.6642 6.5 11.25 6.5C10.8358 6.5 10.5 6.16422 10.5 5.75001V4C10.5 3.72386 10.2761 3.5 10 3.5H9V4.5ZM6 1.5C6.82843 1.5 7.5 2.17157 7.5 3V4H4.5V3C4.5 2.17157 5.17157 1.5 6 1.5Z" fill="#474E5A"/>
<path fill-rule="evenodd" clip-rule="evenodd" d="M3 10.75C3 10.3358 3.33579 10 3.75 10H5.25C5.66421 10 6 10.3358 6 10.75C6 11.1642 5.66421 11.5 5.25 11.5H3.75C3.33579 11.5 3 11.1642 3 10.75Z" fill="#474E5A"/>
<path fill-rule="evenodd" clip-rule="evenodd" d="M3 7.75C3 7.33579 3.33579 7 3.75 7H6.25C6.66421 7 7 7.33579 7 7.75C7 8.16421 6.66421 8.5 6.25 8.5H3.75C3.33579 8.5 3 8.16421 3 7.75Z" fill="#474E5A"/>
</svg>
