<svg width="16" height="16" viewBox="0 0 16 16" fill="none" xmlns="http://www.w3.org/2000/svg">
<path fill-rule="evenodd" clip-rule="evenodd" d="M4.75 11.25C4.75 10.8358 5.08579 10.5 5.5 10.5H10.5C10.9142 10.5 11.25 10.8358 11.25 11.25C11.25 11.6642 10.9142 12 10.5 12H5.5C5.08579 12 4.75 11.6642 4.75 11.25Z" fill="#474E5A"/>
<path fill-rule="evenodd" clip-rule="evenodd" d="M4.75 8.25C4.75 7.83579 5.08579 7.5 5.5 7.5H10.5C10.9142 7.5 11.25 7.83579 11.25 8.25C11.25 8.66421 10.9142 9 10.5 9H5.5C5.08579 9 4.75 8.66421 4.75 8.25Z" fill="#474E5A"/>
<path fill-rule="evenodd" clip-rule="evenodd" d="M10.8293 2H12C13.1046 2 14 2.89543 14 4V14C14 15.1046 13.1046 16 12 16H4C2.89543 16 2 15.1046 2 14V4C2 2.89543 2.89543 2 4 2H5.17071C5.58254 0.834808 6.69378 0 8 0C9.30622 0 10.4175 0.834808 10.8293 2ZM8 1.5C8.82843 1.5 9.5 2.17157 9.5 3V4H6.5V3C6.5 2.17157 7.17157 1.5 8 1.5ZM11 4.5C11 5.05228 10.5523 5.5 10 5.5H6C5.44772 5.5 5 5.05228 5 4.5V3.5H4C3.72386 3.5 3.5 3.72386 3.5 4V14C3.5 14.2761 3.72386 14.5 4 14.5H12C12.2761 14.5 12.5 14.2761 12.5 14V4C12.5 3.72386 12.2761 3.5 12 3.5H11V4.5Z" fill="#474E5A"/>
</svg>
