<svg width="16" height="16" viewBox="0 0 16 16" fill="none" xmlns="http://www.w3.org/2000/svg">
<path d="M8.75 3.75C8.75 3.34 8.41 3 8 3C7.59 3 7.25 3.34 7.25 3.75V9C7.25 9.26 7.39 9.51 7.61 9.64L10.11 11.14C10.47 11.36 10.93 11.24 11.14 10.89C11.36 10.5 11.24 10.07 10.89 9.86L8.75 8.57766V3.75Z" fill="#474E5A"/>
<path fill-rule="evenodd" clip-rule="evenodd" d="M16 7.99999C16 12.4187 12.4187 16 8 16C3.58127 16 0 12.4187 0 7.99999C0 3.58126 3.58127 0 8 0C12.4297 0 16 3.58126 16 7.99999ZM14.5 8C14.5 11.59 11.59 14.5 8 14.5C4.41 14.5 1.5 11.59 1.5 7.99999C1.5 4.41 4.41 1.5 8 1.5C11.6 1.5 14.5 4.41 14.5 8Z" fill="#474E5A"/>
</svg>
