<svg width="16" height="16" viewBox="0 0 16 16" fill="none" xmlns="http://www.w3.org/2000/svg">
<path fill-rule="evenodd" clip-rule="evenodd" d="M6.62964 3C4.83471 3 3.37964 4.45507 3.37964 6.25C3.37964 6.51277 3.4125 6.77545 3.43488 7.03693C2.33584 7.5 1.5 8.42069 1.5 9.75C1.5 11.3009 2.69375 12.5 4.09615 12.5H11.9038C13.3062 12.5 14.5 11.3009 14.5 9.75C14.5 8.19909 13.3062 7 11.9038 7H9.87964V6.25C9.87964 4.45507 8.42456 3 6.62964 3ZM1.88022 6.17489C1.92035 3.58618 4.03137 1.5 6.62964 1.5C8.99779 1.5 10.9612 3.23301 11.3208 5.5H11.9038C14.1975 5.5 16 7.43492 16 9.75C16 12.0651 14.1975 14 11.9038 14H4.09615C1.8025 14 0 12.0651 0 9.75C0 8.25934 0.741912 6.93551 1.88022 6.17489Z" fill="#474E5A"/>
</svg>
