<svg width="17" height="16" viewBox="0 0 17 16" fill="none" xmlns="http://www.w3.org/2000/svg">
<path fill-rule="evenodd" clip-rule="evenodd" d="M8.35156 11.75C8.35156 11.3358 8.68735 11 9.10156 11H12.3716C12.7858 11 13.1216 11.3358 13.1216 11.75C13.1216 12.1642 12.7858 12.5 12.3716 12.5H9.10156C8.68735 12.5 8.35156 12.1642 8.35156 11.75Z" fill="#474E5A"/>
<path fill-rule="evenodd" clip-rule="evenodd" d="M2.28906 8.74023C2.28906 8.32602 2.62485 7.99023 3.03906 7.99023H4.71909C5.1333 7.99023 5.46909 8.32602 5.46909 8.74023C5.46909 9.15445 5.1333 9.49023 4.71909 9.49023H3.03906C2.62485 9.49023 2.28906 9.15445 2.28906 8.74023Z" fill="#474E5A"/>
<path fill-rule="evenodd" clip-rule="evenodd" d="M1.75 1.5C0.783502 1.5 0 2.2835 0 3.25V10.75C0 11.7165 0.783502 12.5 1.75 12.5H5.5734C5.93801 13.6538 7.01688 14.4901 8.29138 14.4901H9.2814C9.69562 14.4901 10.0314 14.1543 10.0314 13.7401C10.0314 13.3258 9.69562 12.9901 9.2814 12.9901H8.29138C7.54561 12.9901 6.94141 12.3858 6.94141 11.64C6.94141 10.8942 7.54561 10.29 8.29138 10.29H9.2814C9.69562 10.29 10.0314 9.95425 10.0314 9.54004C10.0314 9.12583 9.69562 8.79004 9.2814 8.79004H8.29138C6.93723 8.79004 5.80393 9.73407 5.51353 11H1.75C1.61193 11 1.5 10.8881 1.5 10.75V6.00977H13V8.79004H12.1797C11.7655 8.79004 11.4297 9.12583 11.4297 9.54004C11.4297 9.95425 11.7655 10.29 12.1797 10.29H13.1697C13.9155 10.29 14.5197 10.8943 14.5197 11.64C14.5197 12.3858 13.9155 12.9901 13.1697 12.9901H12.1797C11.7655 12.9901 11.4297 13.3258 11.4297 13.7401C11.4297 14.1543 11.7655 14.4901 12.1797 14.4901H13.1697C14.7439 14.4901 16.0197 13.2143 16.0197 11.64C16.0197 10.5463 15.4039 9.59668 14.5 9.11884V3.25C14.5 2.2835 13.7165 1.5 12.75 1.5H1.75ZM13 4.50977V3.25C13 3.11193 12.8881 3 12.75 3H1.75C1.61193 3 1.5 3.11193 1.5 3.25V4.50977H13Z" fill="#474E5A"/>
</svg>
