<svg width="16" height="16" viewBox="0 0 16 16" fill="none" xmlns="http://www.w3.org/2000/svg">
<path d="M2.75 0C1.23122 0 0 1.23122 0 2.75V5.25C0 5.66421 0.335786 6 0.75 6C1.16421 6 1.5 5.66421 1.5 5.25V2.75C1.5 2.05964 2.05964 1.5 2.75 1.5H5.25C5.66421 1.5 6 1.16421 6 0.75C6 0.335786 5.66421 0 5.25 0H2.75Z" fill="#474E5A"/>
<path d="M1.5 10.75C1.5 10.3358 1.16421 10 0.75 10C0.335786 10 0 10.3358 0 10.75V13.25C0 14.7688 1.23122 16 2.75 16H5.25C5.66421 16 6 15.6642 6 15.25C6 14.8358 5.66421 14.5 5.25 14.5H4.05001C4.28164 13.3589 5.29052 12.5 6.5 12.5H9.5C10.7095 12.5 11.7184 13.3589 11.95 14.5H10.75C10.3358 14.5 10 14.8358 10 15.25C10 15.6642 10.3358 16 10.75 16H13.25C14.7688 16 16 14.7688 16 13.25V10.75C16 10.3358 15.6642 10 15.25 10C14.8358 10 14.5 10.3358 14.5 10.75V13.25C14.5 13.8665 14.0538 14.3787 13.4667 14.4813C13.2124 12.5172 11.5334 11 9.5 11H6.5C4.46664 11 2.78765 12.5172 2.53332 14.4813C1.94624 14.3787 1.5 13.8665 1.5 13.25V10.75Z" fill="#474E5A"/>
<path fill-rule="evenodd" clip-rule="evenodd" d="M7.99999 3.25C7.3572 3.25 6.72884 3.44062 6.19439 3.79773C5.65992 4.15485 5.24337 4.66243 4.99739 5.25628C4.7514 5.85014 4.68705 6.5036 4.81245 7.13403C4.93785 7.76445 5.24736 8.34356 5.70189 8.79809C6.15641 9.25261 6.73551 9.56215 7.36596 9.68755C7.99639 9.81295 8.64987 9.7486 9.24373 9.50261C9.83762 9.25662 10.3452 8.84003 10.7023 8.3056C11.0594 7.77114 11.25 7.14279 11.25 6.5C11.25 5.63804 10.9076 4.81139 10.2981 4.2019C9.6886 3.59241 8.86195 3.25 7.99999 3.25ZM7.02774 5.04493C7.31553 4.85264 7.65388 4.75 7.99999 4.75C8.46412 4.75 8.90924 4.93438 9.23744 5.26256C9.56563 5.59075 9.75 6.03587 9.75 6.5C9.75 6.84611 9.64736 7.18445 9.45507 7.47224C9.26276 7.76005 8.98946 7.98435 8.66971 8.11679C8.34995 8.24924 7.99807 8.2839 7.65859 8.21637C7.31913 8.14885 7.0073 7.98217 6.76255 7.73743C6.51782 7.4927 6.35116 7.18088 6.28363 6.84139C6.2161 6.50192 6.25076 6.15007 6.38321 5.83031C6.51567 5.51053 6.73996 5.23722 7.02774 5.04493Z" fill="#474E5A"/>
<path d="M13.25 0C13.6642 0 14 0.335786 14 0.75V2H15.25C15.6642 2 16 2.33579 16 2.75C16 3.16421 15.6642 3.5 15.25 3.5H14V4.75C14 5.16421 13.6642 5.5 13.25 5.5C12.8358 5.5 12.5 5.16421 12.5 4.75V3.5H11.25C10.8358 3.5 10.5 3.16421 10.5 2.75C10.5 2.33579 10.8358 2 11.25 2H12.5V0.75C12.5 0.335786 12.8358 0 13.25 0Z" fill="#474E5A"/>
</svg>
