<svg width="16" height="16" viewBox="0 0 16 16" fill="none" xmlns="http://www.w3.org/2000/svg">
<path d="M13.25 0.5C13.6642 0.5 14 0.835786 14 1.25V2.5H15.25C15.6642 2.5 16 2.83579 16 3.25C16 3.66421 15.6642 4 15.25 4H14V5.25C14 5.66421 13.6642 6 13.25 6C12.8358 6 12.5 5.66421 12.5 5.25V4H11.25C10.8358 4 10.5 3.66421 10.5 3.25C10.5 2.83579 10.8358 2.5 11.25 2.5H12.5V1.25C12.5 0.835786 12.8358 0.5 13.25 0.5Z" fill="#474E5A"/>
<path fill-rule="evenodd" clip-rule="evenodd" d="M3 4.25C3 3.2835 3.7835 2.5 4.75 2.5H8.75C9.16421 2.5 9.5 2.83579 9.5 3.25C9.5 3.66421 9.16421 4 8.75 4H4.75C4.61193 4 4.5 4.11193 4.5 4.25V6.5H10.5C11.3284 6.5 12 7.17157 12 8V9.5H13.25C13.3881 9.5 13.5 9.38807 13.5 9.25V7.75C13.5 7.33579 13.8358 7 14.25 7C14.6642 7 15 7.33579 15 7.75V9.25C15 10.2165 14.2165 11 13.25 11H12V13.5C12 14.3284 11.3284 15 10.5 15H1.5C0.671573 15 0 14.3284 0 13.5V8C0 7.17157 0.671573 6.5 1.5 6.5H3V4.25ZM10.5 8H1.5V9H10.5V8ZM10.5 10.5H1.5V13.5H10.5V10.5Z" fill="#474E5A"/>
</svg>
