<svg width="16" height="16" viewBox="0 0 16 16" fill="none" xmlns="http://www.w3.org/2000/svg">
<path d="M5.41982 0.95124C5.72028 0.649918 6.10415 0.498855 6.5 0.49805C6.89797 0.497241 7.30792 0.648307 7.60999 0.951248L8.59823 1.94236C8.60198 1.94612 8.60514 1.94797 8.60816 1.94921C8.61139 1.95053 8.61713 1.95219 8.62614 1.95219H10.0237C10.8792 1.95219 11.5723 2.65042 11.5723 3.50308V4.90467C11.5723 5.31888 11.2365 5.65467 10.8223 5.65467C10.4081 5.65467 10.0723 5.31888 10.0723 4.90467V3.50308C10.0723 3.47834 10.0444 3.45219 10.0237 3.45219H8.62614C8.22277 3.45219 7.83035 3.29665 7.53604 3.00148L6.54779 2.01037C6.53438 1.99692 6.49543 1.99692 6.48201 2.01037L5.49374 3.00148C5.19942 3.29664 4.807 3.45219 4.40363 3.45219H3.00611C2.98545 3.45219 2.95754 3.47834 2.95754 3.50308V4.90467C2.95754 5.30727 2.80325 5.69979 2.50903 5.99486L1.52079 6.98597C1.50715 6.99965 1.50715 7.04445 1.52079 7.05813L2.50903 8.04924C2.80327 8.34433 2.95754 8.73689 2.95754 9.13946V10.541C2.95754 10.5658 2.98545 10.5919 3.00611 10.5919H4.40363C4.81785 10.5919 5.15363 10.9277 5.15363 11.3419C5.15363 11.7561 4.81785 12.0919 4.40363 12.0919H3.00611C2.15063 12.0919 1.45754 11.3937 1.45754 10.541V9.13946C1.45754 9.12955 1.45571 9.12302 1.45415 9.11916C1.45267 9.11552 1.45058 9.11211 1.44683 9.10836L0.458593 8.11725C0.155309 7.81309 -0.00261234 7.41195 3.26872e-05 7.01167C0.00263198 6.6183 0.160554 6.22575 0.458593 5.92685L1.44683 4.93574C1.45059 4.93197 1.45268 4.92855 1.45416 4.92493C1.45572 4.92109 1.45754 4.91458 1.45754 4.90467V3.50308C1.45754 2.65042 2.15063 1.95219 3.00611 1.95219H4.40363C4.41265 1.95219 4.41838 1.95053 4.42161 1.94921C4.42463 1.94797 4.42779 1.94612 4.43154 1.94236L5.41982 0.95124Z" fill="#474E5A"/>
<path d="M0.750033 14C0.335819 14 3.26872e-05 14.3358 3.26872e-05 14.75C3.26872e-05 15.1642 0.335819 15.5 0.750033 15.5H4.5034C4.91761 15.5 5.2534 15.1642 5.2534 14.75C5.2534 14.3358 4.91761 14 4.5034 14H0.750033Z" fill="#474E5A"/>
<path fill-rule="evenodd" clip-rule="evenodd" d="M12.8629 12.0734L15.692 7.6787C15.8964 7.37146 15.9973 7.02226 15.9998 6.67575C16.0042 6.09385 15.7311 5.51954 15.2051 5.16424C14.3847 4.61013 13.2626 4.80234 12.6934 5.63592L9.64425 9.85562C9.63175 9.85865 9.61927 9.86178 9.60682 9.86501C8.8849 10.05 8.16129 10.5539 7.84244 11.5625C7.47649 12.6718 7.07578 13.4886 6.75958 14.0513C6.60975 14.2871 6.58952 14.5803 6.70276 14.8327C6.81935 15.0926 7.05163 15.2595 7.30565 15.3103C9.98829 15.9246 11.6832 14.9194 12.4039 13.8861C12.7957 13.3342 12.937 12.6888 12.8629 12.0734ZM10.9284 11.4742C10.6898 11.3155 10.2992 11.2349 9.98279 11.3171L9.97982 11.3179C9.68531 11.3932 9.41277 11.5686 9.27178 12.0174L9.26865 12.0274C9.0138 12.8007 8.74167 13.449 8.48546 13.9821C10.0701 14.1126 10.8856 13.4421 11.1748 13.0263L11.1796 13.0194C11.5294 12.5283 11.4095 11.8335 10.9284 11.4742ZM11.3774 10.0182C11.5231 10.0818 11.6601 10.1572 11.7851 10.2428L11.7945 10.2492L11.8037 10.2559C11.9065 10.331 12.0026 10.4128 12.0917 10.5002L14.4342 6.86144L14.4422 6.84929C14.5478 6.69199 14.5022 6.49958 14.3655 6.40727C14.2116 6.30329 14.0228 6.34683 13.9305 6.48418C13.9257 6.49132 13.9208 6.49837 13.9158 6.50534L11.3774 10.0182Z" fill="#474E5A"/>
<path fill-rule="evenodd" clip-rule="evenodd" d="M6.49916 8.49932C7.32723 8.49986 7.99895 7.82901 7.99948 7.00093C8.00001 6.17286 7.32916 5.50114 6.50109 5.50061C5.67302 5.50008 5.0013 6.17093 5.00077 6.999C5.00023 7.82707 5.67109 8.49879 6.49916 8.49932ZM9.49948 7.0019C9.49841 8.6584 8.15469 10.0004 6.49819 9.99932C4.84169 9.99826 3.4997 8.65453 3.50077 6.99803C3.50183 5.34154 4.84556 3.99954 6.50206 4.00061C8.15855 4.00168 9.50055 5.34541 9.49948 7.0019Z" fill="#474E5A"/>
</svg>
