<svg width="16" height="16" viewBox="0 0 16 16" fill="none" xmlns="http://www.w3.org/2000/svg">
<path fill-rule="evenodd" clip-rule="evenodd" d="M7.11021 3.23042C7.51312 2.73422 8.03258 2.33529 8.63018 2.07713C8.21848 3.20021 8.10156 4.4368 8.10156 5.62506C8.10156 6.91631 8.27402 8.11112 8.57143 9.00479C8.82142 9.75594 9.31184 10.7549 10.239 10.75C13.1097 10.7426 15.5 8.47248 15.5 5.625C15.5 2.7729 13.1019 0.5 10.225 0.5C8.56288 0.5 7.0976 1.26296 6.13983 2.44247C5.92224 2.71044 5.96308 3.10405 6.23105 3.32164C6.49901 3.53922 6.89262 3.49839 7.11021 3.23042ZM14.1973 6.25005C13.9735 7.56377 13.0568 8.66655 11.8153 9.18395C12.1605 8.25117 12.2938 7.23883 12.3378 6.25005H14.1973ZM11.8196 2.06783C13.0589 2.58599 13.9738 3.68779 14.1973 5.00005H12.3379C12.2945 4.01212 12.1632 3.00028 11.8196 2.06783ZM9.36652 5.00005C9.41383 4.02131 9.48867 2.68052 10.1317 1.86572C10.2169 1.75774 10.2363 1.75773 10.3215 1.86572C10.9645 2.68052 11.0393 4.02131 11.0866 5.00005H9.36652ZM9.36652 6.25005C9.41382 7.22878 9.48866 8.56958 10.1317 9.38437C10.2154 9.49041 10.2337 9.49102 10.3172 9.38495C10.9599 8.56856 11.0384 7.23053 11.0864 6.25005H9.36652Z" fill="#474E5A"/>
<path fill-rule="evenodd" clip-rule="evenodd" d="M1.75 7.49998C1.75 5.98429 2.98435 4.75 4.5 4.75C6.01565 4.75 7.25 5.98429 7.25 7.49998C7.25 9.01564 6.01567 10.25 4.5 10.25C2.98433 10.25 1.75 9.01564 1.75 7.49998ZM4.5 6.25C3.81275 6.25 3.25 6.81275 3.25 7.49998C3.25 8.18723 3.81278 8.75 4.5 8.75C5.18722 8.75 5.75 8.18723 5.75 7.49998C5.75 6.81275 5.18725 6.25 4.5 6.25Z" fill="#474E5A"/>
<path fill-rule="evenodd" clip-rule="evenodd" d="M1.5 16H7.5C8.32843 16 9 15.3284 9 14.5V14C9 12.3431 7.65685 11 6 11H3C1.34315 11 0 12.3431 0 14V14.5C0 15.3284 0.671573 16 1.5 16ZM7.5 14.5V14C7.5 13.1716 6.82843 12.5 6 12.5H3C2.17157 12.5 1.5 13.1716 1.5 14V14.5H7.5Z" fill="#474E5A"/>
</svg>
