<svg width="16" height="16" viewBox="0 0 16 16" fill="none" xmlns="http://www.w3.org/2000/svg">
<path d="M15.2501 0L10.9999 6.16314e-05C10.5857 6.76515e-05 10.2499 0.335859 10.2499 0.750073C10.2499 1.16429 10.5857 1.50007 11 1.50006L13.4394 1.50003L10.2197 4.71966C9.92678 5.01255 9.92677 5.48743 10.2197 5.78032C10.5126 6.07322 10.9874 6.07323 11.2803 5.78034L14.5001 2.56063V4.99994C14.5001 5.41415 14.8359 5.74994 15.2501 5.74994C15.6643 5.74994 16.0001 5.41415 16.0001 4.99994V0.75C16.0001 0.551086 15.9211 0.360319 15.7804 0.219666C15.6398 0.0790135 15.449 -2.86079e-06 15.2501 0Z" fill="#474E5A"/>
<path fill-rule="evenodd" clip-rule="evenodd" d="M8 0C4.68629 0 2 1.567 2 3.5V12.5C2 14.433 4.68629 16 8 16C11.3137 16 14 14.433 14 12.5V7.75C14 7.33579 13.6642 7 13.25 7C12.8358 7 12.5 7.33579 12.5 7.75L12.5 8C12.4996 8.21194 12.3408 8.68104 11.4868 9.17921C10.6684 9.6566 9.43902 10 8 10C6.56099 10 5.33155 9.6566 4.51317 9.1792C3.65795 8.68033 3.5 8.21151 3.5 8L3.5 5.8151C4.59942 6.54171 6.20796 7 8 7H8.25C8.66421 7 9 6.66421 9 6.25C9 5.83579 8.66421 5.5 8.25 5.5H8C6.56099 5.5 5.33155 5.1566 4.51317 4.6792C3.65795 4.18033 3.5 3.71151 3.5 3.5C3.5 3.28849 3.65795 2.81967 4.51317 2.32079C5.33155 1.8434 6.56099 1.5 8 1.5H8.25C8.66421 1.5 9 1.16421 9 0.75C9 0.335786 8.66421 0 8.25 0H8ZM3.5 10.3151V12.5C3.5 12.7115 3.65795 13.1803 4.51316 13.6792C5.33155 14.1566 6.56098 14.5 8 14.5C9.43901 14.5 10.6684 14.1566 11.4868 13.6792C12.342 13.1803 12.5 12.7115 12.5 12.5V10.3151C11.4006 11.0417 9.79204 11.5 8 11.5C6.20796 11.5 4.59942 11.0417 3.5 10.3151Z" fill="#474E5A"/>
</svg>
