<svg width="16" height="16" viewBox="0 0 16 16" fill="none" xmlns="http://www.w3.org/2000/svg">
<path fill-rule="evenodd" clip-rule="evenodd" d="M2 3.5C2 1.567 4.68629 0 8 0C11.3137 0 14 1.567 14 3.5V12.5C14 14.433 11.3137 16 8 16C4.68629 16 2 14.433 2 12.5V3.5ZM3.5 3.5C3.5 3.28849 3.65795 2.81967 4.51317 2.32079C5.33155 1.8434 6.56099 1.5 8 1.5C9.43902 1.5 10.6684 1.8434 11.4868 2.32079C12.342 2.81967 12.5 3.28849 12.5 3.5C12.5 3.71151 12.342 4.18033 11.4868 4.67921C10.6684 5.1566 9.43901 5.5 8 5.5C6.56099 5.5 5.33155 5.1566 4.51317 4.6792C3.65795 4.18033 3.5 3.71151 3.5 3.5ZM12.5 5.8151V8C12.4996 8.21194 12.3408 8.68104 11.4868 9.17921C10.6684 9.6566 9.43902 10 8 10C6.56099 10 5.33155 9.6566 4.51317 9.1792C3.65795 8.68033 3.5 8.21151 3.5 8L3.5 5.8151C4.59942 6.54171 6.20796 7 8 7C9.79204 7 11.4006 6.54171 12.5 5.8151ZM3.5 12.5V10.3151C4.59942 11.0417 6.20796 11.5 8 11.5C9.79204 11.5 11.4006 11.0417 12.5 10.3151V12.5C12.5 12.7115 12.342 13.1803 11.4868 13.6792C10.6684 14.1566 9.43901 14.5 8 14.5C6.56098 14.5 5.33155 14.1566 4.51316 13.6792C3.65795 13.1803 3.5 12.7115 3.5 12.5Z" fill="#474E5A"/>
</svg>
