<svg width="16" height="16" viewBox="0 0 16 16" fill="none" xmlns="http://www.w3.org/2000/svg">
<path fill-rule="evenodd" clip-rule="evenodd" d="M3.5 1C1.84315 1 0.5 2.34315 0.5 4V9C0.5 10.6569 1.84315 12 3.5 12H7.25V13.5H5.25C4.83579 13.5 4.5 13.8358 4.5 14.25C4.5 14.6642 4.83579 15 5.25 15H10.75C11.1642 15 11.5 14.6642 11.5 14.25C11.5 13.8358 11.1642 13.5 10.75 13.5H8.75V12H12.5C14.1569 12 15.5 10.6569 15.5 9V4C15.5 2.34315 14.1569 1 12.5 1H3.5ZM12.5 2.5H3.5C2.67157 2.5 2 3.17157 2 4V9C2 9.82843 2.67157 10.5 3.5 10.5H12.5C13.3284 10.5 14 9.82843 14 9V4C14 3.17157 13.3284 2.5 12.5 2.5Z" fill="#474E5A"/>
</svg>
