<svg width="16" height="16" viewBox="0 0 16 16" fill="none" xmlns="http://www.w3.org/2000/svg">
<path d="M8.75 1C8.75 0.585786 8.41421 0.25 8 0.25C7.58579 0.25 7.25 0.585786 7.25 1L7.25 9.68934L5.03033 7.46967C4.73744 7.17678 4.26256 7.17678 3.96967 7.46967C3.67678 7.76256 3.67678 8.23744 3.96967 8.53033L7.46967 12.0303C7.76256 12.3232 8.23744 12.3232 8.53033 12.0303L12.0303 8.53033C12.3232 8.23744 12.3232 7.76256 12.0303 7.46967C11.7374 7.17678 11.2626 7.17678 10.9697 7.46967L8.75 9.68934V1Z" fill="#474E5A"/>
<path d="M1.25 11C1.66421 11 2 11.3358 2 11.75V14H14V11.75C14 11.3358 14.3358 11 14.75 11C15.1642 11 15.5 11.3358 15.5 11.75V14.75C15.5 15.1642 15.1642 15.5 14.75 15.5H1.25C0.835786 15.5 0.5 15.1642 0.5 14.75V11.75C0.5 11.3358 0.835786 11 1.25 11Z" fill="#474E5A"/>
</svg>
