<svg width="16" height="16" viewBox="0 0 16 16" fill="none" xmlns="http://www.w3.org/2000/svg">
<path fill-rule="evenodd" clip-rule="evenodd" d="M3.75 2.5C3.05964 2.5 2.5 3.05964 2.5 3.75V12.25C2.5 12.9404 3.05964 13.5 3.75 13.5H12.25C12.9404 13.5 13.5 12.9404 13.5 12.25V8.69444C13.5 8.28023 13.8358 7.94444 14.25 7.94444C14.6642 7.94444 15 8.28023 15 8.69444V12.25C15 13.7688 13.7688 15 12.25 15H3.75C2.23122 15 1 13.7688 1 12.25V3.75C1 2.23122 2.23122 1 3.75 1H7.30578C7.72 1 8.05578 1.33579 8.05578 1.75C8.05578 2.16421 7.72 2.5 7.30578 2.5H3.75Z" fill="#474E5A"/>
<path fill-rule="evenodd" clip-rule="evenodd" d="M13.7385 1.17809C13.0541 0.493765 11.9443 0.494807 11.2613 1.18042L5.21115 7.25332C5.11228 7.35256 5.04318 7.47751 5.01168 7.614L4.26922 10.8313C4.21107 11.0833 4.28683 11.3475 4.46968 11.5303C4.65254 11.7132 4.91669 11.7889 5.16866 11.7308L8.38599 10.9883C8.52343 10.9566 8.64913 10.8868 8.74868 10.7869L14.8015 4.7113C15.4827 4.02751 15.4816 2.92126 14.7991 2.23875L13.7385 1.17809ZM12.3239 2.23908C12.4215 2.14114 12.5801 2.14099 12.6778 2.23875L13.7385 3.29941C13.836 3.39691 13.8361 3.55494 13.7388 3.65263L12.9927 4.40153L11.5785 2.98732L12.3239 2.23908ZM10.5198 4.04997L6.42507 8.16014L6.00064 9.99936L7.83837 9.57527L11.934 5.46418L10.5198 4.04997Z" fill="#474E5A"/>
</svg>
