<svg width="16" height="16" viewBox="0 0 16 16" fill="none" xmlns="http://www.w3.org/2000/svg">
<path fill-rule="evenodd" clip-rule="evenodd" d="M4.66962 1.25C3.64489 1.25 2.7404 1.9194 2.44095 2.8994L0.178845 10.3027C0.0602719 10.6907 0 11.0942 0 11.5C0 13.433 1.567 15 3.5 15C5.433 15 7 13.433 7 11.5V9.39409C7.47031 9.09264 7.78585 9 8 9C8.21415 9 8.52969 9.09264 9 9.39409V11.5C9 13.433 10.567 15 12.5 15C14.433 15 16 13.433 16 11.5C16 11.0942 15.9397 10.6907 15.8212 10.3027L13.559 2.8994C13.2596 1.9194 12.3551 1.25 11.3304 1.25C10.0433 1.25 9 2.29335 9 3.58038V4.16111C8.6829 4.0546 8.34809 4 8.00006 4C7.65198 4 7.31714 4.05462 7 4.16115V3.58038C7 2.29335 5.95665 1.25 4.66962 1.25ZM5.5 8.62734V3.58038C5.5 3.12178 5.12822 2.75 4.66962 2.75C4.30448 2.75 3.98218 2.98853 3.87548 3.33773L2.39667 8.17745C2.74354 8.06233 3.11449 8 3.5 8C4.24362 8 4.93308 8.23191 5.5 8.62734ZM1.5 11.5C1.5 12.6046 2.39543 13.5 3.5 13.5C4.60457 13.5 5.5 12.6046 5.5 11.5C5.5 10.3954 4.60457 9.5 3.5 9.5C2.39543 9.5 1.5 10.3954 1.5 11.5ZM12.5 13.5C11.3954 13.5 10.5 12.6046 10.5 11.5C10.5 10.3954 11.3954 9.5 12.5 9.5C13.6046 9.5 14.5 10.3954 14.5 11.5C14.5 12.6046 13.6046 13.5 12.5 13.5ZM12.5 8C12.8855 8 13.2565 8.06233 13.6033 8.17745L12.1245 3.33773C12.0178 2.98853 11.6955 2.75 11.3304 2.75C10.8718 2.75 10.5 3.12178 10.5 3.58038V8.62734C11.0669 8.23191 11.7564 8 12.5 8ZM7 5.83833V7.70619C7.33093 7.57501 7.66389 7.5 8 7.5C8.33611 7.5 8.66907 7.57501 9 7.70619V5.83824C8.69181 5.60555 8.35795 5.5 8.00006 5.5C7.64212 5.5 7.30822 5.60558 7 5.83833Z" fill="#474E5A"/>
</svg>
