<svg width="16" height="16" viewBox="0 0 16 16" fill="none" xmlns="http://www.w3.org/2000/svg">
<path d="M10.7181 7.73016C10.4273 8.02063 10.4273 8.49156 10.7181 8.78203C11.0089 9.07249 11.4805 9.07249 11.7713 8.78203L15.2819 5.27581C15.5727 4.98535 15.5727 4.51441 15.2819 4.22394L11.7713 0.717726C11.4805 0.427262 11.0089 0.427262 10.7181 0.717727C10.4273 1.00819 10.4273 1.47913 10.7181 1.76959L12.9513 4H8C6.48122 4 5.25 5.23122 5.25 6.75V11.25C5.25 11.6642 5.58579 12 6 12C6.41421 12 6.75 11.6642 6.75 11.25V6.75C6.75 6.05964 7.30964 5.5 8 5.5H12.9511L10.7181 7.73016Z" fill="#474E5A"/>
<path d="M1.25 10.9999C1.66421 10.9999 2 11.3357 2 11.7499V13.9999H14V11.7499C14 11.3357 14.3358 10.9999 14.75 10.9999C15.1642 10.9999 15.5 11.3357 15.5 11.7499V14.7499C15.5 15.1641 15.1642 15.4999 14.75 15.4999H1.25C0.835786 15.4999 0.5 15.1641 0.5 14.7499V11.7499C0.5 11.3357 0.835786 10.9999 1.25 10.9999Z" fill="#474E5A"/>
</svg>
