<svg width="16" height="16" viewBox="0 0 16 16" fill="none" xmlns="http://www.w3.org/2000/svg">
<path d="M11 1.00006L15.2502 1C15.4491 0.999997 15.6399 1.07901 15.7805 1.21967C15.9212 1.36032 16.0002 1.55109 16.0002 1.75V5.99994C16.0002 6.41415 15.6644 6.74994 15.2502 6.74994C14.836 6.74994 14.5002 6.41415 14.5002 5.99994V3.56059L11.5303 6.53028C11.2374 6.82317 10.7625 6.82315 10.4697 6.53025C10.1768 6.23735 10.1768 5.76248 10.4697 5.46959L13.4394 2.50003L11 2.50006C10.5858 2.50007 10.25 2.16429 10.25 1.75007C10.25 1.33586 10.5858 1.00007 11 1.00006Z" fill="#474E5A"/>
<path fill-rule="evenodd" clip-rule="evenodd" d="M2.5 15H9.5C10.6046 15 11.5 14.1046 11.5 13C11.5 10.7909 9.70914 9 7.5 9H4.5C2.29086 9 0.5 10.7909 0.5 13C0.5 14.1046 1.39543 15 2.5 15ZM2 13C2 13.2761 2.22386 13.5 2.5 13.5H9.5C9.77614 13.5 10 13.2761 10 13C10 11.6193 8.88071 10.5 7.5 10.5H4.5C3.11929 10.5 2 11.6193 2 13Z" fill="#474E5A"/>
<path fill-rule="evenodd" clip-rule="evenodd" d="M9 5.5C9 7.15685 7.65685 8.5 6 8.5C4.34315 8.5 3 7.15685 3 5.5C3 3.84315 4.34315 2.5 6 2.5C7.65685 2.5 9 3.84315 9 5.5ZM7.5 5.5C7.5 6.32843 6.82843 7 6 7C5.17157 7 4.5 6.32843 4.5 5.5C4.5 4.67157 5.17157 4 6 4C6.82843 4 7.5 4.67157 7.5 5.5Z" fill="#474E5A"/>
</svg>
