<svg width="16" height="16" viewBox="0 0 16 16" fill="none" xmlns="http://www.w3.org/2000/svg">
<path d="M8 1.75C8 1.33579 8.33579 1 8.75 1H14.25C14.6642 1 15 1.33579 15 1.75V7.25C15 7.66421 14.6642 8 14.25 8C13.8358 8 13.5 7.66421 13.5 7.25V3.56066L6.40533 10.6553C6.11244 10.9482 5.63756 10.9482 5.34467 10.6553C5.05178 10.3624 5.05178 9.88756 5.34467 9.59467L12.4393 2.5H8.75C8.33579 2.5 8 2.16421 8 1.75Z" fill="#474E5A"/>
<path d="M2.5 4.75C2.5 4.05964 3.05964 3.5 3.75 3.5H5.625C6.03921 3.5 6.375 3.16421 6.375 2.75C6.375 2.33579 6.03921 2 5.625 2H3.75C2.23122 2 1 3.23122 1 4.75V12.25C1 13.7688 2.23122 15 3.75 15H11.25C12.7688 15 14 13.7688 14 12.25V10.375C14 9.96079 13.6642 9.625 13.25 9.625C12.8358 9.625 12.5 9.96079 12.5 10.375V12.25C12.5 12.9404 11.9404 13.5 11.25 13.5H3.75C3.05964 13.5 2.5 12.9404 2.5 12.25V4.75Z" fill="#474E5A"/>
</svg>
