<svg width="16" height="16" viewBox="0 0 16 16" fill="none" xmlns="http://www.w3.org/2000/svg">
<path fill-rule="evenodd" clip-rule="evenodd" d="M8.00097 1.4C6.60941 1.4 5.69277 1.67532 4.9458 1.95543C4.58382 2.09117 4.18033 1.90777 4.04458 1.54579C3.90884 1.1838 4.09224 0.780314 4.45423 0.64457C5.30726 0.324683 6.39445 0 8.00097 0C9.60764 0 10.693 0.324751 11.5458 0.64457C11.9078 0.780314 12.0912 1.1838 11.9554 1.54579C11.8197 1.90777 11.4162 2.09117 11.0542 1.95543C10.3071 1.67525 9.39239 1.4 8.00097 1.4ZM13.2663 6.09515C10.3418 3.17281 5.24772 3.29001 2.73377 6.25288C2.48365 6.54767 2.04192 6.58388 1.74713 6.33376C1.45234 6.08364 1.41614 5.6419 1.66626 5.34712C4.7523 1.70999 10.8005 1.65204 14.2558 5.10485C14.5293 5.37811 14.5295 5.82133 14.2562 6.0948C13.9829 6.36826 13.5397 6.36842 13.2663 6.09515ZM2.68883 7.76795C3.70851 5.96468 5.78313 4.9 8.24017 4.9C11.2717 4.9 13.9802 7.15697 13.9802 10.4C13.9802 11.5819 13.0221 12.54 11.8402 12.54C11.4529 12.54 11.1032 12.4574 10.7964 12.2866C10.4915 12.1169 10.2677 11.8817 10.099 11.6331C9.8218 11.2246 9.65322 10.7063 9.5195 10.2952C9.50208 10.2416 9.48524 10.1898 9.46884 10.1404C9.30675 9.65176 9.16562 9.30152 8.95514 9.06122C8.78349 8.86524 8.52792 8.7 8.00017 8.7C7.21458 8.7 6.76836 8.9692 6.50665 9.31215C6.22497 9.68127 6.07808 10.2409 6.11707 10.9358C6.19628 12.3475 7.02087 13.9534 8.18338 14.7143C8.50684 14.926 8.59743 15.3599 8.38571 15.6834C8.17398 16.0068 7.74012 16.0974 7.41665 15.8857C5.82915 14.8466 4.8196 12.8025 4.71927 11.0142C4.66849 10.1091 4.84548 9.18123 5.39369 8.46284C5.96186 7.7183 6.85153 7.3 8.00017 7.3C8.89756 7.3 9.5493 7.61476 10.0083 8.13878C10.4284 8.61848 10.6413 9.22824 10.7976 9.6996C10.8147 9.75105 10.8311 9.80088 10.8471 9.84914C10.9954 10.2991 11.0992 10.6137 11.2575 10.8469C11.333 10.9583 11.4049 11.0231 11.4773 11.0634C11.5478 11.1026 11.6569 11.14 11.8402 11.14C12.2489 11.14 12.5802 10.8087 12.5802 10.4C12.5802 8.03641 10.6092 6.3 8.24017 6.3C6.17207 6.3 4.62661 7.18532 3.90749 8.45705C3.19871 9.71051 3.1908 11.5242 4.58245 13.6117C4.7969 13.9334 4.70997 14.368 4.3883 14.5824C4.06663 14.7969 3.63203 14.71 3.41758 14.3883C1.80923 11.9758 1.65882 9.58949 2.68883 7.76795ZM8.00123 9.7C8.38783 9.70014 8.70112 10.0137 8.70097 10.4003C8.70076 10.9592 8.97356 11.5807 9.47715 12.1895C9.97528 12.7916 10.6511 13.3206 11.3294 13.6824C11.6705 13.8643 11.7996 14.2883 11.6177 14.6294C11.4357 14.9705 11.0117 15.0996 10.6706 14.9176C9.84894 14.4794 9.02494 13.8392 8.3984 13.0818C7.77732 12.331 7.3006 11.4026 7.30097 10.3997C7.30112 10.0131 7.61463 9.69985 8.00123 9.7Z" fill="#474E5A"/>
</svg>
