<svg width="16" height="16" viewBox="0 0 16 16" fill="none" xmlns="http://www.w3.org/2000/svg">
<path fill-rule="evenodd" clip-rule="evenodd" d="M1 1.5C1 0.671573 1.67157 0 2.5 0H6.5C7.60457 0 8.5 0.895431 8.5 2V3H14.25C14.6642 3 15 3.33579 15 3.75V4.5C15 4.58597 14.9852 4.67129 14.9563 4.75225L13.7964 8L14.9563 11.2477C14.9852 11.3287 15 11.414 15 11.5V12.25C15 12.6642 14.6642 13 14.25 13H8.75C7.7835 13 7 12.2165 7 11.25V10H2.5L2.5 15.25C2.5 15.6642 2.16421 16 1.75 16C1.33579 16 1 15.6642 1 15.25V1.5ZM2.5 1.5H6.5C6.77614 1.5 7 1.72386 7 2V8.5H2.5L2.5 1.5ZM8.5 4.5V11.25C8.5 11.3881 8.61193 11.5 8.75 11.5H13.4536L12.2937 8.25225C12.2354 8.08913 12.2354 7.91087 12.2937 7.74775L13.4536 4.5H8.5Z" fill="#474E5A"/>
</svg>
