<svg width="16" height="16" viewBox="0 0 16 16" fill="none" xmlns="http://www.w3.org/2000/svg">
<path fill-rule="evenodd" clip-rule="evenodd" d="M0.870027 7.16967L7.6766 0.36967C7.92329 0.123223 8.24304 0 8.56279 0C8.88254 0 9.20229 0.123223 9.44897 0.36967L12.3452 3.26344C12.8034 3.74525 12.8224 4.53016 12.3318 5.02033L10.3244 7.02575L14.7913 11.2577C15.7124 12.0814 15.7293 13.4909 14.8789 14.3557L14.8743 14.3604C14.0082 15.2256 12.5919 15.209 11.7666 14.2755L7.53254 9.81492L5.52519 11.8203C5.03182 12.3132 4.24618 12.3132 3.75281 11.8203L0.870027 8.94033C0.623343 8.69388 0.5 8.37444 0.5 8.055C0.5 7.73556 0.623342 7.41612 0.870027 7.16967ZM8.56279 1.60566L7.46737 2.70002L8.55802 3.78962C8.85119 4.08251 8.85119 4.55739 8.55802 4.85028C8.26484 5.14317 7.78951 5.14317 7.49633 4.85028L6.40568 3.76068L4.26438 5.89991L5.35522 6.98969C5.6484 7.28259 5.6484 7.75746 5.35522 8.05035C5.06204 8.34325 4.58671 8.34325 4.29353 8.05035L3.2027 6.96057L2.10721 8.055L4.639 10.5843L11.0946 4.135L8.56279 1.60566ZM8.5946 8.75388L12.8774 13.2658L12.8882 13.2781C13.125 13.5504 13.5393 13.5702 13.8102 13.302C14.0751 13.0301 14.0548 12.6091 13.7864 12.3721L13.7764 12.3634L9.26235 8.08678L8.5946 8.75388Z" fill="#474E5A"/>
<path fill-rule="evenodd" clip-rule="evenodd" d="M0.5 15.25C0.5 14.8358 0.835786 14.5 1.25 14.5H7.75C8.16421 14.5 8.5 14.8358 8.5 15.25C8.5 15.6642 8.16421 16 7.75 16H1.25C0.835786 16 0.5 15.6642 0.5 15.25Z" fill="#474E5A"/>
</svg>
