<svg width="16" height="16" viewBox="0 0 16 16" fill="none" xmlns="http://www.w3.org/2000/svg">
<path fill-rule="evenodd" clip-rule="evenodd" d="M8.75655 1.72442C9.65904 0.694819 10.9143 0 12.25 0C13.7538 0 15 1.24611 15 2.74992C15 3.73803 14.5117 4.47899 13.8227 5.02063C15.051 5.17892 16 6.22863 16 7.5V13.5C16 14.8807 14.8807 16 13.5 16H2.5C1.11929 16 0 14.8807 0 13.5V7.5C0 6.22863 0.949035 5.17891 2.17733 5.02063C1.48831 4.47899 0.999972 3.73803 1 2.74992C1.00004 1.24611 2.24619 0 3.75 0C5.08567 0 6.34096 0.694819 7.24345 1.72442C7.52931 2.05054 7.7845 2.41508 8 2.81039C8.2155 2.41508 8.47069 2.05054 8.75655 1.72442ZM8.8149 4.97776C9.98001 4.9137 11.1028 4.71052 11.968 4.35944C13.0603 3.91622 13.5 3.35573 13.5 2.74996C13.5 2.07457 12.9254 1.5 12.25 1.5C11.4406 1.5 10.5708 1.93024 9.88455 2.71316C9.3553 3.31695 8.96318 4.10197 8.8149 4.97776ZM2.5 14.5H7.25V11.25H1.5V13.5C1.5 14.0523 1.94772 14.5 2.5 14.5ZM1.5 9.75V7.5C1.5 6.94772 1.94772 6.5 2.5 6.5H5.24573C4.8509 6.78494 4.48656 7.0943 4.19038 7.39048C3.93654 7.64432 3.93654 8.05588 4.19038 8.30972C4.44422 8.56356 4.85578 8.56356 5.10962 8.30972C5.4956 7.92374 6.03933 7.4951 6.59809 7.16676C6.83031 7.0303 7.04974 6.92032 7.25 6.83748V9.75H1.5ZM8.75 11.25V14.5H13.5C14.0523 14.5 14.5 14.0523 14.5 13.5V11.25H8.75ZM14.5 9.75H8.75V6.83718C8.9503 6.92003 9.16977 7.03002 9.40204 7.16651C9.96079 7.49485 10.5045 7.92349 10.8905 8.30947C11.1443 8.56331 11.5559 8.56331 11.8097 8.30947C12.0636 8.05563 12.0636 7.64407 11.8097 7.39023C11.5136 7.09414 11.1494 6.78488 10.7547 6.5H13.5C14.0523 6.5 14.5 6.94772 14.5 7.5V9.75ZM2.5 2.74996C2.50002 2.07457 3.0746 1.5 3.75 1.5C4.5594 1.5 5.42918 1.93024 6.11545 2.71316C6.6447 3.31695 7.03682 4.10197 7.1851 4.97776C6.01999 4.9137 4.89719 4.71052 4.03198 4.35944C2.93975 3.91622 2.49998 3.35573 2.5 2.74996Z" fill="#474E5A"/>
</svg>
