<svg width="16" height="16" viewBox="0 0 16 16" fill="none" xmlns="http://www.w3.org/2000/svg">
<path fill-rule="evenodd" clip-rule="evenodd" d="M3.25 5.5015C3.25 2.87982 5.37084 0.749529 8 0.749529C10.6304 0.749529 12.75 2.89094 12.75 5.5015C12.75 8.11448 10.6279 10.2436 8 10.2436C5.37326 10.2436 3.25 8.1256 3.25 5.5015ZM8 2.24859C6.20236 2.24859 4.75 3.70464 4.75 5.5015C4.75 7.29594 6.19994 8.7445 8 8.7445C9.79885 8.7445 11.25 7.28724 11.25 5.5015C11.25 3.71334 9.79644 2.24859 8 2.24859Z" fill="#474E5A"/>
<path d="M12.2244 0.219991C12.5171 -0.0729714 12.9919 -0.0733826 13.2851 0.219073C14.6448 1.57558 15.5 3.45495 15.5 5.52575C15.5 9.40581 12.5308 12.5888 8.75 12.9564V14.4909H10.5C10.9142 14.4909 11.25 14.8265 11.25 15.2404C11.25 15.6544 10.9142 15.9899 10.5 15.9899C8.83181 15.9899 7.17015 15.9899 5.5 15.9899C5.08579 15.9899 4.75 15.6544 4.75 15.2404C4.75 14.8265 5.08579 14.4909 5.5 14.4909H7.25V12.9537C5.48106 12.7764 3.91198 11.9916 2.72013 10.8026C2.42698 10.5101 2.42657 10.0355 2.71921 9.74258C3.01185 9.44961 3.48672 9.4492 3.77987 9.74166C4.87186 10.8311 6.34919 11.4928 8.01756 11.4928C11.3156 11.4928 14 8.82137 14 5.52575C14 3.87507 13.3192 2.37129 12.2253 1.27998C11.9322 0.987529 11.9318 0.512954 12.2244 0.219991Z" fill="#474E5A"/>
</svg>
