<svg width="16" height="16" viewBox="0 0 16 16" fill="none" xmlns="http://www.w3.org/2000/svg">
<path fill-rule="evenodd" clip-rule="evenodd" d="M0 2C0 0.89543 0.895431 0 2 0H5C6.10457 0 7 0.895431 7 2V5C7 6.10457 6.10457 7 5 7H2C0.89543 7 0 6.10457 0 5V2ZM2 1.5H5C5.27614 1.5 5.5 1.72386 5.5 2V5C5.5 5.27614 5.27614 5.5 5 5.5H2C1.72386 5.5 1.5 5.27614 1.5 5V2C1.5 1.72386 1.72386 1.5 2 1.5Z" fill="#474E5A"/>
<path fill-rule="evenodd" clip-rule="evenodd" d="M0 11C0 9.89543 0.895431 9 2 9H5C6.10457 9 7 9.89543 7 11V14C7 15.1046 6.10457 16 5 16H2C0.89543 16 0 15.1046 0 14V11ZM2 10.5H5C5.27614 10.5 5.5 10.7239 5.5 11V14C5.5 14.2761 5.27614 14.5 5 14.5H2C1.72386 14.5 1.5 14.2761 1.5 14V11C1.5 10.7239 1.72386 10.5 2 10.5Z" fill="#474E5A"/>
<path fill-rule="evenodd" clip-rule="evenodd" d="M11 0C9.89543 0 9 0.89543 9 2V5C9 6.10457 9.89543 7 11 7H14C15.1046 7 16 6.10457 16 5V2C16 0.895431 15.1046 0 14 0H11ZM14 1.5H11C10.7239 1.5 10.5 1.72386 10.5 2V5C10.5 5.27614 10.7239 5.5 11 5.5H14C14.2761 5.5 14.5 5.27614 14.5 5V2C14.5 1.72386 14.2761 1.5 14 1.5Z" fill="#474E5A"/>
<path fill-rule="evenodd" clip-rule="evenodd" d="M9 11C9 9.89543 9.89543 9 11 9H14C15.1046 9 16 9.89543 16 11V14C16 15.1046 15.1046 16 14 16H11C9.89543 16 9 15.1046 9 14V11ZM11 10.5H14C14.2761 10.5 14.5 10.7239 14.5 11V14C14.5 14.2761 14.2761 14.5 14 14.5H11C10.7239 14.5 10.5 14.2761 10.5 14V11C10.5 10.7239 10.7239 10.5 11 10.5Z" fill="#474E5A"/>
</svg>
