<svg width="16" height="16" viewBox="0 0 16 16" fill="none" xmlns="http://www.w3.org/2000/svg">
<path d="M11.329 0.237171C11.2818 0.0955347 11.1493 0 11 0C10.8507 0 10.7181 0.0955348 10.6709 0.237171L9.99998 2.24998L8.24254 2.68934C8.1 2.72497 8 2.85304 8 2.99997C8 3.1469 8.1 3.27497 8.24254 3.3106L9.99996 3.74996L10.6709 5.76283C10.7181 5.90447 10.8507 6 11 6C11.1493 6 11.2818 5.90447 11.329 5.76283L12 3.74998L13.7575 3.3106C13.9 3.27497 14 3.1469 14 2.99997C14 2.85304 13.9 2.72497 13.7575 2.68934L12 2.24996L11.329 0.237171Z" fill="#474E5A"/>
<path d="M14.5 9C15.3284 9 16 8.32843 16 7.5C16 6.67157 15.3284 6 14.5 6C13.6716 6 13 6.67157 13 7.5C13 7.77923 13.0763 8.04064 13.2092 8.26452L10.7092 12.0145C10.6408 12.0049 10.571 12 10.5 12C10.2672 12 10.0469 12.053 9.85027 12.1476L6.96199 9.83701C6.98686 9.72868 7 9.61588 7 9.5C7 8.67157 6.32843 8 5.5 8C4.67157 8 4 8.67157 4 9.5C4 9.73284 4.05305 9.95328 4.14772 10.1499L1.83721 13.0381C1.72882 13.0132 1.61595 13 1.5 13C0.671573 13 0 13.6716 0 14.5C0 15.3284 0.671573 16 1.5 16C2.32843 16 3 15.3284 3 14.5C3 14.2672 2.94697 14.0468 2.85232 13.8502L5.16289 10.962C5.27125 10.9869 5.38409 11 5.5 11C5.73287 11 5.95335 10.9469 6.15 10.8522L9.03808 13.1627C9.01316 13.2711 9 13.384 9 13.5C9 14.3284 9.67157 15 10.5 15C11.3284 15 12 14.3284 12 13.5C12 13.2208 11.9237 12.9594 11.7909 12.7356L14.2909 8.98554C14.3592 8.99507 14.429 9 14.5 9Z" fill="#474E5A"/>
<path d="M3.33539 3.11859C3.35899 3.04777 3.42527 3 3.49992 3C3.57456 3 3.64084 3.04777 3.66444 3.11859L3.96056 4.11512L4.87873 4.34466C4.95 4.36248 5 4.42651 5 4.49998C5 4.57344 4.95 4.63748 4.87873 4.65529L3.99589 4.87601C3.98734 4.90902 3.97764 4.94182 3.9668 4.97434L3.66444 5.88141C3.64084 5.95223 3.57456 6 3.49992 6C3.42527 6 3.35899 5.95223 3.33539 5.88141L3.03303 4.97434C3.02219 4.94181 3.01249 4.90899 3.00393 4.87596L2.12127 4.65529C2.05 4.63748 2 4.57344 2 4.49998C2 4.42651 2.05 4.36248 2.12127 4.34466L3.00395 4.12399L3.33539 3.11859Z" fill="#474E5A"/>
</svg>
