<svg width="16" height="16" viewBox="0 0 16 16" fill="none" xmlns="http://www.w3.org/2000/svg">
<path fill-rule="evenodd" clip-rule="evenodd" d="M13.519 7.50874C14.0062 7.02173 14.2495 6.38725 14.25 5.747C14.2505 5.1053 14.0073 4.46906 13.519 3.98098C13.0307 3.49289 12.394 3.24949 11.7514 3.25001C11.1102 3.25053 10.4751 3.49391 9.98787 3.98098C9.82317 4.14561 9.66216 4.30838 9.49724 4.47509C9.41363 4.55961 9.32901 4.64514 9.24241 4.73245L8.00004 5.98486L6.00989 3.97874C5.52292 3.49316 4.88878 3.25052 4.2486 3.25C3.60605 3.24948 2.96926 3.49288 2.48098 3.98097C1.99477 4.46698 1.75 5.10677 1.75 5.75C1.75 6.38872 1.99169 7.01964 2.48098 7.50873L8 13.0256L13.519 7.50874ZM8.00002 3.49998C8.08292 3.41641 8.16571 3.33272 8.2485 3.24903C8.41558 3.08014 8.58267 2.91124 8.75068 2.74329C8.81914 2.67486 8.88936 2.60926 8.96118 2.54647C9.7584 1.84964 10.7541 1.50081 11.75 1.50001C12.8379 1.49913 13.9261 1.91356 14.7562 2.74329C15.5863 3.57308 16.0009 4.66093 16 5.7485C15.9991 6.83363 15.5845 7.91849 14.7562 8.74642L8.70697 14.7933C8.51173 14.9885 8.25587 15.0861 8 15.0861C7.74414 15.0861 7.48828 14.9885 7.29304 14.7933L1.24379 8.74641C0.414596 7.91756 0 6.83635 0 5.75C0 4.66365 0.414595 3.57215 1.24379 2.74329C2.07386 1.91355 3.16207 1.49912 4.25001 1.5C5.24575 1.50081 6.24125 1.84951 7.0384 2.5461C7.11037 2.60899 7.18073 2.67472 7.24932 2.74329L8.00002 3.49998Z" fill="#474E5A"/>
</svg>
