<svg width="16" height="16" viewBox="0 0 16 16" fill="none" xmlns="http://www.w3.org/2000/svg">
<path d="M14.7562 8.74642C15.5845 7.91849 15.9991 6.83363 16 5.7485C16.0009 4.66093 15.5863 3.57308 14.7562 2.74329C13.9261 1.91356 12.8379 1.49913 11.75 1.50001C10.6644 1.50089 9.57899 1.91532 8.75068 2.74329C8.49941 2.99447 8.25022 3.24777 8 3.5L7.24932 2.74329C6.42101 1.91531 5.33565 1.50088 4.25001 1.5C3.16207 1.49912 2.07386 1.91355 1.24379 2.74329C0.414595 3.57215 -3.02417e-07 4.66365 0 5.75C3.02417e-07 6.83635 0.414596 7.91756 1.24379 8.74641L7.29304 14.7933C7.48828 14.9885 7.74414 15.0861 8 15.0861C8.25586 15.0861 8.51173 14.9885 8.70697 14.7933L14.7562 8.74642Z" fill="#474E5A"/>
</svg>
