<svg width="16" height="16" viewBox="0 0 16 16" fill="none" xmlns="http://www.w3.org/2000/svg">
<path fill-rule="evenodd" clip-rule="evenodd" d="M6.8864 4.92282C6.65369 5.17294 6.5 5.55331 6.5 6.04545C6.5 6.45967 6.16421 6.79545 5.75 6.79545C5.33579 6.79545 5 6.45967 5 6.04545C5 5.24215 5.2544 4.47479 5.78823 3.90105C6.32915 3.31968 7.09913 3 8 3C8.90087 3 9.67085 3.31968 10.2118 3.90105C10.7456 4.47479 11 5.24215 11 6.04545C11 7.27924 10.1311 7.96688 9.56438 8.37658C9.47014 8.4447 9.38575 8.5042 9.30937 8.55805C9.11953 8.69189 8.97916 8.79085 8.85995 8.90077C8.79024 8.96503 8.76105 9.00433 8.75 9.02233V9.5C8.75 9.91421 8.41421 10.25 8 10.25C7.58579 10.25 7.25 9.91421 7.25 9.5V9C7.25 8.43699 7.57587 8.04442 7.84318 7.79796C8.04139 7.61521 8.29958 7.43355 8.51465 7.28224C8.57594 7.23911 8.63372 7.19846 8.68562 7.16094C9.24387 6.75739 9.5 6.46776 9.5 6.04545C9.5 5.55331 9.34631 5.17294 9.1136 4.92282C8.88797 4.68032 8.53295 4.5 8 4.5C7.46705 4.5 7.11203 4.68032 6.8864 4.92282Z" fill="#474E5A"/>
<path d="M9 12C9 12.5514 8.5514 13 8 13C7.4486 13 7 12.5514 7 12C7 11.4486 7.4486 11 8 11C8.5514 11 9 11.4486 9 12Z" fill="#474E5A"/>
<path fill-rule="evenodd" clip-rule="evenodd" d="M8 14.5C11.5899 14.5 14.5 11.5899 14.5 8C14.5 4.41015 11.5899 1.5 8 1.5C4.41015 1.5 1.5 4.41015 1.5 8C1.5 9.02218 1.67899 9.60751 2.10262 10.3985C2.4189 10.989 2.51047 11.712 2.28063 12.4015L1.62171 14.3783L3.59848 13.7194C4.28801 13.4895 5.01103 13.5811 5.60154 13.8974C6.39249 14.321 6.97782 14.5 8 14.5ZM8 16C12.4183 16 16 12.4183 16 8C16 3.58172 12.4183 0 8 0C3.58172 0 0 3.58172 0 8C0 9.29031 0.250384 10.1172 0.780342 11.1067C0.915539 11.3591 0.948157 11.6555 0.857606 11.9272L0.0513167 14.3461C0.0173279 14.448 0 14.5548 0 14.6623V15C0 15.5523 0.447715 16 1 16H1.33772C1.4452 16 1.55198 15.9827 1.65395 15.9487L4.07282 15.1424C4.34447 15.0518 4.6409 15.0845 4.89332 15.2197C5.88278 15.7496 6.70969 16 8 16Z" fill="#474E5A"/>
</svg>
