<svg width="16" height="16" viewBox="0 0 16 16" fill="none" xmlns="http://www.w3.org/2000/svg">
<path d="M3.98717 5.53849L2.5434 5.05723C3.69723 2.54125 5.96605 1.5 7.99987 1.5C11.5858 1.5 14.5 4.41422 14.5 7.99999C14.4999 11.5858 11.5857 14.5 7.99987 14.5C4.87508 14.5 2.62696 12.5093 1.71147 9.76283C1.58049 9.36987 1.15575 9.1575 0.762788 9.28849C0.448485 9.39326 0.249711 9.68595 0.249756 10C0.249767 10.0786 0.262229 10.1585 0.288447 10.2372C1.37296 13.4907 4.12484 16 7.99987 16C12.4142 16 15.9999 12.4142 16 8.00001C16 3.58578 12.4142 0 7.99987 0C5.63618 0 3.00506 1.13867 1.5 3.804V1.75C1.5 1.33579 1.16421 1 0.75 1C0.335786 1 0 1.33579 0 1.75V5.25C0 5.57282 0.206573 5.85943 0.512829 5.96151L3.51283 6.96151C3.90579 7.0925 4.33053 6.88013 4.46151 6.48717C4.5925 6.09421 4.38013 5.66947 3.98717 5.53849Z" fill="#474E5A"/>
<path d="M8.5 4.25C8.5 3.83579 8.16421 3.5 7.75 3.5C7.33579 3.5 7 3.83579 7 4.25V8.75C7 9.06538 7.1973 9.34707 7.49369 9.45485L10.2437 10.4548C10.633 10.5964 11.0633 10.3956 11.2048 10.0063C11.3464 9.61703 11.1456 9.18671 10.7563 9.04515L8.5 8.22468V4.25Z" fill="#474E5A"/>
</svg>
