<svg width="16" height="16" viewBox="0 0 16 16" fill="none" xmlns="http://www.w3.org/2000/svg">
<path d="M2.75 0C1.23122 0 0 1.23122 0 2.75V5.25C0 5.66421 0.335786 6 0.75 6C1.16421 6 1.5 5.66421 1.5 5.25V2.75C1.5 2.05964 2.05964 1.5 2.75 1.5H5.25C5.66421 1.5 6 1.16421 6 0.75C6 0.335786 5.66421 0 5.25 0H2.75Z" fill="#474E5A"/>
<path d="M10.75 0C10.3358 0 10 0.335786 10 0.75C10 1.16421 10.3358 1.5 10.75 1.5H13.25C13.9404 1.5 14.5 2.05964 14.5 2.75V5.25C14.5 5.66421 14.8358 6 15.25 6C15.6642 6 16 5.66421 16 5.25V2.75C16 1.23122 14.7688 0 13.25 0H10.75Z" fill="#474E5A"/>
<path d="M0.75 10C1.16421 10 1.5 10.3358 1.5 10.75V13.25C1.5 13.8665 1.94624 14.3787 2.53332 14.4813C2.78765 12.5172 4.46664 11 6.5 11H9.5C11.5334 11 13.2124 12.5172 13.4667 14.4813C14.0538 14.3787 14.5 13.8665 14.5 13.25V10.75C14.5 10.3358 14.8358 10 15.25 10C15.6642 10 16 10.3358 16 10.75V13.25C16 14.7688 14.7688 16 13.25 16H10.75C10.3358 16 10 15.6642 10 15.25C10 14.8358 10.3358 14.5 10.75 14.5H11.95C11.7184 13.3589 10.7095 12.5 9.5 12.5H6.5C5.29052 12.5 4.28164 13.3589 4.05001 14.5H5.25C5.66421 14.5 6 14.8358 6 15.25C6 15.6642 5.66421 16 5.25 16H2.75C1.23122 16 0 14.7688 0 13.25V10.75C0 10.3358 0.335786 10 0.75 10Z" fill="#474E5A"/>
<path fill-rule="evenodd" clip-rule="evenodd" d="M6.19439 3.79773C6.72884 3.44062 7.3572 3.25 7.99999 3.25C8.86195 3.25 9.6886 3.59241 10.2981 4.2019C10.9076 4.81139 11.25 5.63804 11.25 6.5C11.25 7.14279 11.0594 7.77114 10.7023 8.3056C10.3452 8.84003 9.83762 9.25662 9.24373 9.50261C8.64987 9.7486 7.99639 9.81295 7.36596 9.68755C6.73551 9.56215 6.15641 9.25261 5.70189 8.79809C5.24736 8.34356 4.93785 7.76445 4.81245 7.13403C4.68705 6.5036 4.7514 5.85014 4.99739 5.25628C5.24337 4.66243 5.65992 4.15485 6.19439 3.79773ZM7.99999 4.75C7.65388 4.75 7.31553 4.85264 7.02774 5.04493C6.73996 5.23722 6.51567 5.51053 6.38321 5.83031C6.25076 6.15007 6.2161 6.50192 6.28363 6.84139C6.35116 7.18088 6.51782 7.4927 6.76255 7.73743C7.0073 7.98217 7.31913 8.14885 7.65859 8.21637C7.99807 8.2839 8.34995 8.24924 8.66971 8.11679C8.98946 7.98435 9.26276 7.76005 9.45507 7.47224C9.64736 7.18445 9.75 6.84611 9.75 6.5C9.75 6.03587 9.56563 5.59075 9.23744 5.26256C8.90924 4.93438 8.46412 4.75 7.99999 4.75Z" fill="#474E5A"/>
</svg>
