<svg width="16" height="16" viewBox="0 0 16 16" fill="none" xmlns="http://www.w3.org/2000/svg">
<path d="M8.75 3.25C8.75 2.55964 9.30964 2 10 2H13C13.4142 2 13.75 1.66421 13.75 1.25C13.75 0.835786 13.4142 0.5 13 0.5H10C8.48122 0.5 7.25 1.73122 7.25 3.25V9.43935L5.03032 7.21967C4.73743 6.92678 4.26255 6.92678 3.96966 7.21967C3.67677 7.51256 3.67677 7.98744 3.96966 8.28033L7.5052 11.8159C7.79809 12.1088 8.27296 12.1088 8.56586 11.8159L12.1014 8.28033C12.3943 7.98744 12.3943 7.51256 12.1014 7.21967C11.8085 6.92678 11.3336 6.92678 11.0407 7.21967L8.75 9.5104V3.25Z" fill="#474E5A"/>
<path d="M1.25 11C1.66421 11 2 11.3358 2 11.75V14H14V11.75C14 11.3358 14.3358 11 14.75 11C15.1642 11 15.5 11.3358 15.5 11.75V14.75C15.5 15.1642 15.1642 15.5 14.75 15.5H1.25C0.835786 15.5 0.5 15.1642 0.5 14.75V11.75C0.5 11.3358 0.835786 11 1.25 11Z" fill="#474E5A"/>
</svg>
