<svg width="16" height="16" viewBox="0 0 16 16" fill="none" xmlns="http://www.w3.org/2000/svg">
<path d="M13.75 0.75C13.75 0.335786 13.4142 0 13 0C12.5858 0 12.25 0.335786 12.25 0.75V2.25H10.75C10.3358 2.25 10 2.58579 10 3C10 3.41421 10.3358 3.75 10.75 3.75H12.25V5.25C12.25 5.66421 12.5858 6 13 6C13.4142 6 13.75 5.66421 13.75 5.25V3.75H15.25C15.6642 3.75 16 3.41421 16 3C16 2.58579 15.6642 2.25 15.25 2.25H13.75V0.75Z" fill="#474E5A"/>
<path fill-rule="evenodd" clip-rule="evenodd" d="M2.5 15H9.5C10.6046 15 11.5 14.1046 11.5 13C11.5 10.7909 9.70914 9 7.5 9H4.5C2.29086 9 0.5 10.7909 0.5 13C0.5 14.1046 1.39543 15 2.5 15ZM2 13C2 13.2761 2.22386 13.5 2.5 13.5H9.5C9.77614 13.5 10 13.2761 10 13C10 11.6193 8.88071 10.5 7.5 10.5H4.5C3.11929 10.5 2 11.6193 2 13Z" fill="#474E5A"/>
<path fill-rule="evenodd" clip-rule="evenodd" d="M9 5.5C9 7.15685 7.65685 8.5 6 8.5C4.34315 8.5 3 7.15685 3 5.5C3 3.84315 4.34315 2.5 6 2.5C7.65685 2.5 9 3.84315 9 5.5ZM7.5 5.5C7.5 6.32843 6.82843 7 6 7C5.17157 7 4.5 6.32843 4.5 5.5C4.5 4.67157 5.17157 4 6 4C6.82843 4 7.5 4.67157 7.5 5.5Z" fill="#474E5A"/>
</svg>
