<svg width="16" height="16" viewBox="0 0 16 16" fill="none" xmlns="http://www.w3.org/2000/svg">
<path fill-rule="evenodd" clip-rule="evenodd" d="M4 7.75C3.86193 7.75 3.75 7.86193 3.75 8V14.25C3.75 14.3881 3.86193 14.5 4 14.5H12C12.1381 14.5 12.25 14.3881 12.25 14.25V8C12.25 7.86193 12.1381 7.75 12 7.75H11C10.5858 7.75 10.25 7.41421 10.25 7C10.25 6.58579 10.5858 6.25 11 6.25H12C12.9665 6.25 13.75 7.0335 13.75 8V14.25C13.75 15.2165 12.9665 16 12 16H4C3.0335 16 2.25 15.2165 2.25 14.25V8C2.25 7.0335 3.0335 6.25 4 6.25H5C5.41421 6.25 5.75 6.58579 5.75 7C5.75 7.41421 5.41421 7.75 5 7.75H4Z" fill="#474E5A"/>
<path d="M8.5068 0.197134C8.22006 -0.0657115 7.77995 -0.0657115 7.49321 0.197134L4.49321 2.94713C4.18787 3.22703 4.16724 3.70145 4.44714 4.00679C4.72703 4.31213 5.20146 4.33276 5.5068 4.05287L7.25 2.45493V10.5C7.25 10.9142 7.58579 11.25 8 11.25C8.41421 11.25 8.75 10.9142 8.75 10.5V2.45492L10.4932 4.05287C10.7985 4.33276 11.273 4.31213 11.5529 4.00679C11.8328 3.70145 11.8121 3.22703 11.5068 2.94713L8.5068 0.197134Z" fill="#474E5A"/>
</svg>
