<svg width="16" height="16" viewBox="0 0 16 16" fill="none" xmlns="http://www.w3.org/2000/svg">
<path fill-rule="evenodd" clip-rule="evenodd" d="M1 12.6409C1 12.2241 1.13025 11.8177 1.37253 11.4785L5.5 5.7V1.5H5.24512C4.8309 1.5 4.49512 1.16421 4.49512 0.75C4.49512 0.335786 4.8309 0 5.24512 0H10.7496C11.1638 0 11.4996 0.335786 11.4996 0.75C11.4996 1.16421 11.1638 1.5 10.7496 1.5H10.5V5.7L14.6275 11.4785C14.8698 11.8177 15 12.2241 15 12.6409V13C15 14.6569 13.6569 16 12 16H4C2.34315 16 1 14.6569 1 13V12.6409ZM9 1.5H7V5.7C7 6.01263 6.90232 6.31746 6.7206 6.57186L5.7005 8H7.88C8.22518 8 8.505 8.27982 8.505 8.625C8.505 8.97018 8.22518 9.25 7.88 9.25H4.80764L3.55764 11H7.38C7.72518 11 8.005 11.2798 8.005 11.625C8.005 11.9702 7.72518 12.25 7.38 12.25H2.66478L2.59313 12.3503C2.53256 12.4351 2.5 12.5367 2.5 12.6409V13C2.5 13.8284 3.17157 14.5 4 14.5H12C12.8284 14.5 13.5 13.8284 13.5 13V12.6409C13.5 12.5367 13.4674 12.4351 13.4069 12.3503L9.2794 6.57186C9.09768 6.31746 9 6.01263 9 5.7V1.5Z" fill="#474E5A"/>
</svg>
