<svg width="16" height="16" viewBox="0 0 16 16" fill="none" xmlns="http://www.w3.org/2000/svg">
<path fill-rule="evenodd" clip-rule="evenodd" d="M8.71344 0.280964C9.04385 0.37905 9.26488 0.689702 9.24923 1.03401L9.03487 5.74995H11.6258C12.5926 5.74995 13.1934 6.80044 12.7032 7.63373L8.14645 15.3802C8.0091 15.6137 7.76054 15.75 7.5 15.75C7.42908 15.75 7.35726 15.7399 7.28656 15.7189C6.95615 15.6209 6.73513 15.3102 6.75078 14.9659L6.96514 10.25H4.37421C3.40744 10.25 2.80662 9.19947 3.29679 8.36618L7.85355 0.619687C7.99091 0.386179 8.23946 0.249883 8.5 0.249878C8.57093 0.249877 8.64274 0.259976 8.71344 0.280964ZM4.81132 8.74995H7.75C7.95482 8.74995 8.15074 8.83372 8.29224 8.9818C8.43374 9.12988 8.50853 9.3294 8.49923 9.53401L8.38652 12.0136L11.1887 7.24995H8.25C8.04518 7.24995 7.84927 7.16618 7.70777 7.0181C7.56626 6.87002 7.49148 6.67051 7.50078 6.4659L7.61349 3.98626L4.81132 8.74995Z" fill="#474E5A"/>
</svg>
