<svg width="16" height="16" viewBox="0 0 16 16" fill="none" xmlns="http://www.w3.org/2000/svg">
<path d="M5 13.25C5 12.8358 5.33579 12.5 5.75 12.5H10.25C10.6642 12.5 11 12.8358 11 13.25C11 13.6642 10.6642 14 10.25 14H5.75C5.33579 14 5 13.6642 5 13.25Z" fill="#474E5A"/>
<path d="M6 14.5H10V15C10 15.5523 9.55228 16 9 16H7C6.44772 16 6 15.5523 6 15V14.5Z" fill="#474E5A"/>
<path fill-rule="evenodd" clip-rule="evenodd" d="M11.0491 8.01429C11.644 7.32262 12 6.43089 12 5.45455C12 3.28222 10.2209 1.5 8 1.5C5.7791 1.5 4 3.28222 4 5.45455C4 6.43089 4.35603 7.32262 4.95091 8.01429C5.47197 8.62013 6.01723 9.46714 6.1626 10.5H9.8374C9.98277 9.46714 10.528 8.62013 11.0491 8.01429ZM12.1863 8.99239C11.6882 9.5716 11.3 10.2687 11.3 11.0327C11.3 11.5669 10.8669 12 10.3327 12H5.66733C5.13309 12 4.7 11.5669 4.7 11.0327C4.7 10.2687 4.31183 9.5716 3.81367 8.99239C2.99451 8.03995 2.5 6.80452 2.5 5.45455C2.5 2.44208 4.96243 0 8 0C11.0376 0 13.5 2.44208 13.5 5.45455C13.5 6.80452 13.0055 8.03995 12.1863 8.99239Z" fill="#474E5A"/>
<path fill-rule="evenodd" clip-rule="evenodd" d="M8.125 4.25C7.36561 4.25 6.75 4.86561 6.75 5.625C6.75 5.97018 6.47018 6.25 6.125 6.25C5.77982 6.25 5.5 5.97018 5.5 5.625C5.5 4.17525 6.67525 3 8.125 3C8.47018 3 8.75 3.27982 8.75 3.625C8.75 3.97018 8.47018 4.25 8.125 4.25Z" fill="#474E5A"/>
</svg>
