<svg width="16" height="16" viewBox="0 0 16 16" fill="none" xmlns="http://www.w3.org/2000/svg">
<path d="M12.7068 7.09099C13.7555 6.04227 13.7555 4.34196 12.7068 3.29324C11.658 2.24452 9.95773 2.24452 8.90901 3.29324L7.7627 4.43955C7.4685 4.73376 6.9915 4.73376 6.6973 4.43955C6.4031 4.14535 6.4031 3.66836 6.6973 3.37415L7.84361 2.22784C9.48074 0.590719 12.135 0.590719 13.7722 2.22784C15.4093 3.86496 15.4093 6.51926 13.7722 8.15639L12.6258 9.3027C12.3316 9.5969 11.8546 9.5969 11.5604 9.3027C11.2662 9.0085 11.2662 8.5315 11.5604 8.2373L12.7068 7.09099Z" fill="#474E5A"/>
<path d="M5.25917 10.7591C4.96497 10.4649 4.96497 9.98786 5.25917 9.69366L9.69376 5.25908C9.98796 4.96487 10.465 4.96487 10.7592 5.25908C11.0534 5.55328 11.0534 6.03027 10.7592 6.32448L6.32457 10.7591C6.03037 11.0533 5.55338 11.0533 5.25917 10.7591Z" fill="#474E5A"/>
<path d="M3.29324 12.7067C2.24452 11.658 2.24452 9.95764 3.29324 8.90893L4.43955 7.76261C4.73376 7.46841 4.73376 6.99141 4.43955 6.69721C4.14535 6.40301 3.66836 6.40301 3.37415 6.69721L2.22784 7.84352C0.590719 9.48065 0.59072 12.1349 2.22784 13.7721C3.86496 15.4092 6.51926 15.4092 8.15639 13.7721L9.3027 12.6258C9.5969 12.3316 9.5969 11.8546 9.3027 11.5604C9.0085 11.2662 8.5315 11.2662 8.2373 11.5604L7.09099 12.7067C6.04227 13.7554 4.34196 13.7554 3.29324 12.7067Z" fill="#474E5A"/>
</svg>
