<svg width="16" height="16" viewBox="0 0 16 16" fill="none" xmlns="http://www.w3.org/2000/svg">
<path fill-rule="evenodd" clip-rule="evenodd" d="M0 2C0 0.89543 0.895431 0 2 0H14C15.1046 0 16 0.895431 16 2V5C16 6.10457 15.1046 7 14 7H2C0.895431 7 0 6.10457 0 5V2ZM2 1.5H14C14.2761 1.5 14.5 1.72386 14.5 2V5C14.5 5.27614 14.2761 5.5 14 5.5H2C1.72386 5.5 1.5 5.27614 1.5 5V2C1.5 1.72386 1.72386 1.5 2 1.5Z" fill="#474E5A"/>
<path fill-rule="evenodd" clip-rule="evenodd" d="M0 11C0 9.89543 0.895431 9 2 9H14C15.1046 9 16 9.89543 16 11V14C16 15.1046 15.1046 16 14 16H2C0.895431 16 0 15.1046 0 14V11ZM2 10.5H14C14.2761 10.5 14.5 10.7239 14.5 11V14C14.5 14.2761 14.2761 14.5 14 14.5H2C1.72386 14.5 1.5 14.2761 1.5 14V11C1.5 10.7239 1.72386 10.5 2 10.5Z" fill="#474E5A"/>
</svg>
