<svg width="16" height="16" viewBox="0 0 16 16" fill="none" xmlns="http://www.w3.org/2000/svg">
<path fill-rule="evenodd" clip-rule="evenodd" d="M10.9901 10.9731C12.2039 9.34667 13 7.72459 13 6.39216C13 3.72269 10.7346 1.5 7.99998 1.5C5.26535 1.5 3 3.72268 3 6.39216C3 7.7246 3.79609 9.34667 5.00987 10.9731C6.02293 12.3305 7.19043 13.5127 7.99998 14.2793C8.80953 13.5127 9.97704 12.3305 10.9901 10.9731ZM8.65971 15.7154C10.2927 14.2123 14.5 10.0725 14.5 6.39216C14.5 2.86187 11.5303 0 7.99998 0C4.46968 0 1.5 2.86187 1.5 6.39216C1.5 10.0725 5.70723 14.2123 7.34024 15.7154C7.52903 15.8892 7.7645 16 7.99997 16C8.23544 16 8.47092 15.8892 8.65971 15.7154Z" fill="#474E5A"/>
<path fill-rule="evenodd" clip-rule="evenodd" d="M8.00003 8C8.82846 8 9.50003 7.32843 9.50003 6.5C9.50003 5.67157 8.82846 5 8.00003 5C7.1716 5 6.50003 5.67157 6.50003 6.5C6.50003 7.32843 7.1716 8 8.00003 8ZM8.00003 9.5C9.65689 9.5 11 8.15685 11 6.5C11 4.84315 9.65689 3.5 8.00003 3.5C6.34318 3.5 5.00003 4.84315 5.00003 6.5C5.00003 8.15685 6.34318 9.5 8.00003 9.5Z" fill="#474E5A"/>
</svg>
