<svg width="16" height="16" viewBox="0 0 16 16" fill="none" xmlns="http://www.w3.org/2000/svg">
<path fill-rule="evenodd" clip-rule="evenodd" d="M0.5 3.125C0.5 2.64175 0.891751 2.25 1.375 2.25H14.625C15.1082 2.25 15.5 2.64175 15.5 3.125C15.5 3.60825 15.1082 4 14.625 4H1.375C0.891751 4 0.5 3.60825 0.5 3.125Z" fill="#474E5A"/>
<path fill-rule="evenodd" clip-rule="evenodd" d="M0.5 8.00098C0.5 7.51773 0.891751 7.12598 1.375 7.12598H14.625C15.1082 7.12598 15.5 7.51773 15.5 8.00098C15.5 8.48423 15.1082 8.87598 14.625 8.87598H1.375C0.891751 8.87598 0.5 8.48423 0.5 8.00098Z" fill="#474E5A"/>
<path fill-rule="evenodd" clip-rule="evenodd" d="M0.5 12.875C0.5 12.3918 0.891751 12 1.375 12H14.625C15.1082 12 15.5 12.3918 15.5 12.875C15.5 13.3582 15.1082 13.75 14.625 13.75H1.375C0.891751 13.75 0.5 13.3582 0.5 12.875Z" fill="#474E5A"/>
</svg>
