<svg width="16" height="16" viewBox="0 0 16 16" fill="none" xmlns="http://www.w3.org/2000/svg">
<path fill-rule="evenodd" clip-rule="evenodd" d="M4 3.75V2.5C4 1.67157 4.67157 1 5.5 1H14.5C15.3284 1 16 1.67157 16 2.5V9.5C16 10.3284 15.3284 11 14.5 11H13.5V12.75C13.5 13.9926 12.4926 15 11.25 15H2.25C1.00736 15 0 13.9926 0 12.75V6C0 4.75736 1.00736 3.75 2.25 3.75H4ZM5.5 2.5H14.5V9.5L5.5 9.5V2.5ZM12 11H5.5C4.67157 11 4 10.3284 4 9.5V5.25H2.25C1.83579 5.25 1.5 5.58579 1.5 6V12.75C1.5 13.1642 1.83579 13.5 2.25 13.5H11.25C11.6642 13.5 12 13.1642 12 12.75V11Z" fill="#474E5A"/>
<path d="M11.806 5.53356C12.0647 5.67869 12.0647 6.04633 11.806 6.20114L9.58706 7.44927C9.32836 7.5944 9 7.41058 9 7.12031V4.63372C9 4.34346 9.32836 4.14995 9.58706 4.30476L11.806 5.53356Z" fill="#474E5A"/>
</svg>
