<svg width="16" height="16" viewBox="0 0 16 16" fill="none" xmlns="http://www.w3.org/2000/svg">
<path fill-rule="evenodd" clip-rule="evenodd" d="M1.75 1.5C0.783502 1.5 0 2.2835 0 3.25V10.25C0 11.2165 0.783502 12 1.75 12H6.75C7.16421 12 7.5 11.6642 7.5 11.25C7.5 10.8358 7.16421 10.5 6.75 10.5H1.75C1.61193 10.5 1.5 10.3881 1.5 10.25V6.00977H13.75C14.1642 6.00977 14.5 5.67398 14.5 5.25977C14.5 4.58984 14.5 3.91992 14.5 3.25C14.5 2.2835 13.7165 1.5 12.75 1.5H1.75ZM13 4.50977V3.25C13 3.11193 12.8881 3 12.75 3H1.75C1.61193 3 1.5 3.11193 1.5 3.25V4.50977H13Z" fill="#474E5A"/>
<path d="M13.1898 7.23022C13.4769 6.93161 13.9516 6.92226 14.2502 7.20933C15.4068 8.32116 15.9969 9.65228 16 11.1548L16 11.1579C15.9969 12.6649 15.458 14.1296 14.2502 15.2907C13.9516 15.5777 13.4769 15.5684 13.1898 15.2698C12.9027 14.9712 12.9121 14.4964 13.2107 14.2093C14.1011 13.3533 14.4973 12.2897 14.5 11.1564C14.4974 10.0907 14.0952 9.14096 13.2107 8.29068C12.9121 8.00361 12.9027 7.52883 13.1898 7.23022Z" fill="#474E5A"/>
<path d="M12.2302 8.53886C11.9312 8.25211 11.4565 8.26196 11.1697 8.56086C10.883 8.85977 10.8928 9.33454 11.1917 9.6213C12.1153 10.5074 12.1119 11.9235 11.194 12.7967C10.8939 13.0821 10.882 13.5569 11.1675 13.857C11.453 14.1571 11.9277 14.169 12.2278 13.8835C13.77 12.4166 13.7666 10.0128 12.2302 8.53886Z" fill="#474E5A"/>
<path d="M10.1131 10.0027C9.81628 9.71372 9.34145 9.72005 9.05249 10.0168C8.76353 10.3136 8.76986 10.7884 9.06663 11.0774C9.15379 11.1623 9.15379 11.2478 9.06663 11.3327C8.76986 11.6216 8.76353 12.0965 9.05249 12.3933C9.34145 12.69 9.81628 12.6964 10.1131 12.4074C10.7954 11.743 10.7954 10.6671 10.1131 10.0027Z" fill="#474E5A"/>
<path d="M2.32031 8.79004C2.32031 8.37583 2.6561 8.04004 3.07031 8.04004H4.75031C5.16453 8.04004 5.50031 8.37583 5.50031 8.79004C5.50031 9.20425 5.16453 9.54004 4.75031 9.54004H3.07031C2.6561 9.54004 2.32031 9.20425 2.32031 8.79004Z" fill="#474E5A"/>
</svg>
