<svg width="16" height="16" viewBox="0 0 16 16" fill="none" xmlns="http://www.w3.org/2000/svg">
<path d="M8 9.25C8.69036 9.25 9.25 8.69036 9.25 8C9.25 7.30964 8.69036 6.75 8 6.75C7.30964 6.75 6.75 7.30964 6.75 8C6.75 8.69036 7.30964 9.25 8 9.25Z" fill="#474E5A"/>
<path d="M11.5 9.25C12.1904 9.25 12.75 8.69036 12.75 8C12.75 7.30964 12.1904 6.75 11.5 6.75C10.8096 6.75 10.25 7.30964 10.25 8C10.25 8.69036 10.8096 9.25 11.5 9.25Z" fill="#474E5A"/>
<path d="M4.5 9.25C5.19036 9.25 5.75 8.69036 5.75 8C5.75 7.30964 5.19036 6.75 4.5 6.75C3.80964 6.75 3.25 7.30964 3.25 8C3.25 8.69036 3.80964 9.25 4.5 9.25Z" fill="#474E5A"/>
<path fill-rule="evenodd" clip-rule="evenodd" d="M8 14.5C11.5903 14.5 14.5 11.5903 14.5 7.99999C14.5 4.40834 11.6 1.5 8 1.5C4.4097 1.5 1.5 4.40969 1.5 7.99999C1.5 11.5903 4.4097 14.5 8 14.5ZM8 16C12.4187 16 16 12.4187 16 7.99999C16 3.58126 12.4297 0 8 0C3.58127 0 0 3.58126 0 7.99999C0 12.4187 3.58127 16 8 16Z" fill="#474E5A"/>
</svg>
