<svg width="16" height="16" viewBox="0 0 16 16" fill="none" xmlns="http://www.w3.org/2000/svg">
<path fill-rule="evenodd" clip-rule="evenodd" d="M5 5.5H4C2.34315 5.5 1 6.84315 1 8.5V14C1 15.1046 1.89543 16 3 16H8C9.10457 16 10 15.1046 10 14V12.5H13C14.1046 12.5 15 11.6046 15 10.5V2C15 0.895431 14.1046 0 13 0H8.62132C8.2235 0 7.84196 0.158035 7.56066 0.43934L5.43934 2.56066C5.15804 2.84196 5 3.2235 5 3.62132V5.5ZM13.5 10.5C13.5 10.7761 13.2761 11 13 11H7C6.72386 11 6.5 10.7761 6.5 10.5V8.75C6.5 8.33579 6.16421 8 5.75 8C5.33579 8 5 8.33579 5 8.75V10.5C5 11.6046 5.89543 12.5 7 12.5H8.5V14C8.5 14.2761 8.27614 14.5 8 14.5H3C2.72386 14.5 2.5 14.2761 2.5 14V8.5C2.5 7.67157 3.17157 7 4 7H10.364L9.15383 8.43011C8.92193 8.70415 8.9561 9.11429 9.23014 9.34618C9.50417 9.57807 9.91431 9.5439 10.1462 9.26987L12.3463 6.66992C12.5514 6.42756 12.5514 6.07252 12.3463 5.83017L10.1462 3.23014C9.91432 2.9561 9.50418 2.92193 9.23014 3.15382C8.9561 3.38571 8.92193 3.79584 9.15382 4.06988L10.364 5.5H6.5V3.62132L8.62132 1.5L13 1.5C13.2761 1.5 13.5 1.72386 13.5 2V10.5Z" fill="#474E5A"/>
</svg>
