<svg width="16" height="16" viewBox="0 0 16 16" fill="none" xmlns="http://www.w3.org/2000/svg">
<path fill-rule="evenodd" clip-rule="evenodd" d="M5.0051 13H2.79025C1.75877 13 1.00092 12.153 1 11.2109C0.999762 10.9652 1.05102 10.713 1.16235 10.4677L1.63929 9.41667C2.21442 8.1493 2.55644 6.78835 2.64889 5.39928L2.6762 4.98893C2.86305 2.18151 5.19099 0 8 0C10.809 0 13.1369 2.18151 13.3238 4.98893L13.3511 5.39928C13.4436 6.78835 13.7856 8.1493 14.3607 9.41667L14.8376 10.4677C14.949 10.713 15.0002 10.9652 15 11.2109C14.9991 12.153 14.2412 13 13.2097 13H10.9952C10.9952 14.6569 9.65428 16 8.00015 16C6.34603 16 5.0051 14.6569 5.0051 13ZM2.52565 11.0884L3.00259 10.0374C3.65229 8.60567 4.03866 7.06825 4.1431 5.49905L4.17041 5.0887C4.30482 3.06923 5.97938 1.5 8 1.5C10.0206 1.5 11.6952 3.06923 11.8296 5.0887L11.8569 5.49905C11.9613 7.06825 12.3477 8.60567 12.9974 10.0374L13.4744 11.0884C13.5618 11.2811 13.4211 11.5 13.2097 11.5H2.79025C2.57886 11.5 2.43817 11.2811 2.52565 11.0884ZM6.50263 13C6.50263 13.8284 7.17309 14.5 8.00015 14.5C8.82721 14.5 9.49768 13.8284 9.49768 13H6.50263Z" fill="#474E5A"/>
</svg>
