<svg width="16" height="16" viewBox="0 0 16 16" fill="none" xmlns="http://www.w3.org/2000/svg">
<path d="M8.75 11.2501C9.05361 11.022 9.25 10.659 9.25 10.25C9.25 9.55964 8.69036 9 8 9C7.30964 9 6.75 9.55964 6.75 10.25C6.75 10.659 6.94639 11.022 7.25 11.2501V12.25C7.25 12.6642 7.58579 13 8 13C8.41421 13 8.75 12.6642 8.75 12.25V11.2501Z" fill="#474E5A"/>
<path fill-rule="evenodd" clip-rule="evenodd" d="M5 4V6H13.5C14.0523 6 14.5 6.44772 14.5 7V13C14.5 14.6569 13.1569 16 11.5 16H4.5C2.84315 16 1.5 14.6569 1.5 13V7C1.5 6.44772 1.94772 6 2.5 6H3.5V4C3.5 1.79086 5.29086 0 7.5 0H8.5C10.7091 0 12.5 1.79086 12.5 4C12.5 4.41421 12.1642 4.75 11.75 4.75C11.3358 4.75 11 4.41421 11 4C11 2.61929 9.88071 1.5 8.5 1.5H7.5C6.11929 1.5 5 2.61929 5 4ZM3 7.5V13C3 13.8284 3.67157 14.5 4.5 14.5H11.5C12.3284 14.5 13 13.8284 13 13V7.5H3Z" fill="#474E5A"/>
</svg>
