<svg width="16" height="16" viewBox="0 0 16 16" fill="none" xmlns="http://www.w3.org/2000/svg">
<path fill-rule="evenodd" clip-rule="evenodd" d="M14.125 1C14.6082 1 15 1.39175 15 1.875V14.125C15 14.6082 14.6082 15 14.125 15C13.6418 15 13.25 14.6082 13.25 14.125V1.875C13.25 1.39175 13.6418 1 14.125 1Z" fill="#474E5A"/>
<path fill-rule="evenodd" clip-rule="evenodd" d="M7.22604 1.86689C7.57569 2.20047 7.58873 2.75433 7.25515 3.10399L3.41907 7.125H10.125C10.6082 7.125 11 7.51675 11 8C11 8.48325 10.6082 8.875 10.125 8.875H3.4866L7.24094 12.6315C7.58255 12.9733 7.5824 13.5273 7.24059 13.8689C6.89879 14.2105 6.34477 14.2103 6.00316 13.8685L0.756108 8.61854C0.58559 8.44793 0.500015 8.22406 0.5 8C0.499985 7.78272 0.580429 7.56526 0.741895 7.39601L5.98894 1.89601C6.32252 1.54636 6.87638 1.53332 7.22604 1.86689Z" fill="#474E5A"/>
</svg>
