<svg width="16" height="16" viewBox="0 0 16 16" fill="none" xmlns="http://www.w3.org/2000/svg">
<path fill-rule="evenodd" clip-rule="evenodd" d="M10 1.5C9.31848 1.5 8.75 2.06779 8.75 2.66132V11.0771C8.75 11.4913 8.41421 11.8271 8 11.8271C7.58579 11.8271 7.25 11.4913 7.25 11.0771V2.66132C7.25 1.1534 8.57872 0 10 0C11.4213 0 12.75 1.1534 12.75 2.66132V11.5074C12.75 14.0567 10.4103 16 8 16C5.48083 16 3.5 13.9909 3.5 11.5074V4.51259C3.5 4.09837 3.83579 3.76259 4.25 3.76259C4.66421 3.76259 5 4.09837 5 4.51259V11.5074C5 13.1668 6.31358 14.5 8 14.5C9.71519 14.5 11.25 13.101 11.25 11.5074V2.66132C11.25 2.06779 10.6815 1.5 10 1.5Z" fill="#474E5A"/>
</svg>
