<svg width="16" height="16" viewBox="0 0 16 16" fill="none" xmlns="http://www.w3.org/2000/svg">
<path fill-rule="evenodd" clip-rule="evenodd" d="M6.25 5.01025C6.66421 5.01025 7 5.34604 7 5.76025V10.2603C7 10.6745 6.66421 11.0103 6.25 11.0103C5.83579 11.0103 5.5 10.6745 5.5 10.2603V5.76025C5.5 5.34604 5.83579 5.01025 6.25 5.01025Z" fill="#474E5A"/>
<path fill-rule="evenodd" clip-rule="evenodd" d="M9.75 5.01025C10.1642 5.01025 10.5 5.34604 10.5 5.76025V10.2603C10.5 10.6745 10.1642 11.0103 9.75 11.0103C9.33579 11.0103 9 10.6745 9 10.2603V5.76025C9 5.34604 9.33579 5.01025 9.75 5.01025Z" fill="#474E5A"/>
<path fill-rule="evenodd" clip-rule="evenodd" d="M8 1.5C4.41015 1.5 1.5 4.41016 1.5 8.00002C1.5 11.5899 4.41015 14.5 8 14.5C11.5899 14.5 14.5 11.5899 14.5 8.00002C14.5 4.41016 11.5899 1.5 8 1.5ZM0 8.00002C0 3.58174 3.58172 0 8 0C12.4183 0 16 3.58174 16 8.00002C16 12.4183 12.4183 16 8 16C3.58173 16 0 12.4183 0 8.00002Z" fill="#474E5A"/>
</svg>
