<svg width="16" height="16" viewBox="0 0 16 16" fill="none" xmlns="http://www.w3.org/2000/svg">
<path fill-rule="evenodd" clip-rule="evenodd" d="M4.25 4.25005H8C8.41421 4.25005 8.75 3.91426 8.75 3.50005C8.75 3.08583 8.41421 2.75005 8 2.75005H4C3.30964 2.75005 2.75 3.30969 2.75 4.00005V11C2.75 11.6904 3.30964 12.25 4 12.25H14.5C15.1904 12.25 15.75 11.6904 15.75 11V8.00005C15.75 7.58583 15.4142 7.25005 15 7.25005C14.5858 7.25005 14.25 7.58583 14.25 8.00005V10.75H4.25V4.25005Z" fill="#474E5A"/>
<path fill-rule="evenodd" clip-rule="evenodd" d="M8.5 7.00005V8.00005C8.5 8.41426 8.83579 8.75005 9.25 8.75005C9.66421 8.75005 10 8.41426 10 8.00005V7.00005C10 6.58583 9.66421 6.25005 9.25 6.25005C8.83579 6.25005 8.5 6.58583 8.5 7.00005ZM7.25 7.00005V8.00005C7.25 9.10462 8.14543 10 9.25 10C10.3546 10 11.25 9.10462 11.25 8.00005V7.00005C11.25 5.89548 10.3546 5.00005 9.25 5.00005C8.14543 5.00005 7.25 5.89548 7.25 7.00005Z" fill="#474E5A"/>
<path fill-rule="evenodd" clip-rule="evenodd" d="M1 5.25005C1.41421 5.25005 1.75 5.58583 1.75 6.00005V12.5C1.75 12.9143 2.08579 13.25 2.5 13.25H12.5C12.9142 13.25 13.25 13.5858 13.25 14C13.25 14.4143 12.9142 14.75 12.5 14.75H2.5C1.25736 14.75 0.25 13.7427 0.25 12.5V6.00005C0.25 5.58583 0.585786 5.25005 1 5.25005Z" fill="#474E5A"/>
<path fill-rule="evenodd" clip-rule="evenodd" d="M11.505 4.49507C11.2316 4.2217 11.2316 3.77848 11.505 3.50512L13.3101 1.70008L11.4999 1.70005C11.1133 1.70004 10.7999 1.38664 10.7999 1.00004C10.7999 0.613437 11.1133 0.300042 11.4999 0.300049L15.0001 0.30011C15.1857 0.300114 15.3638 0.373868 15.495 0.505149C15.6263 0.636429 15.7001 0.814481 15.7001 1.00013L15.6999 4.50013C15.6999 4.88673 15.3865 5.20012 14.9999 5.20011C14.6133 5.2001 14.2999 4.88668 14.2999 4.50009L14.3 2.69007L12.4949 4.49509C12.2215 4.76845 11.7783 4.76845 11.505 4.49507Z" fill="#474E5A"/>
</svg>
