<svg width="16" height="16" viewBox="0 0 16 16" fill="none" xmlns="http://www.w3.org/2000/svg">
<path fill-rule="evenodd" clip-rule="evenodd" d="M8 8C10.2091 8 12 6.20914 12 4C12 1.79086 10.2091 0 8 0C5.79086 0 4 1.79086 4 4C4 6.20914 5.79086 8 8 8ZM8 6.5C9.38071 6.5 10.5 5.38071 10.5 4C10.5 2.61929 9.38071 1.5 8 1.5C6.61929 1.5 5.5 2.61929 5.5 4C5.5 5.38071 6.61929 6.5 8 6.5Z" fill="#474E5A"/>
<path fill-rule="evenodd" clip-rule="evenodd" d="M13.75 7.5C12.5074 7.5 11.5 8.50736 11.5 9.75C11.5 10.7297 12.1261 11.5631 13 11.872V15.25C13 15.6642 13.3358 16 13.75 16C14.1642 16 14.5 15.6642 14.5 15.25V15H15.25C15.6642 15 16 14.6642 16 14.25C16 13.8358 15.6642 13.5 15.25 13.5H14.5V11.872C15.3739 11.5631 16 10.7297 16 9.75C16 8.50736 14.9926 7.5 13.75 7.5ZM13 9.75C13 9.33579 13.3358 9 13.75 9C14.1642 9 14.5 9.33579 14.5 9.75C14.5 10.1642 14.1642 10.5 13.75 10.5C13.3358 10.5 13 10.1642 13 9.75Z" fill="#474E5A"/>
<path d="M0.5 14C0.5 11.2386 2.73858 9 5.5 9H9.25C9.66421 9 10 9.33579 10 9.75C10 10.1642 9.66421 10.5 9.25 10.5H5.5C3.567 10.5 2 12.067 2 14C2 14.2761 2.22386 14.5 2.5 14.5H10.75C11.1642 14.5 11.5 14.8358 11.5 15.25C11.5 15.6642 11.1642 16 10.75 16H2.5C1.39543 16 0.5 15.1046 0.5 14Z" fill="#474E5A"/>
</svg>
