<svg width="16" height="16" viewBox="0 0 16 16" fill="none" xmlns="http://www.w3.org/2000/svg">
<path fill-rule="evenodd" clip-rule="evenodd" d="M10 1.5H6C5.17157 1.5 4.5 2.17157 4.5 3V13C4.5 13.8284 5.17157 14.5 6 14.5H10C10.8284 14.5 11.5 13.8284 11.5 13V3C11.5 2.17157 10.8284 1.5 10 1.5ZM6 0C4.34315 0 3 1.34315 3 3V13C3 14.6569 4.34315 16 6 16H10C11.6569 16 13 14.6569 13 13V3C13 1.34315 11.6569 0 10 0H6Z" fill="#474E5A"/>
<path fill-rule="evenodd" clip-rule="evenodd" d="M5.5 12.5C5.5 12.1548 5.77982 11.875 6.125 11.875H9.875C10.2202 11.875 10.5 12.1548 10.5 12.5C10.5 12.8452 10.2202 13.125 9.875 13.125H6.125C5.77982 13.125 5.5 12.8452 5.5 12.5Z" fill="#474E5A"/>
</svg>
