<svg width="16" height="16" viewBox="0 0 16 16" fill="none" xmlns="http://www.w3.org/2000/svg">
<path fill-rule="evenodd" clip-rule="evenodd" d="M10.0443 0.00234402C9.73873 -0.0195147 9.48617 0.115095 9.32949 0.256444C9.15913 0.41013 9.00005 0.662497 9.00005 0.986404V6.00459C9.00005 6.55258 9.43961 7.0001 9.99428 7.0001H15.0058C15.5605 7.0001 16.0001 6.55258 16.0001 6.00459V5.98395L15.9989 5.96334C15.8217 2.74534 13.2539 0.184616 10.0443 0.00234402ZM10.5001 1.56105V5.5001H14.4401C14.0983 3.48573 12.5128 1.90368 10.5001 1.56105Z" fill="#474E5A"/>
<path fill-rule="evenodd" clip-rule="evenodd" d="M6.07884 3.2501C6.67988 3.2501 7.06728 3.75542 7.06728 4.26866V8.88986H11.7517C12.3058 8.88986 12.7501 9.3359 12.7501 9.88853V9.90538L12.7493 9.92222C12.5915 13.4313 9.57423 16.2019 5.98566 15.9886C2.80078 15.8072 0.229402 13.2147 0.0153865 10.0489C-0.2322 6.44 2.53991 3.43138 6.04026 3.25109L6.05954 3.2501H6.07884ZM5.56728 4.80872C3.15526 5.20955 1.33575 7.38148 1.51189 9.94656C1.67558 12.3703 3.65387 14.3537 6.0717 14.491L6.07381 14.4912C8.63729 14.644 10.8164 12.8089 11.1969 10.3899H6.81402C6.14051 10.3899 5.56728 9.84414 5.56728 9.14253V4.80872Z" fill="#474E5A"/>
</svg>
