<svg width="16" height="16" viewBox="0 0 16 16" fill="none" xmlns="http://www.w3.org/2000/svg">
<path d="M14.7867 2.78669L13.2132 1.21325C12.8244 0.824442 12.31 0.626038 11.793 0.627449C11.3818 0.628571 10.9689 0.756062 10.6163 1.01465L6.5192 4.0192L6.07969 3.57969C5.74262 3.24262 5.2145 3.19033 4.81788 3.45475L2.01494 5.32337C1.48988 5.67342 1.41631 6.41631 1.86253 6.86253L4.96967 9.96967L0.71967 14.2197C0.573223 14.3661 0.5 14.5581 0.5 14.75C0.5 14.9419 0.573223 15.1339 0.71967 15.2803C0.866117 15.4268 1.05806 15.5 1.25 15.5C1.44194 15.5 1.63388 15.4268 1.78033 15.2803L6.03033 11.0303L9.13747 14.1375C9.58369 14.5837 10.3266 14.5101 10.6766 13.9851L12.5453 11.1821C12.8097 10.7855 12.7574 10.2574 12.4203 9.92031L11.9807 9.48073L14.9853 5.38363C15.2431 5.03212 15.3706 4.62078 15.3725 4.21089C15.3749 3.69253 15.1765 3.17648 14.7867 2.78669Z" fill="#474E5A"/>
</svg>
