<svg width="16" height="16" viewBox="0 0 16 16" fill="none" xmlns="http://www.w3.org/2000/svg">
<path d="M5 8C5 8.82843 4.32843 9.5 3.5 9.5C2.67157 9.5 2 8.82843 2 8C2 7.17157 2.67157 6.5 3.5 6.5C4.32843 6.5 5 7.17157 5 8Z" fill="#474E5A"/>
<path fill-rule="evenodd" clip-rule="evenodd" d="M6.88128 3.38128C7.22299 3.03957 7.77701 3.03957 8.11872 3.38128C9.31994 4.58251 9.875 6.32633 9.875 8C9.875 9.67367 9.31994 11.4175 8.11872 12.6187C7.77701 12.9604 7.22299 12.9604 6.88128 12.6187C6.53957 12.277 6.53957 11.723 6.88128 11.3813C7.68005 10.5825 8.125 9.32633 8.125 8C8.125 6.67367 7.68005 5.41749 6.88128 4.61872C6.53957 4.27701 6.53957 3.72299 6.88128 3.38128Z" fill="#474E5A"/>
<path fill-rule="evenodd" clip-rule="evenodd" d="M10.3813 0.381282C10.5521 0.210427 10.7761 0.125 11 0.125C11.2239 0.125 11.4479 0.210427 11.6187 0.381282C13.5699 2.33251 14.5 5.20133 14.5 8C14.5 10.7987 13.5699 13.6675 11.6187 15.6187C11.4479 15.7896 11.2239 15.875 11 15.875C10.7761 15.875 10.5521 15.7896 10.3813 15.6187C10.0396 15.277 10.0396 14.723 10.3813 14.3813C11.9301 12.8325 12.75 10.4513 12.75 8C12.75 5.54867 11.9301 3.16749 10.3813 1.61872C10.0396 1.27701 10.0396 0.72299 10.3813 0.381282Z" fill="#474E5A"/>
</svg>
