<svg width="16" height="16" viewBox="0 0 16 16" fill="none" xmlns="http://www.w3.org/2000/svg">
<path fill-rule="evenodd" clip-rule="evenodd" d="M3.17743 1.91348C2.99342 1.80629 2.75 1.94189 2.75 2.16476V13.8365C2.75 14.0553 2.99727 14.191 3.17572 14.0888L13.1109 8.2085C13.29 8.10417 13.29 7.88777 13.1109 7.78343C9.78825 5.84786 6.48861 3.87223 3.17898 1.91442L3.17743 1.91348ZM4.06341 0.404321C3.73901 0.215348 3.393 0.12804 3.05464 0.126478C1.98937 0.121561 1 0.966587 1 2.16476V13.8365C1 15.0236 1.98502 15.8789 3.0508 15.8766C3.3881 15.8758 3.73349 15.7892 4.0583 15.6L13.9947 9.71894C14.6649 9.32717 15 8.66157 15 7.99598C15 7.32941 14.6639 6.66284 13.9918 6.27129C10.6704 4.33644 7.37178 2.36144 4.06341 0.404321Z" fill="#474E5A"/>
</svg>
