<svg width="16" height="16" viewBox="0 0 16 16" fill="none" xmlns="http://www.w3.org/2000/svg">
<path fill-rule="evenodd" clip-rule="evenodd" d="M8 14.25C11.4522 14.25 14.25 11.4522 14.25 7.99999C14.25 4.54619 11.4617 1.75 8 1.75C4.54777 1.75 1.75 4.54776 1.75 7.99999C1.75 11.4522 4.54777 14.25 8 14.25ZM8 16C12.4187 16 16 12.4187 16 7.99999C16 3.58126 12.4297 0 8 0C3.58127 0 0 3.58126 0 7.99999C0 12.4187 3.58127 16 8 16Z" fill="#474E5A"/>
<path d="M10.8172 7.65883C10.9391 7.74418 11.0001 7.87222 11 8.00023C10.9999 8.12809 10.939 8.25591 10.8172 8.34115L7.24152 10.9093C6.93677 11.1273 6.5 10.9283 6.5 10.5682V5.43184C6.5 5.07172 6.93677 4.87272 7.24152 5.09068L10.8172 7.65883Z" fill="#474E5A"/>
</svg>
