<svg width="16" height="16" viewBox="0 0 16 16" fill="none" xmlns="http://www.w3.org/2000/svg">
<path d="M10.75 0C10.3358 0 10 0.335786 10 0.75C10 1.16421 10.3358 1.5 10.75 1.5L13.25 1.5C13.9404 1.5 14.5 2.05965 14.5 2.75V5.25C14.5 5.66421 14.8358 6 15.25 6C15.6642 6 16 5.66421 16 5.25V2.75C16 1.23122 14.7688 2.5034e-06 13.25 0H10.75Z" fill="#474E5A"/>
<path d="M4.5 4C4.22386 4 4 4.22386 4 4.5V6C4 6.27614 4.22386 6.5 4.5 6.5H6C6.27614 6.5 6.5 6.27614 6.5 6V4.5C6.5 4.22386 6.27614 4 6 4H4.5Z" fill="#474E5A"/>
<path d="M4.5 9.5C4.22386 9.5 4 9.72386 4 10V11.5C4 11.7761 4.22386 12 4.5 12H6C6.27614 12 6.5 11.7761 6.5 11.5V10C6.5 9.72386 6.27614 9.5 6 9.5H4.5Z" fill="#474E5A"/>
<path d="M9.5 4.5C9.5 4.22386 9.72386 4 10 4H11.5C11.7761 4 12 4.22386 12 4.5V6C12 6.27614 11.7761 6.5 11.5 6.5H10C9.72386 6.5 9.5 6.27614 9.5 6V4.5Z" fill="#474E5A"/>
<path d="M10 9.5C9.72386 9.5 9.5 9.72386 9.5 10V11.5C9.5 11.7761 9.72386 12 10 12H11.5C11.7761 12 12 11.7761 12 11.5V10C12 9.72386 11.7761 9.5 11.5 9.5H10Z" fill="#474E5A"/>
<path d="M6.75 7.25C6.75 6.97386 6.97386 6.75 7.25 6.75H8.75C9.02614 6.75 9.25 6.97386 9.25 7.25V8.75C9.25 9.02614 9.02614 9.25 8.75 9.25H7.25C6.97386 9.25 6.75 9.02614 6.75 8.75V7.25Z" fill="#474E5A"/>
<path d="M10.75 16L13.25 16C14.7688 16 16 14.7688 16 13.25V10.75C16 10.3358 15.6642 10 15.25 10C14.8358 10 14.5 10.3358 14.5 10.75V13.25C14.5 13.9404 13.9404 14.5 13.25 14.5L10.75 14.5C10.3358 14.5 10 14.8358 10 15.25C10 15.6642 10.3358 16 10.75 16Z" fill="#474E5A"/>
<path d="M0.75 10C1.16421 10 1.5 10.3358 1.5 10.75L1.5 13.25C1.5 13.9404 2.05964 14.5 2.75 14.5L5.25 14.5C5.66421 14.5 6 14.8358 6 15.25C6 15.6642 5.66421 16 5.25 16L2.75 16C1.23122 16 0 14.7688 0 13.25V10.75C0 10.3358 0.335786 10 0.75 10Z" fill="#474E5A"/>
<path d="M5.25 0H2.75C1.23122 2.563e-06 0 1.23122 0 2.75V5.25C0 5.66421 0.335786 6 0.75 6C1.16421 6 1.5 5.66421 1.5 5.25V2.75C1.5 2.05965 2.05964 1.5 2.75 1.5L5.25 1.5C5.66421 1.5 6 1.16421 6 0.75C6 0.335786 5.66421 0 5.25 0Z" fill="#474E5A"/>
</svg>
