<svg width="16" height="16" viewBox="0 0 16 16" fill="none" xmlns="http://www.w3.org/2000/svg">
<path d="M11.75 1.5C12.7165 1.5 13.5 2.2835 13.5 3.25V12C13.5 12.4142 13.8358 12.75 14.25 12.75C14.6642 12.75 15 12.4142 15 12V3.25C15 1.45507 13.5449 0 11.75 0H5C4.58579 0 4.25 0.335786 4.25 0.75C4.25 1.16421 4.58579 1.5 5 1.5H11.75Z" fill="#474E5A"/>
<path d="M2.5 13.8101L2.88002 13.4844C3.47529 12.9741 4.33728 12.9221 4.98963 13.357L6.5 14.3639L8.01037 13.357C8.66272 12.9221 9.52471 12.9741 10.12 13.4844L10.5 13.8101V5C10.5 4.72386 10.2761 4.5 10 4.5H3C2.72386 4.5 2.5 4.72386 2.5 5V6.25C2.5 6.66421 2.16421 7 1.75 7C1.33579 7 1 6.66421 1 6.25V5C1 3.89543 1.89543 3 3 3H10C11.1046 3 12 3.89543 12 5V14.7965C12 15.0479 11.9053 15.2901 11.7348 15.4748L11.4338 15.8009C11.3166 15.9278 11.1517 16 10.979 16C10.8312 16 10.6883 15.9471 10.5761 15.851L9.14379 14.6233C9.05875 14.5504 8.93561 14.5429 8.84242 14.6051L6.95801 15.8613C6.82238 15.9517 6.66301 16 6.5 16C6.33699 16 6.17762 15.9517 6.04199 15.8613L4.15758 14.6051C4.06439 14.5429 3.94125 14.5504 3.85621 14.6233L2.42386 15.851C2.31167 15.9471 2.16878 16 2.02102 16C1.84826 16 1.68336 15.9278 1.56617 15.8009L1.2652 15.4748C1.09468 15.2901 1 15.0479 1 14.7965V10.75C1 9.23122 2.23122 8 3.75 8H6.32989L5.43947 6.99828C5.16428 6.68869 5.19217 6.21464 5.50175 5.93945C5.81134 5.66426 6.2854 5.69215 6.56058 6.00174L8.56058 8.25174C8.80336 8.52485 8.81396 8.93318 8.58568 9.21853L6.58568 11.7185C6.32692 12.042 5.85495 12.0944 5.53151 11.8357C5.20806 11.5769 5.15562 11.1049 5.41438 10.7815L6.43957 9.5H3.75C3.05964 9.5 2.5 10.0596 2.5 10.75V13.8101Z" fill="#474E5A"/>
</svg>
