<svg width="16" height="16" viewBox="0 0 16 16" fill="none" xmlns="http://www.w3.org/2000/svg">
<path d="M5.99372 2.37946C6.33543 2.03775 6.33543 1.48373 5.99372 1.14202C5.65201 0.800315 5.09799 0.800315 4.75628 1.14202L0.506282 5.39202C0.342052 5.55625 0.249853 5.76774 0.25 6C0.250147 6.23226 0.342627 6.46622 0.507065 6.63024L4.75706 10.8695C5.09921 11.2108 5.65322 11.2101 5.9945 10.8679C6.33578 10.5258 6.33508 9.97177 5.99294 9.6305L3.23803 6.875H10.625C12.4922 6.875 14 8.27084 14 10C14 11.7968 12.4218 13.375 10.625 13.375C10.1418 13.375 9.75 13.7668 9.75 14.25C9.75 14.7332 10.1418 15.125 10.625 15.125C13.3882 15.125 15.75 12.7632 15.75 10C15.75 7.17092 13.3208 5.12753 10.63 5.125H3.24063L5.99372 2.37946Z" fill="#474E5A"/>
</svg>
