<svg width="16" height="16" viewBox="0 0 16 16" fill="none" xmlns="http://www.w3.org/2000/svg">
<path d="M11.8357 9.21855C12.0944 8.8951 12.042 8.42313 11.7185 8.16438C11.3951 7.90562 10.9231 7.95806 10.6644 8.28151L9.21636 10.0915L7.55748 8.2483C7.41525 8.09027 7.21262 8.00003 7.00001 8.00003C6.78739 8.00003 6.58477 8.09027 6.44254 8.2483L4.19254 10.7483C3.91544 11.0562 3.9404 11.5304 4.24828 11.8075C4.55617 12.0846 5.03038 12.0596 5.30748 11.7518L7.00001 9.87116L8.69254 11.7518C8.83985 11.9154 9.05166 12.0061 9.27178 11.9997C9.4919 11.9933 9.69809 11.8905 9.83566 11.7185L11.8357 9.21855Z" fill="#474E5A"/>
<path fill-rule="evenodd" clip-rule="evenodd" d="M14.5 13.5V2.5C14.5 1.11929 13.3807 0 12 0H6.32843C5.79799 0 5.28929 0.210714 4.91421 0.585786L2.08579 3.41421C1.71071 3.78929 1.5 4.29799 1.5 4.82843V13.5C1.5 14.8807 2.61929 16 4 16H12C13.3807 16 14.5 14.8807 14.5 13.5ZM13 13.5V2.5C13 1.94772 12.5523 1.5 12 1.5H8V4.75C8 5.7165 7.2165 6.5 6.25 6.5H3V13.5C3 14.0523 3.44772 14.5 4 14.5H12C12.5523 14.5 13 14.0523 13 13.5ZM6.32843 1.5H6.5V4.75C6.5 4.88807 6.38807 5 6.25 5H3V4.82843C3 4.69582 3.05268 4.56864 3.14645 4.47487L5.97487 1.64645C6.06864 1.55268 6.19582 1.5 6.32843 1.5Z" fill="#474E5A"/>
</svg>
