<svg width="16" height="16" viewBox="0 0 16 16" fill="none" xmlns="http://www.w3.org/2000/svg">
<path d="M11.9588 5.47331C11.5632 5.86885 10.9219 5.86885 10.5264 5.47331C10.1308 5.07777 10.1308 4.43646 10.5264 4.04092C10.9219 3.64538 11.5632 3.64538 11.9588 4.04092C12.3543 4.43646 12.3543 5.07777 11.9588 5.47331Z" fill="#474E5A"/>
<path fill-rule="evenodd" clip-rule="evenodd" d="M14.8425 1.74216C14.7824 1.44768 14.5522 1.21755 14.2578 1.1574C12.301 0.757773 10.2378 1.05254 8.71006 1.96472C8.18869 2.276 7.72333 2.59801 7.30641 2.93276C7.27826 2.93271 7.24982 2.93423 7.22117 2.93741L3.99828 3.29551C3.77808 3.31998 3.57996 3.44055 3.45707 3.6249L0.592275 7.92207C0.456984 8.125 0.428822 8.38105 0.516771 8.60854C0.604719 8.83603 0.797795 9.00654 1.03441 9.0657L3.76367 9.74801C3.79858 9.81536 3.84398 9.87791 3.89916 9.93309L6.06679 12.1007C6.12195 12.1559 6.18447 12.2012 6.25178 12.2362L6.93417 14.9657C6.99333 15.2023 7.16384 15.3954 7.39133 15.4833C7.61882 15.5713 7.87487 15.5431 8.07781 15.4078L12.375 12.5431C12.5593 12.4202 12.6799 12.222 12.7044 12.0018L13.0625 8.77897C13.0657 8.75041 13.0672 8.72205 13.0671 8.69398C13.402 8.27702 13.7241 7.81162 14.0355 7.29018C14.9478 5.76236 15.2421 3.69877 14.8425 1.74216ZM8.13127 13.5694L7.74769 12.0351C8.82842 11.7188 9.84016 11.3302 10.78 10.7443C10.9845 10.6167 11.1846 10.4805 11.3804 10.3347L11.2521 11.4888L8.13127 13.5694ZM3.96482 8.25213C4.28119 7.17145 4.66974 6.15976 5.25575 5.21999C5.38333 5.01541 5.51954 4.81534 5.66544 4.6195L4.51128 4.74774L2.4307 7.8686L3.96482 8.25213ZM9.47902 3.25262C10.5238 2.62881 11.9799 2.35007 13.4567 2.54328C13.6499 4.02016 13.3714 5.47652 12.7476 6.52112C11.8919 7.9541 10.9875 8.84716 9.98633 9.47142C9.07282 10.041 8.04646 10.4077 6.82357 10.7362L5.26372 9.17633C5.59222 7.95349 5.95895 6.92715 6.52857 6.01368C7.15287 5.01252 8.04597 4.10823 9.47902 3.25262Z" fill="#474E5A"/>
<path d="M1.7602 11.0307C2.05309 10.7378 2.52797 10.7378 2.82086 11.0307L4.96945 13.1793C5.26235 13.4722 5.26235 13.9471 4.96945 14.2399C4.67656 14.5328 4.20169 14.5328 3.90879 14.2399L1.7602 12.0914C1.4673 11.7985 1.4673 11.3236 1.7602 11.0307Z" fill="#474E5A"/>
</svg>
