<svg width="16" height="16" viewBox="0 0 16 16" fill="none" xmlns="http://www.w3.org/2000/svg">
<path fill-rule="evenodd" clip-rule="evenodd" d="M8.00002 10C9.10459 10 10 9.10457 10 8C10 6.89543 9.10459 6 8.00002 6C6.89545 6 6.00002 6.89543 6.00002 8C6.00002 9.10457 6.89545 10 8.00002 10ZM8.00002 11.5C9.93302 11.5 11.5 9.933 11.5 8C11.5 6.067 9.93302 4.5 8.00002 4.5C6.06702 4.5 4.50002 6.067 4.50002 8C4.50002 9.933 6.06702 11.5 8.00002 11.5Z" fill="#474E5A"/>
<path fill-rule="evenodd" clip-rule="evenodd" d="M7.40924 14.5H8.59088L8.64291 13.6676C8.6861 12.9765 9.12648 12.4062 9.72222 12.1591C10.3208 11.9109 11.0353 12.0054 11.553 12.4622L12.1784 13.014L13.014 12.1785L12.4622 11.5531C12.0054 11.0354 11.9109 10.3208 12.1592 9.72222C12.4062 9.12646 12.9766 8.68604 13.6677 8.64285L14.5001 8.59082V7.40918L13.6677 7.35715C12.9766 7.31396 12.4062 6.87355 12.1592 6.27781C11.911 5.67926 12.0054 4.9647 12.4622 4.44695L13.014 3.82163L12.1784 2.98608L11.5531 3.53784C11.0353 3.99467 10.3208 4.0891 9.72225 3.84089C9.1265 3.59384 8.6861 3.02347 8.64291 2.33241L8.59088 1.5H7.40924L7.35721 2.33236C7.31402 3.02345 6.8736 3.59384 6.27785 3.8409C5.67927 4.08913 4.96469 3.99471 4.44692 3.53785L3.82159 2.98609L2.98604 3.82164L3.5379 4.44708C3.99471 4.9648 4.08914 5.67931 3.84094 6.27784C3.5939 6.87357 3.02354 7.31396 2.33251 7.35715L1.50006 7.40917V8.59082L2.33247 8.64285C3.02353 8.68604 3.59389 9.12643 3.84095 9.72218C4.08916 10.3207 3.99473 11.0353 3.5379 11.553L2.98603 12.1785L3.82158 13.014L4.44703 12.4622C4.96477 12.0053 5.67931 11.9109 6.27787 12.1591C6.87362 12.4062 7.31402 12.9765 7.35721 13.6676L7.40924 14.5ZM4.51392 14.3779C4.57757 14.3386 4.63872 14.2934 4.69661 14.2424L5.43946 13.5869C5.51173 13.5231 5.61424 13.5078 5.70328 13.5447C5.79225 13.5816 5.85412 13.665 5.86013 13.7612L5.92192 14.7498C5.92674 14.8269 5.93803 14.902 5.95525 14.9748C5.96534 15.0175 5.97746 15.0593 5.99151 15.1002C6.17215 15.6264 6.671 16 7.25266 16H8.74746C9.32909 16 9.82791 15.6264 10.0086 15.1003C10.0226 15.0594 10.0348 15.0175 10.0449 14.9749C10.0621 14.9021 10.0734 14.8269 10.0782 14.7498L10.14 13.7611C10.146 13.665 10.2079 13.5816 10.2968 13.5447C10.3858 13.5078 10.4883 13.5232 10.5605 13.5869L11.3034 14.2424C11.3613 14.2935 11.4225 14.3387 11.4862 14.378C11.5234 14.401 11.5616 14.422 11.6004 14.441C12.1002 14.6852 12.7171 14.5967 13.1284 14.1854L14.1854 13.1284C14.5967 12.7171 14.6852 12.1002 14.4409 11.6004C14.4219 11.5616 14.4009 11.5234 14.3779 11.4862C14.3386 11.4225 14.2934 11.3614 14.2423 11.3035L13.587 10.5607C13.5232 10.4884 13.5078 10.3859 13.5447 10.2968C13.5816 10.2078 13.6651 10.1459 13.7613 10.1399L14.7499 10.0781C14.8269 10.0733 14.9021 10.062 14.9749 10.0448C15.0175 10.0347 15.0593 10.0226 15.1002 10.0086C15.6264 9.82795 16.0001 9.32909 16.0001 8.7474V7.2526C16.0001 6.67093 15.6264 6.17209 15.1003 5.99144C15.0594 5.9774 15.0175 5.96527 14.9749 5.95519C14.9021 5.93797 14.8269 5.92668 14.7499 5.92186L13.7612 5.86007C13.6651 5.85406 13.5817 5.79219 13.5448 5.70321C13.5078 5.61417 13.5232 5.51166 13.587 5.43938L14.2423 4.69666C14.2934 4.63873 14.3386 4.57754 14.3779 4.51384C14.4009 4.47658 14.4219 4.43846 14.4409 4.39963C14.6852 3.89987 14.5966 3.28297 14.1853 2.87168L13.1284 1.8147C12.7171 1.40342 12.1002 1.31487 11.6004 1.55913C11.5616 1.57811 11.5235 1.5991 11.4862 1.6221C11.4225 1.66142 11.3613 1.70662 11.3034 1.75773L10.5607 2.41309C10.4884 2.47686 10.3859 2.49223 10.2968 2.4553C10.2079 2.41841 10.146 2.33497 10.14 2.23884L10.0782 1.25016C10.0734 1.17312 10.0621 1.09795 10.0449 1.02516C10.0348 0.982504 10.0227 0.940667 10.0086 0.899751C9.82796 0.373623 9.32912 0 8.74746 0H7.25266C6.67097 0 6.17211 0.373663 5.99148 0.899834C5.97744 0.940737 5.96532 0.982562 5.95524 1.0252C5.93803 1.09798 5.92674 1.17314 5.92192 1.25016L5.86013 2.2388C5.85413 2.33495 5.79224 2.41842 5.70324 2.45532C5.61418 2.49225 5.51165 2.47688 5.43935 2.41309L4.69662 1.75774C4.63871 1.70665 4.57755 1.66146 4.51387 1.62215C4.47662 1.59915 4.4385 1.57817 4.39968 1.55919C3.89991 1.31487 3.28296 1.40341 2.87165 1.81472L1.81467 2.8717C1.40339 3.28298 1.31484 3.89987 1.55909 4.39963C1.57808 4.43848 1.59908 4.47662 1.62209 4.5139C1.6614 4.57758 1.70659 4.63876 1.75769 4.69667L2.41314 5.43951C2.4769 5.51177 2.49226 5.61425 2.45535 5.70326C2.41846 5.79221 2.33505 5.85406 2.23894 5.86007L1.25022 5.92186C1.17317 5.92668 1.09798 5.93797 1.02518 5.9552C0.982512 5.96529 0.940663 5.97742 0.899735 5.99147C0.373648 6.17215 6.10352e-05 6.67097 6.10352e-05 7.2526V8.7474C6.10352e-05 9.32905 0.37368 9.82789 0.899802 10.0085C0.940719 10.0226 0.982558 10.0347 1.02522 10.0448C1.09801 10.062 1.17318 10.0733 1.25022 10.0781L2.2389 10.1399C2.33503 10.1459 2.41847 10.2078 2.45536 10.2968C2.49228 10.3858 2.47692 10.4883 2.41315 10.5606L1.75768 11.3034C1.7066 11.3613 1.66143 11.4225 1.62213 11.4861C1.59912 11.5234 1.57812 11.5615 1.55913 11.6004C1.31481 12.1001 1.40334 12.7171 1.81465 13.1284L2.87164 14.1854C3.28295 14.5967 3.89991 14.6852 4.39969 14.4409C4.43853 14.4219 4.47665 14.4009 4.51392 14.3779Z" fill="#474E5A"/>
</svg>
