<svg width="16" height="16" viewBox="0 0 16 16" fill="none" xmlns="http://www.w3.org/2000/svg">
<path fill-rule="evenodd" clip-rule="evenodd" d="M12 6C13.6569 6 15 4.65685 15 3C15 1.34315 13.6569 0 12 0C10.3431 0 9 1.34315 9 3C9 3.31498 9.04854 3.61862 9.13855 3.90385L6.06564 5.82442C5.5277 5.3135 4.80046 5 4 5C2.34315 5 1 6.34315 1 8C1 9.65685 2.34315 11 4 11C4.80054 11 5.52784 10.6864 6.06579 10.1754L9.13862 12.096C9.04856 12.3812 9 12.6849 9 13C9 14.6569 10.3431 16 12 16C13.6569 16 15 14.6569 15 13C15 11.3431 13.6569 10 12 10C11.1995 10 10.4723 10.3135 9.93436 10.8244L6.86145 8.90385C6.95146 8.61862 7 8.31498 7 8C7 7.68495 6.95144 7.38124 6.86138 7.09595L9.9342 5.17544C10.4722 5.68644 11.1995 6 12 6ZM12 4.5C12.8284 4.5 13.5 3.82843 13.5 3C13.5 2.17157 12.8284 1.5 12 1.5C11.1716 1.5 10.5 2.17157 10.5 3C10.5 3.82843 11.1716 4.5 12 4.5ZM12 14.5C12.8284 14.5 13.5 13.8284 13.5 13C13.5 12.1716 12.8284 11.5 12 11.5C11.1716 11.5 10.5 12.1716 10.5 13C10.5 13.8284 11.1716 14.5 12 14.5ZM5.5 8C5.5 8.82843 4.82843 9.5 4 9.5C3.17157 9.5 2.5 8.82843 2.5 8C2.5 7.17157 3.17157 6.5 4 6.5C4.82843 6.5 5.5 7.17157 5.5 8Z" fill="#474E5A"/>
</svg>
