<svg width="16" height="16" viewBox="0 0 16 16" fill="none" xmlns="http://www.w3.org/2000/svg">
<path fill-rule="evenodd" clip-rule="evenodd" d="M4.82822 14.2188L7.08401 15.7227C7.35528 15.9035 7.67401 16 8.00003 16C8.32606 16 8.64479 15.9035 8.91606 15.7227L11.1718 14.2188C13.267 12.822 14.5822 10.5203 14.7219 8.00617L14.9707 3.52775C14.9866 3.24115 14.7588 2.9985 14.4766 2.94568C12.7465 2.62173 9.96846 0.936793 8.91934 0.271047C8.64407 0.096362 8.32606 0 8.00003 0C7.67401 0 7.356 0.0963626 7.08072 0.271048C6.03161 0.936798 3.25355 2.62174 1.52342 2.94568C1.24128 2.99851 1.01343 3.24115 1.02935 3.52775L1.27815 8.00617C1.41783 10.5203 2.73308 12.822 4.82822 14.2188ZM2.77584 7.92296L2.57044 4.22569C2.71763 4.18027 2.86635 4.1302 3.01572 4.07638L11.2128 12.2734C10.9445 12.5284 10.6529 12.762 10.3398 12.9707L8.084 14.4746C8.05914 14.4912 8.02992 14.5 8.00003 14.5C7.97015 14.5 7.94093 14.4912 7.91606 14.4746L5.66027 12.9707C3.95797 11.8359 2.88933 9.96573 2.77584 7.92296ZM12.1768 11.1161C12.7917 10.1742 13.1602 9.07609 13.2242 7.92296L13.4296 4.22569C12.525 3.94651 11.5628 3.49215 10.7474 3.06571C9.65376 2.4937 8.65793 1.88169 8.11564 1.53756C8.07017 1.50871 8.02923 1.5 8.00003 1.5C7.97084 1.5 7.92989 1.50871 7.88443 1.53756C7.34214 1.88169 6.34631 2.49371 5.25264 3.06572C5.01375 3.19066 4.76226 3.318 4.50329 3.44263L12.1768 11.1161Z" fill="#474E5A"/>
</svg>
