<svg width="16" height="16" viewBox="0 0 16 16" fill="none" xmlns="http://www.w3.org/2000/svg">
<path fill-rule="evenodd" clip-rule="evenodd" d="M5 3V2.83333C5 2.45994 5.16945 1.78658 5.59646 1.19598C6.05461 0.562303 6.83005 0 7.99996 0C9.16987 0 9.94531 0.562301 10.4035 1.19597C10.8305 1.78656 11 2.4599 11 2.83328V3H12.2099C13.229 3 14.0851 3.76627 14.1977 4.77914L15 12V14C15 15.1046 14.1046 16 13 16H3C1.89543 16 1 15.1046 1 14V12L1.80232 4.77914C1.91486 3.76627 2.77099 3 3.79009 3H5ZM6.5 3V2.83333C6.50044 2.82797 6.50857 2.72905 6.56196 2.56795C6.61333 2.41291 6.69483 2.23694 6.81202 2.07485C7.03169 1.77103 7.38124 1.5 7.99996 1.5C8.61869 1.5 8.96826 1.77103 9.18794 2.07486C9.30514 2.23696 9.38664 2.41294 9.43803 2.56798C9.49145 2.72916 9.49957 2.8281 9.5 2.83339V3H6.5ZM5 4.5V6.25C5 6.66421 5.33579 7 5.75 7C6.16421 7 6.5 6.66421 6.5 6.25V4.5H9.5V6.25C9.5 6.66421 9.83579 7 10.25 7C10.6642 7 11 6.66421 11 6.25V4.5H12.2099C12.4647 4.5 12.6787 4.69157 12.7069 4.94478L13.5 12.0831V14C13.5 14.2761 13.2761 14.5 13 14.5H3C2.72386 14.5 2.5 14.2761 2.5 14V12.0831L3.29314 4.94478C3.32128 4.69157 3.53531 4.5 3.79009 4.5H5Z" fill="#474E5A"/>
</svg>
