<svg width="16" height="16" viewBox="0 0 16 16" fill="none" xmlns="http://www.w3.org/2000/svg">
<path fill-rule="evenodd" clip-rule="evenodd" d="M10.6681 0.526638C10.927 0.455716 11.204 0.528731 11.3943 0.718034L13.3304 2.64426C13.3352 2.64885 13.34 2.6535 13.3447 2.65824L15.2821 4.60563C15.4714 4.79591 15.5444 5.07294 15.4734 5.3318L13.8756 11.164C13.8151 11.3846 13.6572 11.5656 13.4467 11.6552L4.5587 15.4401C4.2775 15.5599 3.95175 15.4968 3.73564 15.2806L2.23885 13.7838C2.2344 13.7796 2.22999 13.7752 2.22561 13.7708L0.71765 12.2529C0.502805 12.0366 0.44047 11.7117 0.560021 11.4313L4.34491 2.55314C4.43458 2.34279 4.61544 2.18492 4.83599 2.1245L10.6681 0.526638ZM2.75892 12.1822L6.30738 8.63366C6.0941 8.24695 5.97266 7.80283 5.97266 7.33089C5.97266 5.83867 7.1868 4.62451 8.679 4.62451C10.1712 4.62451 11.3853 5.83867 11.3853 7.33089C11.3853 8.8231 10.1712 10.0373 8.679 10.0373C8.20201 10.0373 7.75344 9.9132 7.36385 9.69566L3.81652 13.243L4.43719 13.8637L12.5266 10.4189L13.914 5.35451L12.2938 3.7259C12.2909 3.7231 12.288 3.72026 12.2851 3.7174L10.6454 2.08606L5.58092 3.4736L2.13575 11.5549L2.75892 12.1822ZM7.83092 8.18982C8.04945 8.40563 8.3493 8.53927 8.679 8.53927C9.34388 8.53927 9.88736 7.99578 9.88736 7.33089C9.88736 6.66599 9.34388 6.12251 8.679 6.12251C8.01411 6.12251 7.47063 6.66599 7.47063 7.33089C7.47063 7.65759 7.60184 7.95498 7.8142 8.17298C7.8164 8.17513 7.81859 8.1773 7.82078 8.17948C7.8242 8.1829 7.82758 8.18635 7.83092 8.18982Z" fill="#474E5A"/>
</svg>
