<svg width="16" height="16" viewBox="0 0 16 16" fill="none" xmlns="http://www.w3.org/2000/svg">
<path fill-rule="evenodd" clip-rule="evenodd" d="M3.94284 4.25347L7.76304 0.468794C8.82695 -0.573808 10.4873 0.256174 10.4873 1.65323V14.347C10.4873 15.7441 8.82695 16.5741 7.76305 15.5314L7.76014 15.5286L3.94273 11.7467H3.68714C1.63623 11.7467 0 10.0561 0 8.00007C0 5.94406 1.63623 4.25347 3.68714 4.25347H3.94284ZM4.99396 5.32137L8.81246 1.53839C8.83984 1.51187 8.85781 1.50801 8.86522 1.50681C8.87654 1.50499 8.89369 1.50583 8.91407 1.51492C8.93444 1.524 8.95242 1.53897 8.96502 1.55793C8.97585 1.57422 8.98907 1.60265 8.98907 1.65323V14.347C8.98907 14.3976 8.97585 14.426 8.96502 14.4423C8.95242 14.4613 8.93444 14.4762 8.91407 14.4853C8.89369 14.4944 8.87654 14.4953 8.86522 14.4934C8.85781 14.4922 8.83983 14.4884 8.81242 14.4618L8.8115 14.4609L4.99396 10.6789V5.32137ZM1.49819 8.00007C1.49819 6.8115 2.38717 5.85972 3.49577 5.76063V10.2395C2.38717 10.1404 1.49819 9.18864 1.49819 8.00007Z" fill="#474E5A"/>
<path d="M15.7806 6.95127C16.0731 6.65864 16.0731 6.1842 15.7806 5.89157C15.4881 5.59894 15.0138 5.59895 14.7212 5.89158L13.6728 6.94029L12.6244 5.89158C12.3319 5.59895 11.8576 5.59894 11.5651 5.89157C11.2725 6.1842 11.2725 6.65864 11.5651 6.95127L12.6135 7.99999L11.5651 9.04872C11.2725 9.34134 11.2725 9.81579 11.5651 10.1084C11.8576 10.401 12.3319 10.401 12.6244 10.1084L13.6728 9.0597L14.7212 10.1084C15.0138 10.401 15.4881 10.401 15.7806 10.1084C16.0731 9.81579 16.0731 9.34134 15.7806 9.04872L14.7322 7.99999L15.7806 6.95127Z" fill="#474E5A"/>
</svg>
