<svg width="16" height="16" viewBox="0 0 16 16" fill="none" xmlns="http://www.w3.org/2000/svg">
<path fill-rule="evenodd" clip-rule="evenodd" d="M12.4078 4.03076C12.602 3.66488 13.0561 3.52571 13.4219 3.71991C14.955 4.53362 16 6.14148 16 8.01238C16 9.88328 14.955 11.4911 13.4219 12.3049C13.0561 12.499 12.602 12.3599 12.4078 11.994C12.2137 11.6281 12.3528 11.1741 12.7187 10.9799C13.7856 10.4136 14.5103 9.30148 14.5103 8.01238C14.5103 6.72328 13.7856 5.61113 12.7187 5.04484C12.3528 4.85065 12.2137 4.39663 12.4078 4.03076Z" fill="#474E5A"/>
<path fill-rule="evenodd" clip-rule="evenodd" d="M3.94256 4.26221L7.77242 0.469092C8.10497 0.143301 8.49572 0.00018997 8.87593 1.89016e-07C9.71354 -0.000417911 10.4999 0.692828 10.4999 1.6546V14.3599C10.4999 15.3217 9.71354 16.0004 8.87593 16C8.49573 15.9998 8.10497 15.8712 7.77242 15.5454L7.7695 15.5426L3.95255 11.7622H3.6916C1.6382 11.7622 0 10.0701 0 8.01221C0 5.95433 1.6382 4.26221 3.6916 4.26221H3.94256ZM5 5.32608L8.82309 1.53967C8.85051 1.51312 8.8685 1.50925 8.87593 1.50806C8.88726 1.50623 8.90444 1.50707 8.92484 1.51617C8.94525 1.52526 8.96325 1.54024 8.97586 1.55922C8.9867 1.57553 8.99994 1.60398 8.99994 1.6546V14.3599C8.99994 14.4105 8.9867 14.439 8.97586 14.4553C8.96325 14.4743 8.94525 14.4893 8.92484 14.4983C8.90444 14.5074 8.88726 14.5083 8.87593 14.5065C8.8685 14.5053 8.8505 14.5014 8.82306 14.4748L8.82214 14.4739L5 10.6884V5.32608ZM1.5 8.01221C1.5 6.82256 2.39006 5.86992 3.5 5.77073V10.2537C2.39006 10.1545 1.5 9.20186 1.5 8.01221Z" fill="#474E5A"/>
</svg>
