<svg width="16" height="16" viewBox="0 0 16 16" fill="none" xmlns="http://www.w3.org/2000/svg">
<path d="M11.472 2.62411C11.543 2.59893 11.5989 2.54302 11.6241 2.47196L12.2644 0.665039C12.3037 0.554041 12.4018 0.49854 12.5 0.498535C12.5982 0.498531 12.6963 0.554032 12.7357 0.665038L13.3759 2.47196C13.4011 2.54302 13.457 2.59893 13.5281 2.62411L15.335 3.26436C15.446 3.30369 15.5015 3.40184 15.5015 3.5C15.5015 3.59816 15.446 3.69631 15.335 3.73565L13.5281 4.3759C13.457 4.40108 13.4011 4.45698 13.3759 4.52805L12.7357 6.33497C12.6963 6.44597 12.5982 6.50147 12.5 6.50147C12.4018 6.50147 12.3037 6.44596 12.2644 6.33497L11.6241 4.52805C11.5989 4.45698 11.543 4.40108 11.472 4.3759L9.66505 3.73565C9.55404 3.69632 9.49854 3.59816 9.49854 3.5C9.49854 3.40184 9.55405 3.30369 9.66505 3.26436L11.472 2.62411Z" fill="#474E5A"/>
<path fill-rule="evenodd" clip-rule="evenodd" d="M7.00001 5.49119L6.44026 7.07092C6.21364 7.71049 5.71049 8.21363 5.07093 8.44025L3.4912 9L5.07093 9.55975C5.7105 9.78637 6.21364 10.2895 6.44026 10.9291L7.00001 12.5088L7.55976 10.9291C7.78638 10.2895 8.28952 9.78637 8.92909 9.55975L10.5088 9L8.92909 8.44025C8.28952 8.21363 7.78638 7.71049 7.55976 7.07092L7.00001 5.49119ZM7.70694 2.99511C7.58895 2.6621 7.29447 2.49559 7 2.4956C6.70553 2.4956 6.41107 2.6621 6.29308 2.99511L5.02639 6.56994C4.95085 6.78313 4.78314 6.95084 4.56995 7.02638L0.995114 8.29307C0.662108 8.41106 0.495605 8.70553 0.495605 9C0.495606 9.29447 0.662109 9.58894 0.995116 9.70693L4.56995 10.9736C4.78314 11.0492 4.95085 11.2169 5.02639 11.4301L6.29308 15.0049C6.41107 15.3379 6.70553 15.5044 7 15.5044C7.29447 15.5044 7.58895 15.3379 7.70694 15.0049L8.97363 11.4301C9.04917 11.2169 9.21688 11.0492 9.43007 10.9736L13.0049 9.70693C13.3379 9.58894 13.5044 9.29447 13.5044 9C13.5044 8.70553 13.3379 8.41106 13.0049 8.29307L9.43007 7.02638C9.21688 6.95084 9.04917 6.78313 8.97363 6.56994L7.70694 2.99511Z" fill="#474E5A"/>
</svg>
