<svg width="16" height="16" viewBox="0 0 16 16" fill="none" xmlns="http://www.w3.org/2000/svg">
<path d="M8 0.125C8.48325 0.125 8.875 0.516751 8.875 1V3C8.875 3.48325 8.48325 3.875 8 3.875C7.51675 3.875 7.125 3.48325 7.125 3V1C7.125 0.516751 7.51675 0.125 8 0.125Z" fill="#474E5A"/>
<path d="M3.54975 2.31232C3.20804 1.97061 2.65402 1.97061 2.31231 2.31232C1.9706 2.65403 1.9706 3.20805 2.31231 3.54976L3.67776 4.91521C4.01947 5.25692 4.57349 5.25692 4.9152 4.91521C5.2569 4.5735 5.2569 4.01948 4.9152 3.67777L3.54975 2.31232Z" fill="#474E5A"/>
<path d="M0.125 8C0.125 7.51675 0.516751 7.125 1 7.125H3C3.48325 7.125 3.875 7.51675 3.875 8C3.875 8.48325 3.48325 8.875 3 8.875H1C0.516751 8.875 0.125 8.48325 0.125 8Z" fill="#474E5A"/>
<path d="M12.125 8C12.125 7.51675 12.5168 7.125 13 7.125H15C15.4832 7.125 15.875 7.51675 15.875 8C15.875 8.48325 15.4832 8.875 15 8.875H13C12.5168 8.875 12.125 8.48325 12.125 8Z" fill="#474E5A"/>
<path d="M2.31232 12.4501C1.97061 12.7918 1.97061 13.3459 2.31232 13.6876C2.65403 14.0293 3.20805 14.0293 3.54976 13.6876L4.91521 12.3221C5.25692 11.9804 5.25692 11.4264 4.91521 11.0847C4.5735 10.743 4.01948 10.743 3.67777 11.0847L2.31232 12.4501Z" fill="#474E5A"/>
<path d="M13.6877 13.6877C13.346 14.0294 12.792 14.0294 12.4503 13.6877L11.0848 12.3222C10.7431 11.9805 10.7431 11.4265 11.0848 11.0848C11.4265 10.7431 11.9805 10.7431 12.3222 11.0848L13.6877 12.4502C14.0294 12.792 14.0294 13.346 13.6877 13.6877Z" fill="#474E5A"/>
<path d="M8.875 13C8.875 12.5168 8.48325 12.125 8 12.125C7.51675 12.125 7.125 12.5168 7.125 13V15C7.125 15.4832 7.51675 15.875 8 15.875C8.48325 15.875 8.875 15.4832 8.875 15V13Z" fill="#474E5A"/>
</svg>
