<svg width="16" height="16" viewBox="0 0 16 16" fill="none" xmlns="http://www.w3.org/2000/svg">
<path fill-rule="evenodd" clip-rule="evenodd" d="M7.00498 1.0108C7.42709 0.210751 8.57289 0.210762 8.99499 1.0108L10.8655 4.55602L14.8152 5.23942C15.7065 5.39364 16.0606 6.48336 15.4301 7.13203L12.6364 10.0065L13.207 13.9741C13.3358 14.8694 12.4088 15.5429 11.5971 15.1438L7.99999 13.3751L4.4029 15.1438C3.59116 15.5429 2.6642 14.8694 2.79296 13.9741L3.36353 10.0065L0.569837 7.13203C-0.0606124 6.48335 0.293468 5.39364 1.18478 5.23942L5.1345 4.55602L7.00498 1.0108ZM7.99999 2.87513L6.53888 5.64444C6.3761 5.95297 6.07941 6.16853 5.73568 6.228L2.6504 6.76183L4.83266 9.0072C5.07579 9.25735 5.18911 9.60613 5.13946 9.95141L4.69376 13.0507L7.50358 11.6691C7.81662 11.5151 8.18335 11.5151 8.49639 11.6691L11.3062 13.0507L10.8605 9.95142C10.8109 9.60613 10.9242 9.25735 11.1673 9.0072L13.3496 6.76183L10.2643 6.228C9.92057 6.16853 9.62388 5.95297 9.4611 5.64444L7.99999 2.87513Z" fill="#474E5A"/>
</svg>
