<svg width="16" height="16" viewBox="0 0 16 16" fill="none" xmlns="http://www.w3.org/2000/svg">
<path d="M15 0.275024C15.4142 0.275024 15.75 0.610811 15.75 1.02502V15.025C15.75 15.4392 15.4142 15.775 15 15.775C14.5858 15.775 14.25 15.4392 14.25 15.025V1.02502C14.25 0.610811 14.5858 0.275024 15 0.275024ZM1.12109 0.549438C1.61916 0.231532 2.27408 0.164536 2.85742 0.484009L2.97363 0.553345L2.97754 0.556274H2.97852L2.97949 0.557251C2.98046 0.557889 2.98166 0.559032 2.9834 0.560181C2.98734 0.562775 2.99324 0.566802 3.00098 0.571899C3.01655 0.582161 3.04014 0.596943 3.07031 0.616821C3.13078 0.656657 3.21978 0.715079 3.33301 0.789673C3.55943 0.93884 3.88321 1.15308 4.27441 1.41077C5.05694 1.92623 6.10773 2.61802 7.17969 3.32385C9.3254 4.7367 11.5513 6.20205 11.8926 6.42346C13.0338 7.16378 13.0349 8.87217 11.8965 9.61487L11.8975 9.61584L2.97754 15.4948L2.97363 15.4977C2.35934 15.8962 1.64868 15.837 1.12012 15.4977C0.598462 15.1626 0.250128 14.5608 0.25 13.8619V2.19006C0.25 1.4885 0.596154 0.884709 1.12109 0.549438ZM2.15234 1.80823C2.07836 1.76218 2.00643 1.76362 1.92871 1.81311C1.84309 1.86776 1.75 1.99101 1.75 2.19006V13.8619C1.75012 14.0538 1.84167 14.1778 1.93066 14.235C2.01283 14.2877 2.08487 14.2868 2.15723 14.2399L11.0723 8.36292L11.0771 8.35999C11.1842 8.29028 11.25 8.16813 11.25 8.02112C11.25 7.87389 11.1844 7.75097 11.0771 7.68127C10.7309 7.45666 8.49657 5.98723 6.35449 4.57678C5.28248 3.87092 4.23175 3.17916 3.44922 2.6637C3.05804 2.40602 2.73427 2.19179 2.50781 2.0426C2.39462 1.96803 2.30559 1.90959 2.24512 1.86975C2.21488 1.84983 2.19138 1.83413 2.17578 1.82385C2.16823 1.81888 2.1621 1.81568 2.1582 1.81311C2.15653 1.81201 2.15527 1.81082 2.1543 1.81018L2.15234 1.8092V1.80823Z" fill="#474E5A"/>
</svg>
