<svg width="16" height="16" viewBox="0 0 16 16" fill="none" xmlns="http://www.w3.org/2000/svg">
<path fill-rule="evenodd" clip-rule="evenodd" d="M16 8C16 12.4183 12.4183 16 8 16C3.58172 16 0 12.4183 0 8C0 3.58172 3.58172 0 8 0C12.4183 0 16 3.58172 16 8ZM14.5 8C14.5 9.52469 13.975 10.9268 13.096 12.0353L12.0262 10.9655C11.7278 11.3699 11.3699 11.7278 10.9655 12.0262L12.0353 13.096C10.9268 13.975 9.52469 14.5 8 14.5C6.47536 14.5 5.07332 13.9751 3.96476 13.0961L5.03467 12.0262C4.95107 11.9645 4.86947 11.9003 4.78997 11.8337C5.65849 12.5617 6.77806 13 8 13C10.7614 13 13 10.7614 13 8C13 6.74873 12.5404 5.60481 11.7807 4.72787C11.8664 4.82682 11.9483 4.92915 12.0262 5.03467L13.0961 3.96476C13.9751 5.07332 14.5 6.47536 14.5 8ZM12.0355 2.90408C10.9269 2.02499 9.52474 1.5 8 1.5C6.47531 1.5 5.07323 2.02496 3.96465 2.90399L5.03456 3.9739C5.86422 3.36179 6.88986 3 8 3C9.11019 3 10.1359 3.36183 10.9655 3.97399L12.0355 2.90408ZM3.97399 10.9655C3.36183 10.1359 3 9.11019 3 8C3 6.88986 3.36179 5.86422 3.9739 5.03456L2.90399 3.96465C2.02496 5.07323 1.5 6.47531 1.5 8C1.5 9.52474 2.02499 10.9269 2.90408 12.0355L3.97399 10.9655ZM11.5 8C11.5 9.933 9.933 11.5 8 11.5C6.067 11.5 4.5 9.933 4.5 8C4.5 6.067 6.067 4.5 8 4.5C9.933 4.5 11.5 6.067 11.5 8Z" fill="#474E5A"/>
</svg>
