<svg width="16" height="16" viewBox="0 0 16 16" fill="none" xmlns="http://www.w3.org/2000/svg">
<path d="M3.97868 6.09816C4.56431 6.68379 5.51381 6.68379 6.09945 6.09816C6.68509 5.51252 6.68509 4.56302 6.09945 3.97738C5.51381 3.39174 4.56431 3.39174 3.97867 3.97738C3.39304 4.56302 3.39304 5.51252 3.97868 6.09816Z" fill="#474E5A"/>
<path fill-rule="evenodd" clip-rule="evenodd" d="M8.48008 1.05473C7.94259 0.517236 7.2066 0.226192 6.44687 0.250699L1.83281 0.39954C1.64236 0.405683 1.46139 0.484084 1.32666 0.61882L0.619552 1.32593C0.484816 1.46066 0.406415 1.64163 0.400272 1.83208L0.251432 6.44614C0.226924 7.20587 0.517967 7.94186 1.05546 8.47935L7.69062 15.1145C8.76456 16.1884 10.5058 16.1884 11.5797 15.1145L15.1152 11.579C16.1892 10.505 16.1892 8.76383 15.1152 7.68989L8.48008 1.05473ZM6.49523 1.74992C6.84057 1.73878 7.1751 1.87107 7.41942 2.11539L14.0546 8.75055C14.5427 9.2387 14.5427 10.0302 14.0546 10.5183L10.519 14.0538C10.0309 14.542 9.23943 14.542 8.75128 14.0538L2.11612 7.41869C1.8718 7.17437 1.73951 6.83983 1.75065 6.4945L1.88993 2.17687L2.1776 1.8892L6.49523 1.74992Z" fill="#474E5A"/>
</svg>
