<svg width="16" height="16" viewBox="0 0 16 16" fill="none" xmlns="http://www.w3.org/2000/svg">
<path fill-rule="evenodd" clip-rule="evenodd" d="M1.00005 13.8C1.00005 13.3582 1.35822 13 1.80005 13H14.2C14.6419 13 15 13.3582 15 13.8C15 14.2418 14.6419 14.6 14.2 14.6H1.80005C1.35822 14.6 1.00005 14.2418 1.00005 13.8Z" fill="#474E5A"/>
<path fill-rule="evenodd" clip-rule="evenodd" d="M8.00005 5.80001C8.00005 5.35818 8.35822 5.00001 8.80005 5.00001H14.1999C14.6418 5.00001 14.9999 5.35818 14.9999 5.80001C14.9999 6.24184 14.6418 6.60001 14.1999 6.60001H8.80005C8.35822 6.60001 8.00005 6.24184 8.00005 5.80001Z" fill="#474E5A"/>
<path fill-rule="evenodd" clip-rule="evenodd" d="M1.00005 9.80001C1.00005 9.35818 1.35822 9.00001 1.80005 9.00001H14.2C14.6419 9.00001 15 9.35818 15 9.80001C15 10.2418 14.6419 10.6 14.2 10.6H1.80005C1.35822 10.6 1.00005 10.2418 1.00005 9.80001Z" fill="#474E5A"/>
<path fill-rule="evenodd" clip-rule="evenodd" d="M8.71047 0.211061C9.06336 0.520658 9.09845 1.0577 8.78885 1.41059L4.13895 6.71061C3.83052 7.06216 3.29604 7.09852 2.94285 6.79197L0.292846 4.49197C0.0986385 4.32341 -0.000575145 4.0861 -1.2882e-05 3.84766C0.000451283 3.65082 0.0689127 3.45321 0.208062 3.29288C0.515768 2.93835 1.05262 2.90039 1.40715 3.2081L3.41863 4.95392L7.51095 0.289437C7.67896 0.0979351 7.91396 2.32426e-05 8.15015 0C8.3492 -1.95867e-05 8.54909 0.0694767 8.71047 0.211061Z" fill="#474E5A"/>
</svg>
