<svg width="16" height="16" viewBox="0 0 16 16" fill="none" xmlns="http://www.w3.org/2000/svg">
<path d="M11 0C12.6569 0 14 1.34315 14 3V13C14 14.6569 12.6569 16 11 16H5C3.34315 16 2 14.6569 2 13V3C2 1.34315 3.34315 0 5 0H11ZM5 1.5C4.17157 1.5 3.5 2.17157 3.5 3V13C3.5 13.8284 4.17157 14.5 5 14.5H11C11.8284 14.5 12.5 13.8284 12.5 13V3C12.5 2.17157 11.8284 1.5 11 1.5H5ZM9.73535 6.06934C10.0327 5.78119 10.5076 5.7888 10.7959 6.08594C11.0842 6.3834 11.0768 6.85823 10.7793 7.14648L7.71289 10.1172C7.5657 10.2598 7.36689 10.3361 7.16211 10.3281C6.95724 10.32 6.76348 10.229 6.62793 10.0752L5.23926 8.49707C4.96592 8.18636 4.9953 7.71318 5.30566 7.43945C5.6165 7.16567 6.09145 7.196 6.36523 7.50684L7.23438 8.49219L9.73535 6.06934Z" fill="#474E5A"/>
</svg>
