<svg width="16" height="16" viewBox="0 0 16 16" fill="none" xmlns="http://www.w3.org/2000/svg">
<path fill-rule="evenodd" clip-rule="evenodd" d="M8.15199 0C9.68511 0 10.8908 1.31034 10.7635 2.83818L10.509 5.8917C10.5042 5.95 10.5502 6 10.6087 6H13.5C14.8807 6 16 7.14273 16 8.52344C16 8.83393 15.9277 9.14458 15.7889 9.42229L15.25 10.5V11.645C15.25 11.8746 15.1709 12.0973 15.0261 12.2756L14.4375 13L14.1579 13.8948C13.7665 15.1473 12.6066 16 11.2944 16H2C0.895431 16 0 15.1046 0 14V9C0 7.89543 0.895431 7 2 7H4.00027L4.00101 6.99764L6.54621 1.05884C6.82151 0.416488 7.45312 0 8.15199 0ZM5.5 7.30789V14.5H11.2944C11.9505 14.5 12.5305 14.0736 12.7261 13.4474L13.0058 12.5526C13.0625 12.371 13.1533 12.2018 13.2733 12.0541L13.75 11.4674V10.5C13.75 10.2671 13.8042 10.0375 13.9084 9.82918L14.4472 8.75147C14.4804 8.68504 14.5 8.60444 14.5 8.52344C14.5 7.9529 14.0341 7.5 13.5 7.5H10.6087C9.67262 7.5 8.93647 6.69996 9.01421 5.76713L9.26867 2.71361C9.32311 2.0603 8.80755 1.5 8.15199 1.5C8.05317 1.5 7.96385 1.55889 7.92493 1.64972L5.5 7.30789ZM4 8.5H2C1.72386 8.5 1.5 8.72386 1.5 9V14C1.5 14.2761 1.72386 14.5 2 14.5H4V8.5Z" fill="#474E5A"/>
</svg>
