<svg width="16" height="16" viewBox="0 0 16 16" fill="none" xmlns="http://www.w3.org/2000/svg">
<path fill-rule="evenodd" clip-rule="evenodd" d="M7.84801 16C6.31489 16 5.1092 14.6897 5.23651 13.1618L5.49097 10.1083C5.49583 10.05 5.44982 10 5.39132 10H2.5C1.11929 10 0 8.85727 0 7.47656C0 7.16607 0.0722904 6.85542 0.211145 6.57771L0.75 5.5V4.35504C0.75 4.12537 0.829058 3.9027 0.973886 3.72445L1.5625 3L1.84213 2.10517C2.23352 0.852749 3.39342 0 4.70557 0H14C15.1046 0 16 0.895431 16 2V7C16 8.10457 15.1046 9 14 9H11.9997L11.999 9.00236L9.45379 14.9412C9.17849 15.5835 8.54688 16 7.84801 16ZM10.5 8.69211V1.5H4.70557C4.04949 1.5 3.46954 1.92637 3.27385 2.55259L2.99422 3.44741C2.93746 3.62904 2.84666 3.7982 2.72667 3.94589L2.25 4.53256V5.5C2.25 5.73287 2.19578 5.96254 2.09164 6.17082L1.55279 7.24853C1.51957 7.31496 1.5 7.39556 1.5 7.47656C1.5 8.0471 1.96585 8.5 2.5 8.5H5.39132C6.32738 8.5 7.06353 9.30004 6.98579 10.2329L6.73133 13.2864C6.67689 13.9397 7.19245 14.5 7.84801 14.5C7.94683 14.5 8.03615 14.4411 8.07507 14.3503L10.5 8.69211ZM12 7.5H14C14.2761 7.5 14.5 7.27614 14.5 7V2C14.5 1.72386 14.2761 1.5 14 1.5H12V7.5Z" fill="#474E5A"/>
</svg>
