<svg width="16" height="16" viewBox="0 0 16 16" fill="none" xmlns="http://www.w3.org/2000/svg">
<path d="M8.20041 4.73966C7.91856 5.04319 7.93613 5.51774 8.23967 5.7996C8.5432 6.08145 9.01775 6.06387 9.2996 5.76034L11.25 3.65991V14.25C11.25 14.6642 11.5858 15 12 15C12.4142 15 12.75 14.6642 12.75 14.25V3.6599L14.7004 5.76034C14.9823 6.06387 15.4568 6.08145 15.7603 5.79959C15.9187 5.65259 15.9992 5.45317 16 5.25294C16.0008 5.06925 15.9344 4.88488 15.7996 4.73966L12.5496 1.23966C12.4077 1.08684 12.2086 1 12 1C11.7915 1 11.5923 1.08684 11.4504 1.23966L8.20041 4.73966Z" fill="#474E5A"/>
<path d="M4.75 12.3401L6.70041 10.2397C6.98226 9.93613 7.45681 9.91856 7.76034 10.2004C8.06387 10.4823 8.08145 10.9568 7.7996 11.2603L4.5496 14.7603C4.40769 14.9132 4.20856 15 4 15C3.79145 15 3.59232 14.9132 3.45041 14.7603L0.200408 11.2603C0.064323 11.1138 -0.00195964 10.9274 4.40921e-05 10.742C0.00219038 10.5435 0.0826851 10.3462 0.239665 10.2004C0.543198 9.91856 1.01775 9.93613 1.2996 10.2397L3.25 12.3401V1.75C3.25 1.33579 3.58579 1 4 1C4.41421 1 4.75 1.33579 4.75 1.75V12.3401Z" fill="#474E5A"/>
</svg>
