<svg width="16" height="16" viewBox="0 0 16 16" fill="none" xmlns="http://www.w3.org/2000/svg">
<path fill-rule="evenodd" clip-rule="evenodd" d="M2.5 0.75C2.5 0.335786 2.83579 0 3.25 0H12.75C13.1642 0 13.5 0.335786 13.5 0.75C13.5 1.16421 13.1642 1.5 12.75 1.5H12V4.62397C12 4.81792 11.9249 5.00432 11.7904 5.14406L9.16597 7.87083L11.7912 10.6068C11.9252 10.7464 12 10.9325 12 11.126V14.5H12.75C13.1642 14.5 13.5 14.8358 13.5 15.25C13.5 15.6642 13.1642 16 12.75 16H3.25C2.83579 16 2.5 15.6642 2.5 15.25C2.5 14.8358 2.83579 14.5 3.25 14.5H4V11.126C4 10.9325 4.07483 10.7464 4.20883 10.6068L6.82602 7.87918L4.20804 5.14241C4.07452 5.00283 4 4.81712 4 4.62397V1.5H3.25C2.83579 1.5 2.5 1.16421 2.5 0.75ZM5.5 1.5H10.5V4.32168L7.99172 6.92779L5.5 4.32301V1.5ZM5.5 11.4277L8 8.82221L10.5 11.4277V14.25H5.5V11.4277Z" fill="#474E5A"/>
</svg>
