<svg width="16" height="16" viewBox="0 0 16 16" fill="none" xmlns="http://www.w3.org/2000/svg">
<path fill-rule="evenodd" clip-rule="evenodd" d="M6.44999 12C6.48279 12.1616 6.5 12.3288 6.5 12.5C6.5 13.8807 5.38071 15 4 15C2.61929 15 1.5 13.8807 1.5 12.5C1.5 12.3116 1.52085 12.128 1.56036 11.9515C0.667284 11.7512 0 10.9535 0 10V3C0 1.89543 0.895431 1 2 1H8C9.10457 1 10 1.89543 10 3V4H12.1716C12.702 4 13.2107 4.21071 13.5858 4.58579L15.4142 6.41421C15.7893 6.78929 16 7.29799 16 7.82843V11C16 11.5523 15.5523 12 15 12H14.45C14.4828 12.1615 14.5 12.3287 14.5 12.4999C14.5 13.8807 13.3807 14.9999 12 14.9999C10.6193 14.9999 9.5 13.8807 9.5 12.4999C9.5 12.3287 9.51721 12.1615 9.55 12H6.44999ZM2 2.5H8C8.27614 2.5 8.5 2.72386 8.5 3V10.5H2C1.72386 10.5 1.5 10.2761 1.5 10V3C1.5 2.72386 1.72386 2.5 2 2.5ZM11.1337 12C11.0487 12.1471 11 12.3178 11 12.4999C11 13.0522 11.4477 13.4999 12 13.4999C12.5523 13.4999 13 13.0522 13 12.4999C13 12.3178 12.9513 12.1471 12.8663 12H11.1337ZM4.86622 12H3.13378C3.0487 12.1471 3 12.3179 3 12.5C3 13.0523 3.44772 13.5 4 13.5C4.55228 13.5 5 13.0523 5 12.5C5 12.3179 4.9513 12.1471 4.86622 12ZM10 10.5H14.5V7.82843C14.5 7.69582 14.4473 7.56864 14.3536 7.47487L12.5251 5.64645C12.4314 5.55268 12.3042 5.5 12.1716 5.5H10V10.5Z" fill="#474E5A"/>
</svg>
