<svg width="16" height="16" viewBox="0 0 16 16" fill="none" xmlns="http://www.w3.org/2000/svg">
<path fill-rule="evenodd" clip-rule="evenodd" d="M2 8.75C2.41421 8.75 2.75 9.08579 2.75 9.5V14H13.25V9.5C13.25 9.08579 13.5858 8.75 14 8.75C14.4142 8.75 14.75 9.08579 14.75 9.5V14.75C14.75 15.1642 14.4142 15.5 14 15.5H2C1.58579 15.5 1.25 15.1642 1.25 14.75V9.5C1.25 9.08579 1.58579 8.75 2 8.75Z" fill="#474E5A"/>
<path d="M8.53033 0.46967C8.38388 0.323223 8.19194 0.25 8 0.25C7.80806 0.25 7.61612 0.323223 7.46967 0.46967L3.96967 3.96967C3.67678 4.26256 3.67678 4.73744 3.96967 5.03033C4.26256 5.32322 4.73744 5.32322 5.03033 5.03033L7.25 2.81066L7.25 11.5C7.25 11.9142 7.58579 12.25 8 12.25C8.41421 12.25 8.75 11.9142 8.75 11.5L8.75 2.81066L10.9697 5.03033C11.2626 5.32322 11.7374 5.32322 12.0303 5.03033C12.3232 4.73744 12.3232 4.26256 12.0303 3.96967L8.53033 0.46967Z" fill="#474E5A"/>
</svg>
