<svg width="16" height="16" viewBox="0 0 16 16" fill="none" xmlns="http://www.w3.org/2000/svg">
<path fill-rule="evenodd" clip-rule="evenodd" d="M8 2.5C4.41015 2.5 1.5 5.41015 1.5 9C1.5 10.2901 1.87455 11.4899 2.52157 12.5H13.4784C14.1254 11.4899 14.5 10.2901 14.5 9C14.5 5.41015 11.5899 2.5 8 2.5ZM14.2454 14C15.3433 12.6304 16 10.8919 16 9C16 4.58172 12.4183 1 8 1C3.58172 1 0 4.58172 0 9C0 10.8919 0.656718 12.6304 1.75463 14H14.2454Z" fill="#474E5A"/>
<path d="M10.5776 5.68784C10.7297 5.54624 10.9239 5.47705 11.1171 5.47952C11.313 5.48202 11.5078 5.55815 11.6568 5.70711C11.8095 5.85983 11.8857 6.06081 11.8844 6.26166C11.8833 6.44996 11.8141 6.63816 11.6761 6.78636L8.09558 10.6321C7.90073 10.8414 7.63537 10.9442 7.37128 10.9393C7.13073 10.9349 6.89123 10.841 6.70706 10.6569C6.51778 10.4676 6.42392 10.2199 6.42444 9.97264C6.42498 9.7152 6.52784 9.45827 6.73185 9.26833L10.5776 5.68784Z" fill="#474E5A"/>
</svg>
