<svg width="16" height="16" viewBox="0 0 16 16" fill="none" xmlns="http://www.w3.org/2000/svg">
<path fill-rule="evenodd" clip-rule="evenodd" d="M9 12C11.2091 12 13 10.2091 13 8C13 5.79086 11.2091 4 9 4C6.79086 4 5 5.79086 5 8C5 10.2091 6.79086 12 9 12ZM11.3856 7.25H10C9.58579 7.25 9.25 7.58579 9.25 8C9.25 8.41421 9.58579 8.75 10 8.75H11.3856C11.067 9.76428 10.1194 10.5 9 10.5C7.61929 10.5 6.5 9.38071 6.5 8C6.5 6.61929 7.61929 5.5 9 5.5C10.1194 5.5 11.067 6.23572 11.3856 7.25Z" fill="#474E5A"/>
<path fill-rule="evenodd" clip-rule="evenodd" d="M1 11.5V12.5C1 13.8807 2.11929 15 3.5 15H4.04268C4.01504 15.0782 4 15.1623 4 15.25C4 15.6642 4.33579 16 4.75 16H6.25C6.66421 16 7 15.6642 7 15.25C7 15.1623 6.98496 15.0782 6.95732 15H10.0427C10.015 15.0782 10 15.1623 10 15.25C10 15.6642 10.3358 16 10.75 16H12.25C12.6642 16 13 15.6642 13 15.25C13 15.1623 12.985 15.0782 12.9573 15H13.5C14.8807 15 16 13.8807 16 12.5V3.5C16 2.11929 14.8807 1 13.5 1H3.5C2.11929 1 1 2.11929 1 3.5V4.5H0.75C0.335786 4.5 0 4.83579 0 5.25C0 5.66421 0.335786 6 0.75 6H1V10H0.75C0.335786 10 0 10.3358 0 10.75C0 11.1642 0.335786 11.5 0.75 11.5H1ZM13.5 2.5H3.5C2.94772 2.5 2.5 2.94772 2.5 3.5V4.5H3.75C4.16421 4.5 4.5 4.83579 4.5 5.25C4.5 5.66421 4.16421 6 3.75 6H2.5V10H3.75C4.16421 10 4.5 10.3358 4.5 10.75C4.5 11.1642 4.16421 11.5 3.75 11.5H2.5V12.5C2.5 13.0523 2.94772 13.5 3.5 13.5H13.5C14.0523 13.5 14.5 13.0523 14.5 12.5V3.5C14.5 2.94772 14.0523 2.5 13.5 2.5Z" fill="#474E5A"/>
</svg>
