<svg width="16" height="16" viewBox="0 0 16 16" fill="none" xmlns="http://www.w3.org/2000/svg">
<path fill-rule="evenodd" clip-rule="evenodd" d="M12.5 10.7388V12.2854C12.5 13.5208 11.494 14.5 10.2689 14.5H2.23115C1.00269 14.5 0 13.5074 0 12.2854V3.71462C0 2.47921 1.00605 1.5 2.23115 1.5H10.2689C11.4973 1.5 12.5 2.49257 12.5 3.71462V5.2684L14.2591 4.58501C15.0505 4.2852 16 4.82443 16 5.76143V10.239C16 11.176 15.0505 11.7153 14.2591 11.4155L14.2555 11.4141L12.5 10.7388ZM1.5 3.71462C1.5 3.32489 1.81711 3 2.23115 3H10.2689C10.6795 3 11 3.3316 11 3.71462V12.2854C11 12.6751 10.6829 13 10.2689 13H2.23115C1.82047 13 1.5 12.6684 1.5 12.2854V3.71462ZM12.5 9.13167L14.5 9.901V6.10061L12.5 6.87761V9.13167Z" fill="#474E5A"/>
<path fill-rule="evenodd" clip-rule="evenodd" d="M5.47127 10.1706C5.16612 10.3796 4.75 10.1516 4.75 9.77162V6.22838C4.75 5.84841 5.16612 5.62041 5.47127 5.8294L8.04194 7.60577C8.31935 7.79576 8.31935 8.21372 8.04194 8.40371L5.47127 10.1706Z" fill="#474E5A"/>
</svg>
