<svg width="16" height="16" viewBox="0 0 16 16" fill="none" xmlns="http://www.w3.org/2000/svg">
<path fill-rule="evenodd" clip-rule="evenodd" d="M8 14.5C11.5903 14.5 14.5 11.5903 14.5 7.99999C14.5 4.40834 11.6 1.5 8 1.5C4.4097 1.5 1.5 4.40969 1.5 7.99999C1.5 11.5903 4.4097 14.5 8 14.5ZM8 16C12.4187 16 16 12.4187 16 7.99999C16 3.58126 12.4297 0 8 0C3.58127 0 0 3.58126 0 7.99999C0 12.4187 3.58127 16 8 16Z" fill="#474E5A"/>
<path d="M9.25 11.2501C9.25 11.9393 8.68925 12.5001 8 12.5001C7.31075 12.5001 6.75 11.9393 6.75 11.2501C6.75 10.5608 7.31075 10.0001 8 10.0001C8.68925 10.0001 9.25 10.5608 9.25 11.2501Z" fill="#474E5A"/>
<path d="M7.05256 4.99868C7.02399 4.45586 7.45643 4.00006 8 4.00006C8.54357 4.00006 8.97601 4.45586 8.94744 4.99868L8.78942 8.0011C8.76732 8.42096 8.42044 8.75006 8 8.75006C7.57956 8.75006 7.23268 8.42096 7.21058 8.0011L7.05256 4.99868Z" fill="#474E5A"/>
</svg>
