<svg width="16" height="16" viewBox="0 0 16 16" fill="none" xmlns="http://www.w3.org/2000/svg">
<path fill-rule="evenodd" clip-rule="evenodd" d="M10.461 1.70514L15.3786 10.6462C15.6223 11.0892 15.75 11.5865 15.75 12.092V12.75C15.75 14.4069 14.4069 15.75 12.75 15.75H3.25C1.59315 15.75 0.25 14.4069 0.25 12.75V12.092C0.25 11.5865 0.377738 11.0892 0.621352 10.6462L5.53896 1.70514C6.03259 0.807623 6.97569 0.25 8 0.25C9.02431 0.25 9.96741 0.807623 10.461 1.70514ZM12.75 14.25H3.25C2.42157 14.25 1.75 13.5784 1.75 12.75V12.092C1.75 11.8392 1.81387 11.5906 1.93568 11.3691L6.85328 2.42802C7.08329 2.00982 7.52272 1.75 8 1.75C8.47728 1.75 8.91671 2.00982 9.14672 2.42802L14.0643 11.3691C14.1861 11.5906 14.25 11.8392 14.25 12.092V12.75C14.25 13.5784 13.5784 14.25 12.75 14.25Z" fill="#474E5A"/>
<path d="M9.25 11.5001C9.25 12.1893 8.68925 12.7501 8 12.7501C7.31075 12.7501 6.75 12.1893 6.75 11.5001C6.75 10.8108 7.31075 10.2501 8 10.2501C8.68925 10.2501 9.25 10.8108 9.25 11.5001Z" fill="#474E5A"/>
<path d="M6.99995 5.49868C6.97138 4.95586 7.45641 4.50006 7.99998 4.50006C8.54355 4.50006 9.02854 4.95586 8.99997 5.49868L8.7894 8.5011C8.7673 8.92096 8.42042 9.25006 7.99998 9.25006C7.57954 9.25006 7.23266 8.92096 7.21056 8.5011L6.99995 5.49868Z" fill="#474E5A"/>
</svg>
