<svg width="16" height="16" viewBox="0 0 16 16" fill="none" xmlns="http://www.w3.org/2000/svg">
<path d="M1.61872 5.61872C3.16749 4.06994 5.54867 3.25 8 3.25C10.4513 3.25 12.8325 4.06994 14.3813 5.61872C14.723 5.96043 15.277 5.96043 15.6187 5.61872C15.9604 5.27701 15.9604 4.72299 15.6187 4.38128C13.6675 2.43005 10.7987 1.5 8 1.5C5.20133 1.5 2.33251 2.43005 0.381282 4.38128C0.0395728 4.72299 0.0395728 5.27701 0.381282 5.61872C0.72299 5.96043 1.27701 5.96043 1.61872 5.61872Z" fill="#474E5A"/>
<path d="M8 7.875C6.67367 7.875 5.41749 8.31995 4.61872 9.11872C4.27701 9.46043 3.72299 9.46043 3.38128 9.11872C3.03957 8.77701 3.03957 8.22299 3.38128 7.88128C4.58251 6.68005 6.32633 6.125 8 6.125C9.67367 6.125 11.4175 6.68005 12.6187 7.88128C12.9604 8.22299 12.9604 8.77701 12.6187 9.11872C12.277 9.46043 11.723 9.46043 11.3813 9.11872C10.5825 8.31995 9.32633 7.875 8 7.875Z" fill="#474E5A"/>
<path d="M8 11C8.82843 11 9.5 11.6716 9.5 12.5C9.5 13.3284 8.82843 14 8 14C7.17157 14 6.5 13.3284 6.5 12.5C6.5 11.6716 7.17157 11 8 11Z" fill="#474E5A"/>
</svg>
