<svg width="16" height="16" viewBox="0 0 16 16" fill="none" xmlns="http://www.w3.org/2000/svg">
<path fill-rule="evenodd" clip-rule="evenodd" d="M4.25 4.25005H7.5C7.91421 4.25005 8.25 3.91426 8.25 3.50005C8.25 3.08584 7.91421 2.75005 7.5 2.75005H4C3.30964 2.75005 2.75 3.30969 2.75 4.00005V11C2.75 11.6904 3.30964 12.25 4 12.25H14.5C15.1904 12.25 15.75 11.6904 15.75 11V7.50005C15.75 7.08583 15.4142 6.75005 15 6.75005C14.5858 6.75005 14.25 7.08583 14.25 7.50005V10.75H4.25V4.25005Z" fill="#474E5A"/>
<path fill-rule="evenodd" clip-rule="evenodd" d="M8.5 7.00005V8.00005C8.5 8.41426 8.83579 8.75005 9.25 8.75005C9.66421 8.75005 10 8.41426 10 8.00005V7.00005C10 6.58584 9.66421 6.25005 9.25 6.25005C8.83579 6.25005 8.5 6.58583 8.5 7.00005ZM7.25 7.00005V8.00005C7.25 9.10462 8.14543 10 9.25 10C10.3546 10 11.25 9.10462 11.25 8.00005V7.00005C11.25 5.89548 10.3546 5.00005 9.25 5.00005C8.14543 5.00005 7.25 5.89548 7.25 7.00005Z" fill="#474E5A"/>
<path fill-rule="evenodd" clip-rule="evenodd" d="M1 5.25005C1.41421 5.25005 1.75 5.58583 1.75 6.00005V12.5C1.75 12.9143 2.08579 13.25 2.5 13.25H12.5C12.9142 13.25 13.25 13.5858 13.25 14C13.25 14.4143 12.9142 14.75 12.5 14.75H2.5C1.25736 14.75 0.25 13.7427 0.25 12.5V6.00005C0.25 5.58583 0.585786 5.25005 1 5.25005Z" fill="#474E5A"/>
<path fill-rule="evenodd" clip-rule="evenodd" d="M13 0.0500488C13.3866 0.0500488 13.7 0.363449 13.7 0.750049V3.3101L14.505 2.50507C14.7784 2.23171 15.2216 2.23171 15.495 2.50507C15.7683 2.77844 15.7683 3.22166 15.495 3.49502L13.495 5.49502C13.2216 5.76839 12.7784 5.76839 12.505 5.49502L10.505 3.49502C10.2317 3.22166 10.2317 2.77844 10.505 2.50507C10.7784 2.23171 11.2216 2.23171 11.495 2.50507L12.3 3.3101V0.750049C12.3 0.363449 12.6134 0.0500488 13 0.0500488Z" fill="#474E5A"/>
</svg>
